<?xml version="1.0" encoding="UTF-8" standalone="no"?>
<!DOCTYPE svg PUBLIC "-//W3C//DTD SVG 1.1//EN" "http://www.w3.org/Graphics/SVG/1.1/DTD/svg11.dtd">
<svg width="100%" height="100%" viewBox="0 0 840 1518" version="1.1" xmlns="http://www.w3.org/2000/svg" xmlns:xlink="http://www.w3.org/1999/xlink" xml:space="preserve" xmlns:serif="http://www.serif.com/" style="fill-rule:evenodd;clip-rule:evenodd;stroke-linejoin:round;stroke-miterlimit:2;">
    <g transform="matrix(1,0,0,1,-9179.39,-1800.16)">
        <g id="B.Cu" transform="matrix(1,0,0,1,8304.39,1800.16)">
            <rect x="875" y="0" width="840" height="1517.72" style="fill:none;"/>
            <g id="Panel-Edge" serif:id="Panel Edge" transform="matrix(1,0,0,1,875,0)">
                <rect x="0" y="0" width="840" height="1517.72" style="fill:none;"/>
            </g>
            <g transform="matrix(1,0,0,1,875,0)">
                <g id="copper">
                    <g id="Holes">
                        <g id="CopperPlating">
                            <path d="M126.194,35.625C126.194,20.705 114.099,8.61 99.179,8.61C92.36,8.61 84.651,8.61 77.832,8.61C62.912,8.61 50.817,20.705 50.817,35.625C50.817,35.625 50.817,35.626 50.817,35.626C50.817,50.546 62.912,62.642 77.832,62.642C84.651,62.642 92.36,62.642 99.179,62.642C114.099,62.642 126.194,50.546 126.194,35.626L126.194,35.625ZM117.861,35.625C117.861,25.307 109.497,16.943 99.179,16.943C92.36,16.943 84.651,16.943 77.832,16.943C67.514,16.943 59.15,25.307 59.15,35.625C59.15,35.625 59.15,35.626 59.15,35.626C59.15,45.944 67.514,54.308 77.832,54.308C84.651,54.308 92.36,54.308 99.179,54.308C109.497,54.308 117.861,45.944 117.861,35.626C117.861,35.626 117.861,35.625 117.861,35.625Z"/>
                            <g transform="matrix(1,0,0,1,0,1446.19)">
                                <path d="M126.194,35.625C126.194,20.705 114.099,8.61 99.179,8.61C92.36,8.61 84.651,8.61 77.832,8.61C62.912,8.61 50.817,20.705 50.817,35.625C50.817,35.625 50.817,35.626 50.817,35.626C50.817,50.546 62.912,62.642 77.832,62.642C84.651,62.642 92.36,62.642 99.179,62.642C114.099,62.642 126.194,50.546 126.194,35.626L126.194,35.625ZM117.861,35.625C117.861,25.307 109.497,16.943 99.179,16.943C92.36,16.943 84.651,16.943 77.832,16.943C67.514,16.943 59.15,25.307 59.15,35.625C59.15,35.625 59.15,35.626 59.15,35.626C59.15,45.944 67.514,54.308 77.832,54.308C84.651,54.308 92.36,54.308 99.179,54.308C109.497,54.308 117.861,45.944 117.861,35.626C117.861,35.626 117.861,35.625 117.861,35.625Z"/>
                            </g>
                            <g transform="matrix(1,0,0,1,662.896,0)">
                                <path d="M126.194,35.625C126.194,20.705 114.099,8.61 99.179,8.61C92.36,8.61 84.651,8.61 77.832,8.61C62.912,8.61 50.817,20.705 50.817,35.625C50.817,35.625 50.817,35.626 50.817,35.626C50.817,50.546 62.912,62.642 77.832,62.642C84.651,62.642 92.36,62.642 99.179,62.642C114.099,62.642 126.194,50.546 126.194,35.626L126.194,35.625ZM117.861,35.625C117.861,25.307 109.497,16.943 99.179,16.943C92.36,16.943 84.651,16.943 77.832,16.943C67.514,16.943 59.15,25.307 59.15,35.625C59.15,35.625 59.15,35.626 59.15,35.626C59.15,45.944 67.514,54.308 77.832,54.308C84.651,54.308 92.36,54.308 99.179,54.308C109.497,54.308 117.861,45.944 117.861,35.626C117.861,35.626 117.861,35.625 117.861,35.625Z"/>
                            </g>
                            <g transform="matrix(1,0,0,1,662.896,1446.19)">
                                <path d="M126.194,35.625C126.194,20.705 114.099,8.61 99.179,8.61C92.36,8.61 84.651,8.61 77.832,8.61C62.912,8.61 50.817,20.705 50.817,35.625C50.817,35.625 50.817,35.626 50.817,35.626C50.817,50.546 62.912,62.642 77.832,62.642C84.651,62.642 92.36,62.642 99.179,62.642C114.099,62.642 126.194,50.546 126.194,35.626L126.194,35.625ZM117.861,35.625C117.861,25.307 109.497,16.943 99.179,16.943C92.36,16.943 84.651,16.943 77.832,16.943C67.514,16.943 59.15,25.307 59.15,35.625C59.15,35.625 59.15,35.626 59.15,35.626C59.15,45.944 67.514,54.308 77.832,54.308C84.651,54.308 92.36,54.308 99.179,54.308C109.497,54.308 117.861,45.944 117.861,35.626C117.861,35.626 117.861,35.625 117.861,35.625Z"/>
                            </g>
                        </g>
                    </g>
                </g>
            </g>
            <g transform="matrix(1,0,0,1,-4470.34,-1800.16)">
                <g id="pot">
                    <path d="M5765.34,2559.1C5793.37,2559.1 5816.12,2581.86 5816.12,2609.89C5816.12,2637.92 5793.37,2660.67 5765.34,2660.67C5737.31,2660.67 5714.55,2637.92 5714.55,2609.89C5714.55,2581.86 5737.31,2559.1 5765.34,2559.1ZM5765.34,2568.55C5788.15,2568.55 5806.67,2587.07 5806.67,2609.89C5806.67,2632.7 5788.15,2651.22 5765.34,2651.22C5742.52,2651.22 5724,2632.7 5724,2609.89C5724,2587.07 5742.52,2568.55 5765.34,2568.55Z"/>
                </g>
            </g>
            <g transform="matrix(1,0,0,1,-4470.34,-1800.16)">
                <g id="pot1" serif:id="pot">
                    <path d="M5986.08,2559.1C6014.11,2559.1 6036.87,2581.86 6036.87,2609.89C6036.87,2637.92 6014.11,2660.67 5986.08,2660.67C5958.05,2660.67 5935.3,2637.92 5935.3,2609.89C5935.3,2581.86 5958.05,2559.1 5986.08,2559.1ZM5986.08,2568.55C6008.9,2568.55 6027.42,2587.07 6027.42,2609.89C6027.42,2632.7 6008.9,2651.22 5986.08,2651.22C5963.27,2651.22 5944.74,2632.7 5944.74,2609.89C5944.74,2587.07 5963.27,2568.55 5986.08,2568.55Z"/>
                </g>
            </g>
            <g transform="matrix(1,0,0,1,-0.577715,7.51557)">
                <g transform="matrix(1,0,0,1,-4469.76,-1807.68)">
                    <path d="M5875.65,2737.42C5909.55,2737.42 5937.07,2764.94 5937.07,2798.83C5937.07,2832.73 5909.55,2860.25 5875.65,2860.25C5841.75,2860.25 5814.23,2832.73 5814.23,2798.83C5814.23,2764.94 5841.75,2737.42 5875.65,2737.42ZM5875.65,2763.07C5895.86,2763.07 5912.27,2779.47 5912.27,2799.68C5912.27,2819.89 5895.86,2836.3 5875.65,2836.3C5855.44,2836.3 5839.04,2819.89 5839.04,2799.68C5839.04,2779.47 5855.44,2763.07 5875.65,2763.07Z"/>
                </g>
                <g transform="matrix(1,0,0,1,-4469.76,-1807.68)">
                    <path d="M6096.52,2737.42C6130.41,2737.42 6157.93,2764.94 6157.93,2798.83C6157.93,2832.73 6130.41,2860.25 6096.52,2860.25C6062.62,2860.25 6035.1,2832.73 6035.1,2798.83C6035.1,2764.94 6062.62,2737.42 6096.52,2737.42ZM6096.52,2763.07C6116.73,2763.07 6133.13,2779.47 6133.13,2799.68C6133.13,2819.89 6116.73,2836.3 6096.52,2836.3C6076.31,2836.3 6059.9,2819.89 6059.9,2799.68C6059.9,2779.47 6076.31,2763.07 6096.52,2763.07Z"/>
                </g>
            </g>
        </g>
    </g>
</svg>
