<?xml version="1.0" encoding="UTF-8" standalone="no"?>
<!DOCTYPE svg PUBLIC "-//W3C//DTD SVG 1.1//EN" "http://www.w3.org/Graphics/SVG/1.1/DTD/svg11.dtd">
<svg width="100%" height="100%" viewBox="0 0 840 1518" version="1.1" xmlns="http://www.w3.org/2000/svg" xmlns:xlink="http://www.w3.org/1999/xlink" xml:space="preserve" xmlns:serif="http://www.serif.com/" style="fill-rule:evenodd;clip-rule:evenodd;stroke-linejoin:round;stroke-miterlimit:2;">
    <g transform="matrix(1,0,0,1,-7839.77,-1800.16)">
        <g id="B.Mask" transform="matrix(1,0,0,1,6964.77,1800.16)">
            <rect x="875" y="0" width="840" height="1517.72" style="fill:none;"/>
            <g id="Panel-Edge" serif:id="Panel Edge" transform="matrix(1,0,0,1,875,0)">
                <rect x="0" y="0" width="840" height="1517.72" style="fill:none;"/>
            </g>
            <g transform="matrix(1,0,0,1,881.66,-1.88395)">
                <g transform="matrix(0.707107,0.707107,-0.707107,0.707107,102.988,601.056)">
                    <rect x="-17.812" y="-40.647" width="35.624" height="23.302"/>
                </g>
                <g transform="matrix(0.707107,0.707107,-0.707107,0.707107,102.988,453.419)">
                    <rect x="-17.812" y="-40.647" width="35.624" height="23.302"/>
                </g>
                <g transform="matrix(0.707107,0.707107,-0.707107,0.707107,102.988,305.781)">
                    <rect x="-17.812" y="-40.647" width="35.624" height="23.302"/>
                </g>
                <g transform="matrix(0.707107,0.707107,-0.707107,0.707107,102.988,158.143)">
                    <rect x="-17.812" y="-40.647" width="35.624" height="23.302"/>
                </g>
            </g>
            <g transform="matrix(1,0,0,1,1102.3,-1.88395)">
                <g transform="matrix(0.707107,0.707107,-0.707107,0.707107,102.988,601.056)">
                    <rect x="-17.812" y="-40.647" width="35.624" height="23.302"/>
                </g>
                <g transform="matrix(0.707107,0.707107,-0.707107,0.707107,102.988,453.419)">
                    <rect x="-17.812" y="-40.647" width="35.624" height="23.302"/>
                </g>
                <g transform="matrix(0.707107,0.707107,-0.707107,0.707107,102.988,305.781)">
                    <rect x="-17.812" y="-40.647" width="35.624" height="23.302"/>
                </g>
                <g transform="matrix(0.707107,0.707107,-0.707107,0.707107,102.988,158.143)">
                    <rect x="-17.812" y="-40.647" width="35.624" height="23.302"/>
                </g>
            </g>
            <g transform="matrix(1,0,0,1,1322.94,-1.88395)">
                <g transform="matrix(0.707107,0.707107,-0.707107,0.707107,102.988,601.056)">
                    <rect x="-17.812" y="-40.647" width="35.624" height="23.302"/>
                </g>
                <g transform="matrix(0.707107,0.707107,-0.707107,0.707107,102.988,453.419)">
                    <rect x="-17.812" y="-40.647" width="35.624" height="23.302"/>
                </g>
                <g transform="matrix(0.707107,0.707107,-0.707107,0.707107,102.988,305.781)">
                    <rect x="-17.812" y="-40.647" width="35.624" height="23.302"/>
                </g>
                <g transform="matrix(0.707107,0.707107,-0.707107,0.707107,102.988,158.143)">
                    <rect x="-17.812" y="-40.647" width="35.624" height="23.302"/>
                </g>
            </g>
            <g transform="matrix(1,0,0,1,1543.58,-1.88395)">
                <g transform="matrix(0.707107,0.707107,-0.707107,0.707107,102.988,601.056)">
                    <rect x="-17.812" y="-40.647" width="35.624" height="23.302"/>
                </g>
                <g transform="matrix(0.707107,0.707107,-0.707107,0.707107,102.988,453.419)">
                    <rect x="-17.812" y="-40.647" width="35.624" height="23.302"/>
                </g>
                <g transform="matrix(0.707107,0.707107,-0.707107,0.707107,102.988,305.781)">
                    <rect x="-17.812" y="-40.647" width="35.624" height="23.302"/>
                </g>
                <g transform="matrix(0.707107,0.707107,-0.707107,0.707107,102.988,158.143)">
                    <rect x="-17.812" y="-40.647" width="35.624" height="23.302"/>
                </g>
            </g>
            <g transform="matrix(1.0041,0,0,0.62724,1524.69,749.098)">
                <path d="M-274.634,223.808C-302.079,198.411 -320.543,150.923 -320.543,96.586C-320.543,15.486 -279.412,-50.357 -228.75,-50.357C-178.089,-50.357 -136.958,15.486 -136.958,96.586C-136.958,150.923 -155.422,198.411 -182.867,223.808L-194.338,192.002C-173.754,172.955 -159.906,137.339 -159.906,96.586C-159.906,35.761 -190.754,-13.622 -228.75,-13.622C-266.747,-13.622 -297.595,35.761 -297.595,96.586C-297.595,137.339 -283.747,172.955 -263.163,192.002L-274.634,223.808Z"/>
            </g>
            <g transform="matrix(1.0041,0,0,0.62724,1745.44,749.098)">
                <path d="M-274.634,223.808C-302.079,198.411 -320.543,150.923 -320.543,96.586C-320.543,15.486 -279.412,-50.357 -228.75,-50.357C-178.089,-50.357 -136.958,15.486 -136.958,96.586C-136.958,150.923 -155.422,198.411 -182.867,223.808L-194.338,192.002C-173.754,172.955 -159.906,137.339 -159.906,96.586C-159.906,35.761 -190.754,-13.622 -228.75,-13.622C-266.747,-13.622 -297.595,35.761 -297.595,96.586C-297.595,137.339 -283.747,172.955 -263.163,192.002L-274.634,223.808Z"/>
            </g>
            <g id="Holes" transform="matrix(1,0,0,1,875,0)">
                <g id="CopperPlating">
                    <path d="M126.194,35.625C126.194,20.705 114.099,8.61 99.179,8.61C92.36,8.61 84.651,8.61 77.832,8.61C62.912,8.61 50.817,20.705 50.817,35.625C50.817,35.625 50.817,35.626 50.817,35.626C50.817,50.546 62.912,62.642 77.832,62.642C84.651,62.642 92.36,62.642 99.179,62.642C114.099,62.642 126.194,50.546 126.194,35.626L126.194,35.625ZM117.861,35.625C117.861,25.307 109.497,16.943 99.179,16.943C92.36,16.943 84.651,16.943 77.832,16.943C67.514,16.943 59.15,25.307 59.15,35.625C59.15,35.625 59.15,35.626 59.15,35.626C59.15,45.944 67.514,54.308 77.832,54.308C84.651,54.308 92.36,54.308 99.179,54.308C109.497,54.308 117.861,45.944 117.861,35.626C117.861,35.626 117.861,35.625 117.861,35.625Z"/>
                    <g transform="matrix(1,0,0,1,0,1446.19)">
                        <path d="M126.194,35.625C126.194,20.705 114.099,8.61 99.179,8.61C92.36,8.61 84.651,8.61 77.832,8.61C62.912,8.61 50.817,20.705 50.817,35.625C50.817,35.625 50.817,35.626 50.817,35.626C50.817,50.546 62.912,62.642 77.832,62.642C84.651,62.642 92.36,62.642 99.179,62.642C114.099,62.642 126.194,50.546 126.194,35.626L126.194,35.625ZM117.861,35.625C117.861,25.307 109.497,16.943 99.179,16.943C92.36,16.943 84.651,16.943 77.832,16.943C67.514,16.943 59.15,25.307 59.15,35.625C59.15,35.625 59.15,35.626 59.15,35.626C59.15,45.944 67.514,54.308 77.832,54.308C84.651,54.308 92.36,54.308 99.179,54.308C109.497,54.308 117.861,45.944 117.861,35.626C117.861,35.626 117.861,35.625 117.861,35.625Z"/>
                    </g>
                    <g transform="matrix(1,0,0,1,662.896,0)">
                        <path d="M126.194,35.625C126.194,20.705 114.099,8.61 99.179,8.61C92.36,8.61 84.651,8.61 77.832,8.61C62.912,8.61 50.817,20.705 50.817,35.625C50.817,35.625 50.817,35.626 50.817,35.626C50.817,50.546 62.912,62.642 77.832,62.642C84.651,62.642 92.36,62.642 99.179,62.642C114.099,62.642 126.194,50.546 126.194,35.626L126.194,35.625ZM117.861,35.625C117.861,25.307 109.497,16.943 99.179,16.943C92.36,16.943 84.651,16.943 77.832,16.943C67.514,16.943 59.15,25.307 59.15,35.625C59.15,35.625 59.15,35.626 59.15,35.626C59.15,45.944 67.514,54.308 77.832,54.308C84.651,54.308 92.36,54.308 99.179,54.308C109.497,54.308 117.861,45.944 117.861,35.626C117.861,35.626 117.861,35.625 117.861,35.625Z"/>
                    </g>
                    <g transform="matrix(1,0,0,1,662.896,1446.19)">
                        <path d="M126.194,35.625C126.194,20.705 114.099,8.61 99.179,8.61C92.36,8.61 84.651,8.61 77.832,8.61C62.912,8.61 50.817,20.705 50.817,35.625C50.817,35.625 50.817,35.626 50.817,35.626C50.817,50.546 62.912,62.642 77.832,62.642C84.651,62.642 92.36,62.642 99.179,62.642C114.099,62.642 126.194,50.546 126.194,35.626L126.194,35.625ZM117.861,35.625C117.861,25.307 109.497,16.943 99.179,16.943C92.36,16.943 84.651,16.943 77.832,16.943C67.514,16.943 59.15,25.307 59.15,35.625C59.15,35.625 59.15,35.626 59.15,35.626C59.15,45.944 67.514,54.308 77.832,54.308C84.651,54.308 92.36,54.308 99.179,54.308C109.497,54.308 117.861,45.944 117.861,35.626C117.861,35.626 117.861,35.625 117.861,35.625Z"/>
                    </g>
                </g>
            </g>
            <g transform="matrix(1,0,0,1,-4470.34,-1800.16)">
                <g id="pot">
                    <path d="M5765.34,2559.1C5793.37,2559.1 5816.12,2581.86 5816.12,2609.89C5816.12,2637.92 5793.37,2660.67 5765.34,2660.67C5737.31,2660.67 5714.55,2637.92 5714.55,2609.89C5714.55,2581.86 5737.31,2559.1 5765.34,2559.1ZM5765.34,2568.55C5788.15,2568.55 5806.67,2587.07 5806.67,2609.89C5806.67,2632.7 5788.15,2651.22 5765.34,2651.22C5742.52,2651.22 5724,2632.7 5724,2609.89C5724,2587.07 5742.52,2568.55 5765.34,2568.55Z"/>
                </g>
            </g>
            <g transform="matrix(1,0,0,1,-4470.34,-1800.16)">
                <g id="pot1" serif:id="pot">
                    <path d="M5986.08,2559.1C6014.11,2559.1 6036.87,2581.86 6036.87,2609.89C6036.87,2637.92 6014.11,2660.67 5986.08,2660.67C5958.05,2660.67 5935.3,2637.92 5935.3,2609.89C5935.3,2581.86 5958.05,2559.1 5986.08,2559.1ZM5986.08,2568.55C6008.9,2568.55 6027.42,2587.07 6027.42,2609.89C6027.42,2632.7 6008.9,2651.22 5986.08,2651.22C5963.27,2651.22 5944.74,2632.7 5944.74,2609.89C5944.74,2587.07 5963.27,2568.55 5986.08,2568.55Z"/>
                </g>
            </g>
            <g transform="matrix(1,0,0,1,-0.577715,7.51557)">
                <g transform="matrix(1,0,0,1,-5624.58,-1807.68)">
                    <path d="M7030.47,2737.42C7064.37,2737.42 7091.89,2764.94 7091.89,2798.83C7091.89,2832.73 7064.37,2860.25 7030.47,2860.25C6996.57,2860.25 6969.05,2832.73 6969.05,2798.83C6969.05,2764.94 6996.57,2737.42 7030.47,2737.42ZM7030.47,2763.07C7050.68,2763.07 7067.08,2779.47 7067.08,2799.68C7067.08,2819.89 7050.68,2836.3 7030.47,2836.3C7010.26,2836.3 6993.85,2819.89 6993.85,2799.68C6993.85,2779.47 7010.26,2763.07 7030.47,2763.07Z"/>
                </g>
                <g transform="matrix(1,0,0,1,-5624.58,-1807.68)">
                    <path d="M7251.34,2737.42C7285.23,2737.42 7312.75,2764.94 7312.75,2798.83C7312.75,2832.73 7285.23,2860.25 7251.34,2860.25C7217.44,2860.25 7189.92,2832.73 7189.92,2798.83C7189.92,2764.94 7217.44,2737.42 7251.34,2737.42ZM7251.34,2763.07C7271.54,2763.07 7287.95,2779.47 7287.95,2799.68C7287.95,2819.89 7271.54,2836.3 7251.34,2836.3C7231.13,2836.3 7214.72,2819.89 7214.72,2799.68C7214.72,2779.47 7231.13,2763.07 7251.34,2763.07Z"/>
                </g>
            </g>
            <g transform="matrix(1,0,0,1,-3.23838,3.27601)">
                <g transform="matrix(1,0,0,1,-288.886,517.608)">
                    <rect x="1228.53" y="550.171" width="54.358" height="54.358"/>
                </g>
                <g transform="matrix(1,0,0,1,-68.0196,517.608)">
                    <rect x="1228.53" y="550.171" width="54.358" height="54.358"/>
                </g>
                <g transform="matrix(1,0,0,1,152.847,517.608)">
                    <rect x="1228.53" y="550.171" width="54.358" height="54.358"/>
                </g>
                <g transform="matrix(1,0,0,1,373.713,517.608)">
                    <rect x="1228.53" y="550.171" width="54.358" height="54.358"/>
                </g>
            </g>
            <g transform="matrix(1,0,0,1,-3.23838,185.165)">
                <g transform="matrix(1,0,0,1,-288.886,517.608)">
                    <rect x="1228.53" y="550.171" width="54.358" height="54.358"/>
                </g>
                <g transform="matrix(1,0,0,1,-68.0196,517.608)">
                    <rect x="1228.53" y="550.171" width="54.358" height="54.358"/>
                </g>
                <g transform="matrix(1,0,0,1,152.847,517.608)">
                    <rect x="1228.53" y="550.171" width="54.358" height="54.358"/>
                </g>
                <g transform="matrix(1,0,0,1,373.713,517.608)">
                    <rect x="1228.53" y="550.171" width="54.358" height="54.358"/>
                </g>
            </g>
        </g>
    </g>
</svg>
