<?xml version="1.0" encoding="UTF-8" standalone="no"?>
<!DOCTYPE svg PUBLIC "-//W3C//DTD SVG 1.1//EN" "http://www.w3.org/Graphics/SVG/1.1/DTD/svg11.dtd">
<svg width="100%" height="100%" viewBox="0 0 840 1518" version="1.1" xmlns="http://www.w3.org/2000/svg" xmlns:xlink="http://www.w3.org/1999/xlink" xml:space="preserve" xmlns:serif="http://www.serif.com/" style="fill-rule:evenodd;clip-rule:evenodd;stroke-linecap:square;stroke-miterlimit:1.5;">
    <g transform="matrix(1,0,0,1,-8061.52,-13.7374)">
        <g id="Components" transform="matrix(1,0,0,1,7186.52,13.7374)">
            <rect x="875" y="0" width="840" height="1517.72" style="fill:rgb(83,27,147);"/>
            <g transform="matrix(0.345922,-0.345922,0.357482,0.357482,900.868,637.017)">
                <rect x="0" y="0" width="24.143" height="23.362" style="fill:rgb(255,147,0);"/>
            </g>
            <g transform="matrix(0.345922,-0.345922,0.357482,0.357482,971.857,566.028)">
                <rect x="0" y="0" width="24.143" height="23.362" style="fill:rgb(255,147,0);"/>
            </g>
            <g transform="matrix(0.345922,-0.345922,0.357482,0.357482,938.451,674.6)">
                <rect x="0" y="0" width="24.143" height="23.362" style="fill:rgb(255,147,0);"/>
            </g>
            <g transform="matrix(0.345922,-0.345922,0.357482,0.357482,1009.44,603.611)">
                <rect x="0" y="0" width="24.143" height="23.362" style="fill:rgb(255,147,0);"/>
            </g>
            <g transform="matrix(1,0,0,1,-7848.44,429.176)">
                <path d="M8786.89,216.193L8837,166.083" style="fill:none;stroke:rgb(255,147,0);stroke-width:0.42px;"/>
            </g>
            <g transform="matrix(1.64868e-14,1,-1,1.64868e-14,1154.64,-8191.63)">
                <path d="M8786.89,216.193L8837,166.083" style="fill:none;stroke:rgb(255,147,0);stroke-width:0.42px;"/>
            </g>
            <g transform="matrix(0.345922,-0.345922,0.357482,0.357482,900.868,489.38)">
                <rect x="0" y="0" width="24.143" height="23.362" style="fill:rgb(255,147,0);"/>
            </g>
            <g transform="matrix(0.345922,-0.345922,0.357482,0.357482,971.857,418.39)">
                <rect x="0" y="0" width="24.143" height="23.362" style="fill:rgb(255,147,0);"/>
            </g>
            <g transform="matrix(0.345922,-0.345922,0.357482,0.357482,938.451,526.962)">
                <rect x="0" y="0" width="24.143" height="23.362" style="fill:rgb(255,147,0);"/>
            </g>
            <g transform="matrix(0.345922,-0.345922,0.357482,0.357482,1009.44,455.973)">
                <rect x="0" y="0" width="24.143" height="23.362" style="fill:rgb(255,147,0);"/>
            </g>
            <g transform="matrix(1,0,0,1,-7848.44,281.538)">
                <path d="M8786.89,216.193L8837,166.083" style="fill:none;stroke:rgb(255,147,0);stroke-width:0.42px;"/>
            </g>
            <g transform="matrix(1.64868e-14,1,-1,1.64868e-14,1154.64,-8339.27)">
                <path d="M8786.89,216.193L8837,166.083" style="fill:none;stroke:rgb(255,147,0);stroke-width:0.42px;"/>
            </g>
            <g transform="matrix(0.345922,0.345922,-0.357482,0.357482,946.802,262.401)">
                <rect x="0" y="0" width="24.143" height="23.362" style="fill:rgb(255,147,0);"/>
            </g>
            <g transform="matrix(0.345922,0.345922,-0.357482,0.357482,1017.79,333.39)">
                <rect x="0" y="0" width="24.143" height="23.362" style="fill:rgb(255,147,0);"/>
            </g>
            <g transform="matrix(0.345922,0.345922,-0.357482,0.357482,909.22,299.983)">
                <rect x="0" y="0" width="24.143" height="23.362" style="fill:rgb(255,147,0);"/>
            </g>
            <g transform="matrix(0.345922,0.345922,-0.357482,0.357482,980.209,370.973)">
                <rect x="0" y="0" width="24.143" height="23.362" style="fill:rgb(255,147,0);"/>
            </g>
            <g transform="matrix(1,0,0,1,-7848.44,133.9)">
                <path d="M8786.89,216.193L8837,166.083" style="fill:none;stroke:rgb(255,147,0);stroke-width:0.42px;"/>
            </g>
            <g transform="matrix(1.64868e-14,1,-1,1.64868e-14,1154.64,-8486.91)">
                <path d="M8786.89,216.193L8837,166.083" style="fill:none;stroke:rgb(255,147,0);stroke-width:0.42px;"/>
            </g>
            <g transform="matrix(0.345922,0.345922,-0.357482,0.357482,946.802,114.763)">
                <rect x="0" y="0" width="24.143" height="23.362" style="fill:rgb(255,147,0);"/>
            </g>
            <g transform="matrix(0.345922,0.345922,-0.357482,0.357482,1017.79,185.752)">
                <rect x="0" y="0" width="24.143" height="23.362" style="fill:rgb(255,147,0);"/>
            </g>
            <g transform="matrix(0.345922,0.345922,-0.357482,0.357482,909.22,152.346)">
                <rect x="0" y="0" width="24.143" height="23.362" style="fill:rgb(255,147,0);"/>
            </g>
            <g transform="matrix(0.345922,0.345922,-0.357482,0.357482,980.209,223.335)">
                <rect x="0" y="0" width="24.143" height="23.362" style="fill:rgb(255,147,0);"/>
            </g>
            <g transform="matrix(1,0,0,1,-7848.44,-13.7374)">
                <path d="M8786.89,216.193L8837,166.083" style="fill:none;stroke:rgb(255,147,0);stroke-width:0.42px;"/>
            </g>
            <g transform="matrix(1.64868e-14,1,-1,1.64868e-14,1154.64,-8634.55)">
                <path d="M8786.89,216.193L8837,166.083" style="fill:none;stroke:rgb(255,147,0);stroke-width:0.42px;"/>
            </g>
            <g transform="matrix(0.345922,-0.345922,0.357482,0.357482,1121.51,637.017)">
                <rect x="0" y="0" width="24.143" height="23.362" style="fill:rgb(255,147,0);"/>
            </g>
            <g transform="matrix(0.345922,-0.345922,0.357482,0.357482,1192.5,566.028)">
                <rect x="0" y="0" width="24.143" height="23.362" style="fill:rgb(255,147,0);"/>
            </g>
            <g transform="matrix(0.345922,-0.345922,0.357482,0.357482,1159.09,674.6)">
                <rect x="0" y="0" width="24.143" height="23.362" style="fill:rgb(255,147,0);"/>
            </g>
            <g transform="matrix(0.345922,-0.345922,0.357482,0.357482,1230.08,603.611)">
                <rect x="0" y="0" width="24.143" height="23.362" style="fill:rgb(255,147,0);"/>
            </g>
            <g transform="matrix(1,0,0,1,-7627.8,429.176)">
                <path d="M8786.89,216.193L8837,166.083" style="fill:none;stroke:rgb(255,147,0);stroke-width:0.42px;"/>
            </g>
            <g transform="matrix(1.64868e-14,1,-1,1.64868e-14,1375.28,-8191.63)">
                <path d="M8786.89,216.193L8837,166.083" style="fill:none;stroke:rgb(255,147,0);stroke-width:0.42px;"/>
            </g>
            <g transform="matrix(0.345922,-0.345922,0.357482,0.357482,1121.51,489.38)">
                <rect x="0" y="0" width="24.143" height="23.362" style="fill:rgb(255,147,0);"/>
            </g>
            <g transform="matrix(0.345922,-0.345922,0.357482,0.357482,1192.5,418.39)">
                <rect x="0" y="0" width="24.143" height="23.362" style="fill:rgb(255,147,0);"/>
            </g>
            <g transform="matrix(0.345922,-0.345922,0.357482,0.357482,1159.09,526.962)">
                <rect x="0" y="0" width="24.143" height="23.362" style="fill:rgb(255,147,0);"/>
            </g>
            <g transform="matrix(0.345922,-0.345922,0.357482,0.357482,1230.08,455.973)">
                <rect x="0" y="0" width="24.143" height="23.362" style="fill:rgb(255,147,0);"/>
            </g>
            <g transform="matrix(1,0,0,1,-7627.8,281.538)">
                <path d="M8786.89,216.193L8837,166.083" style="fill:none;stroke:rgb(255,147,0);stroke-width:0.42px;"/>
            </g>
            <g transform="matrix(1.64868e-14,1,-1,1.64868e-14,1375.28,-8339.27)">
                <path d="M8786.89,216.193L8837,166.083" style="fill:none;stroke:rgb(255,147,0);stroke-width:0.42px;"/>
            </g>
            <g transform="matrix(0.345922,0.345922,-0.357482,0.357482,1167.44,262.401)">
                <rect x="0" y="0" width="24.143" height="23.362" style="fill:rgb(255,147,0);"/>
            </g>
            <g transform="matrix(0.345922,0.345922,-0.357482,0.357482,1238.43,333.39)">
                <rect x="0" y="0" width="24.143" height="23.362" style="fill:rgb(255,147,0);"/>
            </g>
            <g transform="matrix(0.345922,0.345922,-0.357482,0.357482,1129.86,299.983)">
                <rect x="0" y="0" width="24.143" height="23.362" style="fill:rgb(255,147,0);"/>
            </g>
            <g transform="matrix(0.345922,0.345922,-0.357482,0.357482,1200.85,370.973)">
                <rect x="0" y="0" width="24.143" height="23.362" style="fill:rgb(255,147,0);"/>
            </g>
            <g transform="matrix(1,0,0,1,-7627.8,133.9)">
                <path d="M8786.89,216.193L8837,166.083" style="fill:none;stroke:rgb(255,147,0);stroke-width:0.42px;"/>
            </g>
            <g transform="matrix(1.64868e-14,1,-1,1.64868e-14,1375.28,-8486.91)">
                <path d="M8786.89,216.193L8837,166.083" style="fill:none;stroke:rgb(255,147,0);stroke-width:0.42px;"/>
            </g>
            <g transform="matrix(0.345922,0.345922,-0.357482,0.357482,1167.44,114.763)">
                <rect x="0" y="0" width="24.143" height="23.362" style="fill:rgb(255,147,0);"/>
            </g>
            <g transform="matrix(0.345922,0.345922,-0.357482,0.357482,1238.43,185.752)">
                <rect x="0" y="0" width="24.143" height="23.362" style="fill:rgb(255,147,0);"/>
            </g>
            <g transform="matrix(0.345922,0.345922,-0.357482,0.357482,1129.86,152.346)">
                <rect x="0" y="0" width="24.143" height="23.362" style="fill:rgb(255,147,0);"/>
            </g>
            <g transform="matrix(0.345922,0.345922,-0.357482,0.357482,1200.85,223.335)">
                <rect x="0" y="0" width="24.143" height="23.362" style="fill:rgb(255,147,0);"/>
            </g>
            <g transform="matrix(1,0,0,1,-7627.8,-13.7374)">
                <path d="M8786.89,216.193L8837,166.083" style="fill:none;stroke:rgb(255,147,0);stroke-width:0.42px;"/>
            </g>
            <g transform="matrix(1.64868e-14,1,-1,1.64868e-14,1375.28,-8634.55)">
                <path d="M8786.89,216.193L8837,166.083" style="fill:none;stroke:rgb(255,147,0);stroke-width:0.42px;"/>
            </g>
            <g transform="matrix(0.345922,-0.345922,0.357482,0.357482,1342.15,637.017)">
                <rect x="0" y="0" width="24.143" height="23.362" style="fill:rgb(255,147,0);"/>
            </g>
            <g transform="matrix(0.345922,-0.345922,0.357482,0.357482,1413.14,566.028)">
                <rect x="0" y="0" width="24.143" height="23.362" style="fill:rgb(255,147,0);"/>
            </g>
            <g transform="matrix(0.345922,-0.345922,0.357482,0.357482,1379.73,674.6)">
                <rect x="0" y="0" width="24.143" height="23.362" style="fill:rgb(255,147,0);"/>
            </g>
            <g transform="matrix(0.345922,-0.345922,0.357482,0.357482,1450.72,603.611)">
                <rect x="0" y="0" width="24.143" height="23.362" style="fill:rgb(255,147,0);"/>
            </g>
            <g transform="matrix(1,0,0,1,-7407.16,429.176)">
                <path d="M8786.89,216.193L8837,166.083" style="fill:none;stroke:rgb(255,147,0);stroke-width:0.42px;"/>
            </g>
            <g transform="matrix(1.64868e-14,1,-1,1.64868e-14,1595.92,-8191.63)">
                <path d="M8786.89,216.193L8837,166.083" style="fill:none;stroke:rgb(255,147,0);stroke-width:0.42px;"/>
            </g>
            <g transform="matrix(0.345922,-0.345922,0.357482,0.357482,1342.15,489.38)">
                <rect x="0" y="0" width="24.143" height="23.362" style="fill:rgb(255,147,0);"/>
            </g>
            <g transform="matrix(0.345922,-0.345922,0.357482,0.357482,1413.14,418.39)">
                <rect x="0" y="0" width="24.143" height="23.362" style="fill:rgb(255,147,0);"/>
            </g>
            <g transform="matrix(0.345922,-0.345922,0.357482,0.357482,1379.73,526.962)">
                <rect x="0" y="0" width="24.143" height="23.362" style="fill:rgb(255,147,0);"/>
            </g>
            <g transform="matrix(0.345922,-0.345922,0.357482,0.357482,1450.72,455.973)">
                <rect x="0" y="0" width="24.143" height="23.362" style="fill:rgb(255,147,0);"/>
            </g>
            <g transform="matrix(1,0,0,1,-7407.16,281.538)">
                <path d="M8786.89,216.193L8837,166.083" style="fill:none;stroke:rgb(255,147,0);stroke-width:0.42px;"/>
            </g>
            <g transform="matrix(1.64868e-14,1,-1,1.64868e-14,1595.92,-8339.27)">
                <path d="M8786.89,216.193L8837,166.083" style="fill:none;stroke:rgb(255,147,0);stroke-width:0.42px;"/>
            </g>
            <g transform="matrix(0.345922,0.345922,-0.357482,0.357482,1388.08,262.401)">
                <rect x="0" y="0" width="24.143" height="23.362" style="fill:rgb(255,147,0);"/>
            </g>
            <g transform="matrix(0.345922,0.345922,-0.357482,0.357482,1459.07,333.39)">
                <rect x="0" y="0" width="24.143" height="23.362" style="fill:rgb(255,147,0);"/>
            </g>
            <g transform="matrix(0.345922,0.345922,-0.357482,0.357482,1350.5,299.983)">
                <rect x="0" y="0" width="24.143" height="23.362" style="fill:rgb(255,147,0);"/>
            </g>
            <g transform="matrix(0.345922,0.345922,-0.357482,0.357482,1421.49,370.973)">
                <rect x="0" y="0" width="24.143" height="23.362" style="fill:rgb(255,147,0);"/>
            </g>
            <g transform="matrix(1,0,0,1,-7407.16,133.9)">
                <path d="M8786.89,216.193L8837,166.083" style="fill:none;stroke:rgb(255,147,0);stroke-width:0.42px;"/>
            </g>
            <g transform="matrix(1.64868e-14,1,-1,1.64868e-14,1595.92,-8486.91)">
                <path d="M8786.89,216.193L8837,166.083" style="fill:none;stroke:rgb(255,147,0);stroke-width:0.42px;"/>
            </g>
            <g transform="matrix(0.345922,0.345922,-0.357482,0.357482,1388.08,114.763)">
                <rect x="0" y="0" width="24.143" height="23.362" style="fill:rgb(255,147,0);"/>
            </g>
            <g transform="matrix(0.345922,0.345922,-0.357482,0.357482,1459.07,185.752)">
                <rect x="0" y="0" width="24.143" height="23.362" style="fill:rgb(255,147,0);"/>
            </g>
            <g transform="matrix(0.345922,0.345922,-0.357482,0.357482,1350.5,152.346)">
                <rect x="0" y="0" width="24.143" height="23.362" style="fill:rgb(255,147,0);"/>
            </g>
            <g transform="matrix(0.345922,0.345922,-0.357482,0.357482,1421.49,223.335)">
                <rect x="0" y="0" width="24.143" height="23.362" style="fill:rgb(255,147,0);"/>
            </g>
            <g transform="matrix(1,0,0,1,-7407.16,-13.7374)">
                <path d="M8786.89,216.193L8837,166.083" style="fill:none;stroke:rgb(255,147,0);stroke-width:0.42px;"/>
            </g>
            <g transform="matrix(1.64868e-14,1,-1,1.64868e-14,1595.92,-8634.55)">
                <path d="M8786.89,216.193L8837,166.083" style="fill:none;stroke:rgb(255,147,0);stroke-width:0.42px;"/>
            </g>
            <g transform="matrix(0.345922,-0.345922,0.357482,0.357482,1562.79,637.017)">
                <rect x="0" y="0" width="24.143" height="23.362" style="fill:rgb(255,147,0);"/>
            </g>
            <g transform="matrix(0.345922,-0.345922,0.357482,0.357482,1633.78,566.028)">
                <rect x="0" y="0" width="24.143" height="23.362" style="fill:rgb(255,147,0);"/>
            </g>
            <g transform="matrix(0.345922,-0.345922,0.357482,0.357482,1600.37,674.6)">
                <rect x="0" y="0" width="24.143" height="23.362" style="fill:rgb(255,147,0);"/>
            </g>
            <g transform="matrix(0.345922,-0.345922,0.357482,0.357482,1671.36,603.611)">
                <rect x="0" y="0" width="24.143" height="23.362" style="fill:rgb(255,147,0);"/>
            </g>
            <g transform="matrix(1,0,0,1,-7186.52,429.176)">
                <path d="M8786.89,216.193L8837,166.083" style="fill:none;stroke:rgb(255,147,0);stroke-width:0.42px;"/>
            </g>
            <g transform="matrix(1.64868e-14,1,-1,1.64868e-14,1816.56,-8191.63)">
                <path d="M8786.89,216.193L8837,166.083" style="fill:none;stroke:rgb(255,147,0);stroke-width:0.42px;"/>
            </g>
            <g transform="matrix(0.345922,-0.345922,0.357482,0.357482,1562.79,489.38)">
                <rect x="0" y="0" width="24.143" height="23.362" style="fill:rgb(255,147,0);"/>
            </g>
            <g transform="matrix(0.345922,-0.345922,0.357482,0.357482,1633.78,418.39)">
                <rect x="0" y="0" width="24.143" height="23.362" style="fill:rgb(255,147,0);"/>
            </g>
            <g transform="matrix(0.345922,-0.345922,0.357482,0.357482,1600.37,526.962)">
                <rect x="0" y="0" width="24.143" height="23.362" style="fill:rgb(255,147,0);"/>
            </g>
            <g transform="matrix(0.345922,-0.345922,0.357482,0.357482,1671.36,455.973)">
                <rect x="0" y="0" width="24.143" height="23.362" style="fill:rgb(255,147,0);"/>
            </g>
            <g transform="matrix(1,0,0,1,-7186.52,281.538)">
                <path d="M8786.89,216.193L8837,166.083" style="fill:none;stroke:rgb(255,147,0);stroke-width:0.42px;"/>
            </g>
            <g transform="matrix(1.64868e-14,1,-1,1.64868e-14,1816.56,-8339.27)">
                <path d="M8786.89,216.193L8837,166.083" style="fill:none;stroke:rgb(255,147,0);stroke-width:0.42px;"/>
            </g>
            <g transform="matrix(0.345922,0.345922,-0.357482,0.357482,1608.72,262.401)">
                <rect x="0" y="0" width="24.143" height="23.362" style="fill:rgb(255,147,0);"/>
            </g>
            <g transform="matrix(0.345922,0.345922,-0.357482,0.357482,1679.71,333.39)">
                <rect x="0" y="0" width="24.143" height="23.362" style="fill:rgb(255,147,0);"/>
            </g>
            <g transform="matrix(0.345922,0.345922,-0.357482,0.357482,1571.14,299.983)">
                <rect x="0" y="0" width="24.143" height="23.362" style="fill:rgb(255,147,0);"/>
            </g>
            <g transform="matrix(0.345922,0.345922,-0.357482,0.357482,1642.13,370.973)">
                <rect x="0" y="0" width="24.143" height="23.362" style="fill:rgb(255,147,0);"/>
            </g>
            <g transform="matrix(1,0,0,1,-7186.52,133.9)">
                <path d="M8786.89,216.193L8837,166.083" style="fill:none;stroke:rgb(255,147,0);stroke-width:0.42px;"/>
            </g>
            <g transform="matrix(1.64868e-14,1,-1,1.64868e-14,1816.56,-8486.91)">
                <path d="M8786.89,216.193L8837,166.083" style="fill:none;stroke:rgb(255,147,0);stroke-width:0.42px;"/>
            </g>
            <g transform="matrix(0.345922,0.345922,-0.357482,0.357482,1608.72,114.763)">
                <rect x="0" y="0" width="24.143" height="23.362" style="fill:rgb(255,147,0);"/>
            </g>
            <g transform="matrix(0.345922,0.345922,-0.357482,0.357482,1679.71,185.752)">
                <rect x="0" y="0" width="24.143" height="23.362" style="fill:rgb(255,147,0);"/>
            </g>
            <g transform="matrix(0.345922,0.345922,-0.357482,0.357482,1571.14,152.346)">
                <rect x="0" y="0" width="24.143" height="23.362" style="fill:rgb(255,147,0);"/>
            </g>
            <g transform="matrix(0.345922,0.345922,-0.357482,0.357482,1642.13,223.335)">
                <rect x="0" y="0" width="24.143" height="23.362" style="fill:rgb(255,147,0);"/>
            </g>
            <g transform="matrix(1,0,0,1,-7186.52,-13.7374)">
                <path d="M8786.89,216.193L8837,166.083" style="fill:none;stroke:rgb(255,147,0);stroke-width:0.42px;stroke-linecap:round;stroke-linejoin:bevel;"/>
            </g>
            <g transform="matrix(1.64868e-14,1,-1,1.64868e-14,1816.56,-8634.55)">
                <path d="M8786.89,216.193L8837,166.083" style="fill:none;stroke:rgb(255,147,0);stroke-width:0.42px;stroke-linecap:round;stroke-linejoin:bevel;"/>
            </g>
            <g transform="matrix(0.707137,0.707076,-0.753571,0.75351,970.156,1094.55)">
                <path d="M53.15,141.644L53.242,0" style="fill:none;stroke:rgb(255,147,0);stroke-width:1.01px;stroke-linecap:round;stroke-linejoin:round;"/>
            </g>
            <g transform="matrix(0.707107,0.707107,-0.707107,0.707107,970.158,1094.54)">
                <path d="M0,70.822L106.484,70.866" style="fill:none;stroke:rgb(255,147,0);stroke-width:1.04px;stroke-linecap:round;stroke-linejoin:round;"/>
            </g>
            <g transform="matrix(0.707137,0.707076,-0.753571,0.75351,1190.79,1094.55)">
                <path d="M53.15,141.644L53.242,0" style="fill:none;stroke:rgb(255,147,0);stroke-width:1.01px;stroke-linecap:round;stroke-linejoin:round;"/>
            </g>
            <g transform="matrix(0.707107,0.707107,-0.707107,0.707107,1190.79,1094.54)">
                <path d="M0,70.822L106.484,70.866" style="fill:none;stroke:rgb(255,147,0);stroke-width:1.04px;stroke-linecap:round;stroke-linejoin:round;"/>
            </g>
            <g transform="matrix(0.707137,0.707076,-0.753571,0.75351,1411.42,1094.55)">
                <path d="M53.15,141.644L53.242,0" style="fill:none;stroke:rgb(255,147,0);stroke-width:1.01px;stroke-linecap:round;stroke-linejoin:round;"/>
            </g>
            <g transform="matrix(0.707107,0.707107,-0.707107,0.707107,1411.42,1094.54)">
                <path d="M0,70.822L106.484,70.866" style="fill:none;stroke:rgb(255,147,0);stroke-width:1.04px;stroke-linecap:round;stroke-linejoin:round;"/>
            </g>
            <g transform="matrix(0.707137,0.707076,-0.753571,0.75351,1632.05,1094.55)">
                <path d="M53.15,141.644L53.242,0" style="fill:none;stroke:rgb(255,147,0);stroke-width:1.01px;stroke-linecap:round;stroke-linejoin:round;"/>
            </g>
            <g transform="matrix(0.707107,0.707107,-0.707107,0.707107,1632.05,1094.54)">
                <path d="M0,70.822L106.484,70.866" style="fill:none;stroke:rgb(255,147,0);stroke-width:1.04px;stroke-linecap:round;stroke-linejoin:round;"/>
            </g>
            <g transform="matrix(0.707137,0.707076,-0.753571,0.75351,970.156,1276.96)">
                <path d="M53.15,141.644L53.242,0" style="fill:none;stroke:rgb(255,147,0);stroke-width:1.01px;stroke-linecap:round;stroke-linejoin:round;"/>
            </g>
            <g transform="matrix(0.707107,0.707107,-0.707107,0.707107,970.158,1276.96)">
                <path d="M0,70.822L106.484,70.866" style="fill:none;stroke:rgb(255,147,0);stroke-width:1.04px;stroke-linecap:round;stroke-linejoin:round;"/>
            </g>
            <g transform="matrix(0.707137,0.707076,-0.753571,0.75351,1190.79,1276.96)">
                <path d="M53.15,141.644L53.242,0" style="fill:none;stroke:rgb(255,147,0);stroke-width:1.01px;stroke-linecap:round;stroke-linejoin:round;"/>
            </g>
            <g transform="matrix(0.707107,0.707107,-0.707107,0.707107,1190.79,1276.96)">
                <path d="M0,70.822L106.484,70.866" style="fill:none;stroke:rgb(255,147,0);stroke-width:1.04px;stroke-linecap:round;stroke-linejoin:round;"/>
            </g>
            <g transform="matrix(0.707137,0.707076,-0.753571,0.75351,1411.42,1276.96)">
                <path d="M53.15,141.644L53.242,0" style="fill:none;stroke:rgb(255,147,0);stroke-width:1.01px;stroke-linecap:round;stroke-linejoin:round;"/>
            </g>
            <g transform="matrix(0.707107,0.707107,-0.707107,0.707107,1411.42,1276.96)">
                <path d="M0,70.822L106.484,70.866" style="fill:none;stroke:rgb(255,147,0);stroke-width:1.04px;stroke-linecap:round;stroke-linejoin:round;"/>
            </g>
            <g transform="matrix(0.707137,0.707076,-0.753571,0.75351,1632.05,1276.96)">
                <path d="M53.15,141.644L53.242,0" style="fill:none;stroke:rgb(255,147,0);stroke-width:1.01px;stroke-linecap:round;stroke-linejoin:round;"/>
            </g>
            <g transform="matrix(0.707107,0.707107,-0.707107,0.707107,1632.05,1276.96)">
                <path d="M0,70.822L106.484,70.866" style="fill:none;stroke:rgb(255,147,0);stroke-width:1.04px;stroke-linecap:round;stroke-linejoin:round;"/>
            </g>
            <g transform="matrix(6.54101e-17,-1.04167,1,5.9606e-17,1016.73,863.142)">
                <path d="M0,57.283L141.732,57.283" style="fill:none;stroke:rgb(255,147,0);stroke-width:1.22px;"/>
            </g>
            <g transform="matrix(1,0,0,1,1003.15,710.462)">
                <path d="M0,57.283L141.732,57.283" style="fill:none;stroke:rgb(255,147,0);stroke-width:1.25px;"/>
            </g>
            <g transform="matrix(6.54101e-17,-1.04167,1,5.9606e-17,1458.46,863.142)">
                <path d="M0,57.283L141.732,57.283" style="fill:none;stroke:rgb(255,147,0);stroke-width:1.22px;"/>
            </g>
            <g transform="matrix(1,0,0,1,1444.88,710.462)">
                <path d="M0,57.283L141.732,57.283" style="fill:none;stroke:rgb(255,147,0);stroke-width:1.25px;"/>
            </g>
            <g transform="matrix(1,-4.29046e-05,-4.29046e-05,1.06567,1020.2,885.947)">
                <path d="M53.15,141.644L53.242,0" style="fill:none;stroke:rgb(255,147,0);stroke-width:1.01px;stroke-linecap:round;stroke-linejoin:round;"/>
            </g>
            <g transform="matrix(1,0,0,1,1020.2,885.945)">
                <path d="M0,70.822L106.484,70.866" style="fill:none;stroke:rgb(255,147,0);stroke-width:1.04px;stroke-linecap:round;stroke-linejoin:round;"/>
            </g>
            <g transform="matrix(1,-4.29046e-05,-4.29046e-05,1.06567,1241.18,885.947)">
                <path d="M53.15,141.644L53.242,0" style="fill:none;stroke:rgb(255,147,0);stroke-width:1.01px;stroke-linecap:round;stroke-linejoin:round;"/>
            </g>
            <g transform="matrix(1,0,0,1,1241.18,885.945)">
                <path d="M0,70.822L106.484,70.866" style="fill:none;stroke:rgb(255,147,0);stroke-width:1.04px;stroke-linecap:round;stroke-linejoin:round;"/>
            </g>
            <g transform="matrix(1,-4.29046e-05,-4.29046e-05,1.06567,1461.82,885.947)">
                <path d="M53.15,141.644L53.242,0" style="fill:none;stroke:rgb(255,147,0);stroke-width:1.01px;stroke-linecap:round;stroke-linejoin:round;"/>
            </g>
            <g transform="matrix(1,0,0,1,1461.82,885.945)">
                <path d="M0,70.822L106.484,70.866" style="fill:none;stroke:rgb(255,147,0);stroke-width:1.04px;stroke-linecap:round;stroke-linejoin:round;"/>
            </g>
        </g>
    </g>
</svg>
