<?xml version="1.0" encoding="UTF-8" standalone="no"?>
<!DOCTYPE svg PUBLIC "-//W3C//DTD SVG 1.1//EN" "http://www.w3.org/Graphics/SVG/1.1/DTD/svg11.dtd">
<svg width="100%" height="100%" viewBox="0 0 840 1518" version="1.1" xmlns="http://www.w3.org/2000/svg" xmlns:xlink="http://www.w3.org/1999/xlink" xml:space="preserve" xmlns:serif="http://www.serif.com/" style="fill-rule:evenodd;clip-rule:evenodd;stroke-linecap:round;stroke-linejoin:bevel;stroke-miterlimit:1.5;">
    <g transform="matrix(1,0,0,1,-10519,-1800.16)">
        <g id="Eco1.User" transform="matrix(1,0,0,1,9644,1800.16)">
            <rect x="875" y="0" width="840" height="1517.72" style="fill:none;"/>
            <g id="Panel-Edge" serif:id="Panel Edge" transform="matrix(1,0,0,1,875,0)">
                <rect x="0" y="0" width="840" height="1517.72" style="fill:none;"/>
            </g>
            <g transform="matrix(1,0,0,1,881.66,-1.88395)">
                <g id="button_led" transform="matrix(0.707107,0.707107,-0.707107,0.707107,106.901,597.143)">
                    <g id="button-pcb_copper" serif:id="button/pcb_copper" transform="matrix(0,-1,1,0,-32.4803,91.5354)">
                        <g transform="matrix(0.489207,0,0,0.505555,4.44089e-16,0)">
                            <rect x="0" y="0" width="24.143" height="23.362"/>
                        </g>
                        <g transform="matrix(0.489207,0,0,0.505555,100.394,0)">
                            <rect x="0" y="0" width="24.143" height="23.362"/>
                        </g>
                        <g transform="matrix(0.489207,0,0,0.505555,4.44089e-16,53.1496)">
                            <rect x="0" y="0" width="24.143" height="23.362"/>
                        </g>
                        <g transform="matrix(0.489207,0,0,0.505555,100.394,53.1496)">
                            <rect x="0" y="0" width="24.143" height="23.362"/>
                        </g>
                    </g>
                    <g id="button-guides" serif:id="button/guides" transform="matrix(1,0,0,1,-56.1024,-63.3927)">
                        <g transform="matrix(0.707107,-0.707107,0.707107,0.707107,-6310.04,6194.66)">
                            <path d="M8786.89,216.193L8837,166.083" style="fill:none;stroke:black;stroke-width:4.17px;"/>
                        </g>
                        <g transform="matrix(0.707107,0.707107,-0.707107,0.707107,-6039.73,-6267.32)">
                            <path d="M8786.89,216.193L8837,166.083" style="fill:none;stroke:black;stroke-width:4.17px;"/>
                        </g>
                    </g>
                </g>
                <g id="button_led1" serif:id="button_led" transform="matrix(0.707107,0.707107,-0.707107,0.707107,106.901,449.505)">
                    <g id="button-pcb_copper1" serif:id="button/pcb_copper" transform="matrix(0,-1,1,0,-32.4803,91.5354)">
                        <g transform="matrix(0.489207,0,0,0.505555,4.44089e-16,0)">
                            <rect x="0" y="0" width="24.143" height="23.362"/>
                        </g>
                        <g transform="matrix(0.489207,0,0,0.505555,100.394,0)">
                            <rect x="0" y="0" width="24.143" height="23.362"/>
                        </g>
                        <g transform="matrix(0.489207,0,0,0.505555,4.44089e-16,53.1496)">
                            <rect x="0" y="0" width="24.143" height="23.362"/>
                        </g>
                        <g transform="matrix(0.489207,0,0,0.505555,100.394,53.1496)">
                            <rect x="0" y="0" width="24.143" height="23.362"/>
                        </g>
                    </g>
                    <g id="button-guides1" serif:id="button/guides" transform="matrix(1,0,0,1,-56.1024,-63.3927)">
                        <g transform="matrix(0.707107,-0.707107,0.707107,0.707107,-6310.04,6194.66)">
                            <path d="M8786.89,216.193L8837,166.083" style="fill:none;stroke:black;stroke-width:4.17px;"/>
                        </g>
                        <g transform="matrix(0.707107,0.707107,-0.707107,0.707107,-6039.73,-6267.32)">
                            <path d="M8786.89,216.193L8837,166.083" style="fill:none;stroke:black;stroke-width:4.17px;"/>
                        </g>
                    </g>
                </g>
                <g id="button_led2" serif:id="button_led" transform="matrix(0.707107,0.707107,-0.707107,0.707107,106.901,301.867)">
                    <g id="button-pcb_copper2" serif:id="button/pcb_copper" transform="matrix(1,0,0,1,-56.1024,2.95276)">
                        <g transform="matrix(0.489207,0,0,0.505555,4.44089e-16,0)">
                            <rect x="0" y="0" width="24.143" height="23.362"/>
                        </g>
                        <g transform="matrix(0.489207,0,0,0.505555,100.394,0)">
                            <rect x="0" y="0" width="24.143" height="23.362"/>
                        </g>
                        <g transform="matrix(0.489207,0,0,0.505555,4.44089e-16,53.1496)">
                            <rect x="0" y="0" width="24.143" height="23.362"/>
                        </g>
                        <g transform="matrix(0.489207,0,0,0.505555,100.394,53.1496)">
                            <rect x="0" y="0" width="24.143" height="23.362"/>
                        </g>
                    </g>
                    <g id="button-guides2" serif:id="button/guides" transform="matrix(1,0,0,1,-56.1024,-63.3927)">
                        <g transform="matrix(0.707107,-0.707107,0.707107,0.707107,-6310.04,6194.66)">
                            <path d="M8786.89,216.193L8837,166.083" style="fill:none;stroke:black;stroke-width:4.17px;"/>
                        </g>
                        <g transform="matrix(0.707107,0.707107,-0.707107,0.707107,-6039.73,-6267.32)">
                            <path d="M8786.89,216.193L8837,166.083" style="fill:none;stroke:black;stroke-width:4.17px;"/>
                        </g>
                    </g>
                </g>
                <g id="button_led3" serif:id="button_led" transform="matrix(0.707107,0.707107,-0.707107,0.707107,106.901,154.23)">
                    <g id="button-pcb_copper3" serif:id="button/pcb_copper" transform="matrix(1,0,0,1,-56.1024,2.95276)">
                        <g transform="matrix(0.489207,0,0,0.505555,4.44089e-16,0)">
                            <rect x="0" y="0" width="24.143" height="23.362"/>
                        </g>
                        <g transform="matrix(0.489207,0,0,0.505555,100.394,0)">
                            <rect x="0" y="0" width="24.143" height="23.362"/>
                        </g>
                        <g transform="matrix(0.489207,0,0,0.505555,4.44089e-16,53.1496)">
                            <rect x="0" y="0" width="24.143" height="23.362"/>
                        </g>
                        <g transform="matrix(0.489207,0,0,0.505555,100.394,53.1496)">
                            <rect x="0" y="0" width="24.143" height="23.362"/>
                        </g>
                    </g>
                    <g id="button-guides3" serif:id="button/guides" transform="matrix(1,0,0,1,-56.1024,-63.3927)">
                        <g transform="matrix(0.707107,-0.707107,0.707107,0.707107,-6310.04,6194.66)">
                            <path d="M8786.89,216.193L8837,166.083" style="fill:none;stroke:black;stroke-width:4.17px;"/>
                        </g>
                        <g transform="matrix(0.707107,0.707107,-0.707107,0.707107,-6039.73,-6267.32)">
                            <path d="M8786.89,216.193L8837,166.083" style="fill:none;stroke:black;stroke-width:4.17px;"/>
                        </g>
                    </g>
                </g>
            </g>
            <g transform="matrix(1,0,0,1,1102.3,-1.88395)">
                <g transform="matrix(1,0,0,1,-227.079,1.88395)">
                    <g id="button-pcb_copper4" serif:id="button/pcb_copper" transform="matrix(0.707107,-0.707107,0.707107,0.707107,246.287,637.017)">
                        <g transform="matrix(0.489207,0,0,0.505555,4.44089e-16,0)">
                            <rect x="0" y="0" width="24.143" height="23.362"/>
                        </g>
                        <g transform="matrix(0.489207,0,0,0.505555,100.394,0)">
                            <rect x="0" y="0" width="24.143" height="23.362"/>
                        </g>
                        <g transform="matrix(0.489207,0,0,0.505555,4.44089e-16,53.1496)">
                            <rect x="0" y="0" width="24.143" height="23.362"/>
                        </g>
                        <g transform="matrix(0.489207,0,0,0.505555,100.394,53.1496)">
                            <rect x="0" y="0" width="24.143" height="23.362"/>
                        </g>
                    </g>
                    <g id="button-guides4" serif:id="button/guides" transform="matrix(0.707107,0.707107,-0.707107,0.707107,339.135,510.763)">
                        <g transform="matrix(0.707107,-0.707107,0.707107,0.707107,-6310.04,6194.66)">
                            <path d="M8786.89,216.193L8837,166.083" style="fill:none;stroke:black;stroke-width:4.17px;"/>
                        </g>
                        <g transform="matrix(0.707107,0.707107,-0.707107,0.707107,-6039.73,-6267.32)">
                            <path d="M8786.89,216.193L8837,166.083" style="fill:none;stroke:black;stroke-width:4.17px;"/>
                        </g>
                    </g>
                </g>
                <g transform="matrix(1,0,0,1,-227.079,-145.754)">
                    <g id="button-pcb_copper5" serif:id="button/pcb_copper" transform="matrix(0.707107,-0.707107,0.707107,0.707107,246.287,636.017)">
                        <g transform="matrix(0.489207,0,0,0.505555,4.44089e-16,0)">
                            <rect x="0" y="0" width="24.143" height="23.362"/>
                        </g>
                        <g transform="matrix(0.489207,0,0,0.505555,100.394,0)">
                            <rect x="0" y="0" width="24.143" height="23.362"/>
                        </g>
                        <g transform="matrix(0.489207,0,0,0.505555,4.44089e-16,53.1496)">
                            <rect x="0" y="0" width="24.143" height="23.362"/>
                        </g>
                        <g transform="matrix(0.489207,0,0,0.505555,100.394,53.1496)">
                            <rect x="0" y="0" width="24.143" height="23.362"/>
                        </g>
                    </g>
                    <g id="button-guides5" serif:id="button/guides" transform="matrix(0.707107,0.707107,-0.707107,0.707107,339.135,509.763)">
                        <g transform="matrix(0.707107,-0.707107,0.707107,0.707107,-6310.04,6194.66)">
                            <path d="M8786.89,216.193L8837,166.083" style="fill:none;stroke:black;stroke-width:4.17px;"/>
                        </g>
                        <g transform="matrix(0.707107,0.707107,-0.707107,0.707107,-6039.73,-6267.32)">
                            <path d="M8786.89,216.193L8837,166.083" style="fill:none;stroke:black;stroke-width:4.17px;"/>
                        </g>
                    </g>
                </g>
                <g id="button_led4" serif:id="button_led" transform="matrix(0.707107,0.707107,-0.707107,0.707107,106.901,301.867)">
                    <g id="button-pcb_copper6" serif:id="button/pcb_copper" transform="matrix(1,0,0,1,-56.1024,2.95276)">
                        <g transform="matrix(0.489207,0,0,0.505555,4.44089e-16,0)">
                            <rect x="0" y="0" width="24.143" height="23.362"/>
                        </g>
                        <g transform="matrix(0.489207,0,0,0.505555,100.394,0)">
                            <rect x="0" y="0" width="24.143" height="23.362"/>
                        </g>
                        <g transform="matrix(0.489207,0,0,0.505555,4.44089e-16,53.1496)">
                            <rect x="0" y="0" width="24.143" height="23.362"/>
                        </g>
                        <g transform="matrix(0.489207,0,0,0.505555,100.394,53.1496)">
                            <rect x="0" y="0" width="24.143" height="23.362"/>
                        </g>
                    </g>
                    <g id="button-guides6" serif:id="button/guides" transform="matrix(1,0,0,1,-56.1024,-63.3927)">
                        <g transform="matrix(0.707107,-0.707107,0.707107,0.707107,-6310.04,6194.66)">
                            <path d="M8786.89,216.193L8837,166.083" style="fill:none;stroke:black;stroke-width:4.17px;"/>
                        </g>
                        <g transform="matrix(0.707107,0.707107,-0.707107,0.707107,-6039.73,-6267.32)">
                            <path d="M8786.89,216.193L8837,166.083" style="fill:none;stroke:black;stroke-width:4.17px;"/>
                        </g>
                    </g>
                </g>
                <g id="button_led5" serif:id="button_led" transform="matrix(0.707107,0.707107,-0.707107,0.707107,106.901,154.23)">
                    <g id="button-pcb_copper7" serif:id="button/pcb_copper" transform="matrix(1,0,0,1,-56.1024,2.95276)">
                        <g transform="matrix(0.489207,0,0,0.505555,4.44089e-16,0)">
                            <rect x="0" y="0" width="24.143" height="23.362"/>
                        </g>
                        <g transform="matrix(0.489207,0,0,0.505555,100.394,0)">
                            <rect x="0" y="0" width="24.143" height="23.362"/>
                        </g>
                        <g transform="matrix(0.489207,0,0,0.505555,4.44089e-16,53.1496)">
                            <rect x="0" y="0" width="24.143" height="23.362"/>
                        </g>
                        <g transform="matrix(0.489207,0,0,0.505555,100.394,53.1496)">
                            <rect x="0" y="0" width="24.143" height="23.362"/>
                        </g>
                    </g>
                    <g id="button-guides7" serif:id="button/guides" transform="matrix(1,0,0,1,-56.1024,-63.3927)">
                        <g transform="matrix(0.707107,-0.707107,0.707107,0.707107,-6310.04,6194.66)">
                            <path d="M8786.89,216.193L8837,166.083" style="fill:none;stroke:black;stroke-width:4.17px;"/>
                        </g>
                        <g transform="matrix(0.707107,0.707107,-0.707107,0.707107,-6039.73,-6267.32)">
                            <path d="M8786.89,216.193L8837,166.083" style="fill:none;stroke:black;stroke-width:4.17px;"/>
                        </g>
                    </g>
                </g>
            </g>
            <g transform="matrix(1,0,0,1,1322.94,-1.88395)">
                <g id="button_led6" serif:id="button_led" transform="matrix(0.707107,0.707107,-0.707107,0.707107,106.901,597.143)">
                    <g id="button-pcb_copper8" serif:id="button/pcb_copper" transform="matrix(0,-1,1,0,-32.4803,91.5354)">
                        <g transform="matrix(0.489207,0,0,0.505555,4.44089e-16,0)">
                            <rect x="0" y="0" width="24.143" height="23.362"/>
                        </g>
                        <g transform="matrix(0.489207,0,0,0.505555,100.394,0)">
                            <rect x="0" y="0" width="24.143" height="23.362"/>
                        </g>
                        <g transform="matrix(0.489207,0,0,0.505555,4.44089e-16,53.1496)">
                            <rect x="0" y="0" width="24.143" height="23.362"/>
                        </g>
                        <g transform="matrix(0.489207,0,0,0.505555,100.394,53.1496)">
                            <rect x="0" y="0" width="24.143" height="23.362"/>
                        </g>
                    </g>
                    <g id="button-guides8" serif:id="button/guides" transform="matrix(1,0,0,1,-56.1024,-63.3927)">
                        <g transform="matrix(0.707107,-0.707107,0.707107,0.707107,-6310.04,6194.66)">
                            <path d="M8786.89,216.193L8837,166.083" style="fill:none;stroke:black;stroke-width:4.17px;"/>
                        </g>
                        <g transform="matrix(0.707107,0.707107,-0.707107,0.707107,-6039.73,-6267.32)">
                            <path d="M8786.89,216.193L8837,166.083" style="fill:none;stroke:black;stroke-width:4.17px;"/>
                        </g>
                    </g>
                </g>
                <g id="button_led7" serif:id="button_led" transform="matrix(0.707107,0.707107,-0.707107,0.707107,106.901,449.505)">
                    <g id="button-pcb_copper9" serif:id="button/pcb_copper" transform="matrix(0,-1,1,0,-32.4803,91.5354)">
                        <g transform="matrix(0.489207,0,0,0.505555,4.44089e-16,0)">
                            <rect x="0" y="0" width="24.143" height="23.362"/>
                        </g>
                        <g transform="matrix(0.489207,0,0,0.505555,100.394,0)">
                            <rect x="0" y="0" width="24.143" height="23.362"/>
                        </g>
                        <g transform="matrix(0.489207,0,0,0.505555,4.44089e-16,53.1496)">
                            <rect x="0" y="0" width="24.143" height="23.362"/>
                        </g>
                        <g transform="matrix(0.489207,0,0,0.505555,100.394,53.1496)">
                            <rect x="0" y="0" width="24.143" height="23.362"/>
                        </g>
                    </g>
                    <g id="button-guides9" serif:id="button/guides" transform="matrix(1,0,0,1,-56.1024,-63.3927)">
                        <g transform="matrix(0.707107,-0.707107,0.707107,0.707107,-6310.04,6194.66)">
                            <path d="M8786.89,216.193L8837,166.083" style="fill:none;stroke:black;stroke-width:4.17px;"/>
                        </g>
                        <g transform="matrix(0.707107,0.707107,-0.707107,0.707107,-6039.73,-6267.32)">
                            <path d="M8786.89,216.193L8837,166.083" style="fill:none;stroke:black;stroke-width:4.17px;"/>
                        </g>
                    </g>
                </g>
                <g id="button_led8" serif:id="button_led" transform="matrix(0.707107,0.707107,-0.707107,0.707107,106.901,301.867)">
                    <g id="button-pcb_copper10" serif:id="button/pcb_copper" transform="matrix(1,0,0,1,-56.1024,2.95276)">
                        <g transform="matrix(0.489207,0,0,0.505555,4.44089e-16,0)">
                            <rect x="0" y="0" width="24.143" height="23.362"/>
                        </g>
                        <g transform="matrix(0.489207,0,0,0.505555,100.394,0)">
                            <rect x="0" y="0" width="24.143" height="23.362"/>
                        </g>
                        <g transform="matrix(0.489207,0,0,0.505555,4.44089e-16,53.1496)">
                            <rect x="0" y="0" width="24.143" height="23.362"/>
                        </g>
                        <g transform="matrix(0.489207,0,0,0.505555,100.394,53.1496)">
                            <rect x="0" y="0" width="24.143" height="23.362"/>
                        </g>
                    </g>
                    <g id="button-guides10" serif:id="button/guides" transform="matrix(1,0,0,1,-56.1024,-63.3927)">
                        <g transform="matrix(0.707107,-0.707107,0.707107,0.707107,-6310.04,6194.66)">
                            <path d="M8786.89,216.193L8837,166.083" style="fill:none;stroke:black;stroke-width:4.17px;"/>
                        </g>
                        <g transform="matrix(0.707107,0.707107,-0.707107,0.707107,-6039.73,-6267.32)">
                            <path d="M8786.89,216.193L8837,166.083" style="fill:none;stroke:black;stroke-width:4.17px;"/>
                        </g>
                    </g>
                </g>
                <g id="button_led9" serif:id="button_led" transform="matrix(0.707107,0.707107,-0.707107,0.707107,106.901,154.23)">
                    <g id="button-pcb_copper11" serif:id="button/pcb_copper" transform="matrix(1,0,0,1,-56.1024,2.95276)">
                        <g transform="matrix(0.489207,0,0,0.505555,4.44089e-16,0)">
                            <rect x="0" y="0" width="24.143" height="23.362"/>
                        </g>
                        <g transform="matrix(0.489207,0,0,0.505555,100.394,0)">
                            <rect x="0" y="0" width="24.143" height="23.362"/>
                        </g>
                        <g transform="matrix(0.489207,0,0,0.505555,4.44089e-16,53.1496)">
                            <rect x="0" y="0" width="24.143" height="23.362"/>
                        </g>
                        <g transform="matrix(0.489207,0,0,0.505555,100.394,53.1496)">
                            <rect x="0" y="0" width="24.143" height="23.362"/>
                        </g>
                    </g>
                    <g id="button-guides11" serif:id="button/guides" transform="matrix(1,0,0,1,-56.1024,-63.3927)">
                        <g transform="matrix(0.707107,-0.707107,0.707107,0.707107,-6310.04,6194.66)">
                            <path d="M8786.89,216.193L8837,166.083" style="fill:none;stroke:black;stroke-width:4.17px;"/>
                        </g>
                        <g transform="matrix(0.707107,0.707107,-0.707107,0.707107,-6039.73,-6267.32)">
                            <path d="M8786.89,216.193L8837,166.083" style="fill:none;stroke:black;stroke-width:4.17px;"/>
                        </g>
                    </g>
                </g>
            </g>
            <g transform="matrix(1,0,0,1,1543.58,-1.88395)">
                <g transform="matrix(0.707107,-0.707107,0.707107,0.707107,-27.7047,591.988)">
                    <g id="button_led10" serif:id="button_led">
                        <g id="button">
                            <g id="button-pcb_copper12" serif:id="button/pcb_copper" transform="matrix(1,0,0,1,0,66.3455)">
                                <g transform="matrix(0.489207,0,0,0.505555,4.44089e-16,0)">
                                    <rect x="0" y="0" width="24.143" height="23.362"/>
                                </g>
                                <g transform="matrix(0.489207,0,0,0.505555,100.394,0)">
                                    <rect x="0" y="0" width="24.143" height="23.362"/>
                                </g>
                                <g transform="matrix(0.489207,0,0,0.505555,4.44089e-16,53.1496)">
                                    <rect x="0" y="0" width="24.143" height="23.362"/>
                                </g>
                                <g transform="matrix(0.489207,0,0,0.505555,100.394,53.1496)">
                                    <rect x="0" y="0" width="24.143" height="23.362"/>
                                </g>
                            </g>
                            <g id="button-guides12" serif:id="button/guides" transform="matrix(0,1,-1,0,154.928,42.7234)">
                                <g transform="matrix(0.707107,-0.707107,0.707107,0.707107,-6310.04,6194.66)">
                                    <path d="M8786.89,216.193L8837,166.083" style="fill:none;stroke:black;stroke-width:4.17px;"/>
                                </g>
                                <g transform="matrix(0.707107,0.707107,-0.707107,0.707107,-6039.73,-6267.32)">
                                    <path d="M8786.89,216.193L8837,166.083" style="fill:none;stroke:black;stroke-width:4.17px;"/>
                                </g>
                            </g>
                        </g>
                    </g>
                </g>
                <g id="button_led11" serif:id="button_led" transform="matrix(0.707107,0.707107,-0.707107,0.707107,106.901,449.505)">
                    <g id="button-pcb_copper13" serif:id="button/pcb_copper" transform="matrix(0,-1,1,0,-32.4803,91.5354)">
                        <g transform="matrix(0.489207,0,0,0.505555,4.44089e-16,0)">
                            <rect x="0" y="0" width="24.143" height="23.362"/>
                        </g>
                        <g transform="matrix(0.489207,0,0,0.505555,100.394,0)">
                            <rect x="0" y="0" width="24.143" height="23.362"/>
                        </g>
                        <g transform="matrix(0.489207,0,0,0.505555,4.44089e-16,53.1496)">
                            <rect x="0" y="0" width="24.143" height="23.362"/>
                        </g>
                        <g transform="matrix(0.489207,0,0,0.505555,100.394,53.1496)">
                            <rect x="0" y="0" width="24.143" height="23.362"/>
                        </g>
                    </g>
                    <g id="button-guides13" serif:id="button/guides" transform="matrix(1,0,0,1,-56.1024,-63.3927)">
                        <g transform="matrix(0.707107,-0.707107,0.707107,0.707107,-6310.04,6194.66)">
                            <path d="M8786.89,216.193L8837,166.083" style="fill:none;stroke:black;stroke-width:4.17px;"/>
                        </g>
                        <g transform="matrix(0.707107,0.707107,-0.707107,0.707107,-6039.73,-6267.32)">
                            <path d="M8786.89,216.193L8837,166.083" style="fill:none;stroke:black;stroke-width:4.17px;"/>
                        </g>
                    </g>
                </g>
                <g transform="matrix(1,0,0,1,-227.079,-293.392)">
                    <g id="button-pcb_copper14" serif:id="button/pcb_copper" transform="matrix(0.707107,0.707107,-0.707107,0.707107,292.221,557.677)">
                        <g transform="matrix(0.489207,0,0,0.505555,4.44089e-16,0)">
                            <rect x="0" y="0" width="24.143" height="23.362"/>
                        </g>
                        <g transform="matrix(0.489207,0,0,0.505555,100.394,0)">
                            <rect x="0" y="0" width="24.143" height="23.362"/>
                        </g>
                        <g transform="matrix(0.489207,0,0,0.505555,4.44089e-16,53.1496)">
                            <rect x="0" y="0" width="24.143" height="23.362"/>
                        </g>
                        <g transform="matrix(0.489207,0,0,0.505555,100.394,53.1496)">
                            <rect x="0" y="0" width="24.143" height="23.362"/>
                        </g>
                    </g>
                    <g id="button-guides14" serif:id="button/guides" transform="matrix(0.707107,0.707107,-0.707107,0.707107,339.135,510.763)">
                        <g transform="matrix(0.707107,-0.707107,0.707107,0.707107,-6310.04,6194.66)">
                            <path d="M8786.89,216.193L8837,166.083" style="fill:none;stroke:black;stroke-width:4.17px;"/>
                        </g>
                        <g transform="matrix(0.707107,0.707107,-0.707107,0.707107,-6039.73,-6267.32)">
                            <path d="M8786.89,216.193L8837,166.083" style="fill:none;stroke:black;stroke-width:4.17px;"/>
                        </g>
                    </g>
                </g>
                <g id="button_led12" serif:id="button_led" transform="matrix(0.707107,0.707107,-0.707107,0.707107,106.901,154.23)">
                    <g id="button-pcb_copper15" serif:id="button/pcb_copper" transform="matrix(1,0,0,1,-56.1024,2.95276)">
                        <g transform="matrix(0.489207,0,0,0.505555,4.44089e-16,0)">
                            <rect x="0" y="0" width="24.143" height="23.362"/>
                        </g>
                        <g transform="matrix(0.489207,0,0,0.505555,100.394,0)">
                            <rect x="0" y="0" width="24.143" height="23.362"/>
                        </g>
                        <g transform="matrix(0.489207,0,0,0.505555,4.44089e-16,53.1496)">
                            <rect x="0" y="0" width="24.143" height="23.362"/>
                        </g>
                        <g transform="matrix(0.489207,0,0,0.505555,100.394,53.1496)">
                            <rect x="0" y="0" width="24.143" height="23.362"/>
                        </g>
                    </g>
                    <g id="button-guides15" serif:id="button/guides" transform="matrix(1,0,0,1,-56.1024,-63.3927)">
                        <g transform="matrix(0.707107,-0.707107,0.707107,0.707107,-6310.04,6194.66)">
                            <path d="M8786.89,216.193L8837,166.083" style="fill:none;stroke:black;stroke-width:4.17px;"/>
                        </g>
                        <g transform="matrix(0.707107,0.707107,-0.707107,0.707107,-6039.73,-6267.32)">
                            <path d="M8786.89,216.193L8837,166.083" style="fill:none;stroke:black;stroke-width:4.17px;"/>
                        </g>
                    </g>
                </g>
            </g>
            <g transform="matrix(0.707107,-0.707107,0.707107,0.707107,964.768,779.38)">
                <g id="button1" serif:id="button">
                    <g id="button-pcb_copper16" serif:id="button/pcb_copper" transform="matrix(1,0,0,1,0,66.3455)">
                        <g transform="matrix(0.489207,0,0,0.505555,4.44089e-16,0)">
                            <rect x="0" y="0" width="24.143" height="23.362"/>
                        </g>
                        <g transform="matrix(0.489207,0,0,0.505555,100.394,0)">
                            <rect x="0" y="0" width="24.143" height="23.362"/>
                        </g>
                        <g transform="matrix(0.489207,0,0,0.505555,4.44089e-16,53.1496)">
                            <rect x="0" y="0" width="24.143" height="23.362"/>
                        </g>
                        <g transform="matrix(0.489207,0,0,0.505555,100.394,53.1496)">
                            <rect x="0" y="0" width="24.143" height="23.362"/>
                        </g>
                    </g>
                    <g>
                        <g transform="matrix(0.707107,0.707107,-0.707107,0.707107,-5677.52,-9325.54)">
                            <path d="M10732.9,2624.37L10703.7,2595.14" style="fill:none;stroke:black;stroke-width:4.17px;stroke-linecap:square;stroke-linejoin:miter;"/>
                        </g>
                        <g transform="matrix(0.707107,0.707107,-0.707107,0.707107,-5677.52,-9325.54)">
                            <path d="M10733.1,2594.97L10703.5,2624.53" style="fill:none;stroke:black;stroke-width:4.17px;stroke-linecap:square;stroke-linejoin:miter;"/>
                        </g>
                    </g>
                </g>
            </g>
            <g transform="matrix(1,0,0,1,-3.23838,3.27601)">
                <g id="guides" transform="matrix(1,0,0,1.06567,1783.04,1111.68)">
                    <g transform="matrix(0.695043,-2.38665e-05,-2.98205e-05,0.592798,-853.195,18.4218)">
                        <path d="M53.15,141.644L53.242,0" style="fill:none;stroke:black;stroke-width:6.27px;stroke-linejoin:round;"/>
                    </g>
                    <g transform="matrix(0.894783,-6.03404e-17,2.73952e-31,0.772446,-863.864,8.46837)">
                        <path d="M0,70.822L106.484,70.866" style="fill:none;stroke:black;stroke-width:4.85px;stroke-linejoin:round;"/>
                    </g>
                </g>
                <g id="guides1" serif:id="guides" transform="matrix(1,0,0,1.06567,2003.91,1111.68)">
                    <g transform="matrix(0.695043,-2.38665e-05,-2.98205e-05,0.592798,-853.195,18.4218)">
                        <path d="M53.15,141.644L53.242,0" style="fill:none;stroke:black;stroke-width:6.27px;stroke-linejoin:round;"/>
                    </g>
                    <g transform="matrix(0.894783,-6.03404e-17,2.73952e-31,0.772446,-863.864,8.46837)">
                        <path d="M0,70.822L106.484,70.866" style="fill:none;stroke:black;stroke-width:4.85px;stroke-linejoin:round;"/>
                    </g>
                </g>
                <g id="guides2" serif:id="guides" transform="matrix(1,0,0,1.06567,2224.78,1111.68)">
                    <g transform="matrix(0.695043,-2.38665e-05,-2.98205e-05,0.592798,-853.195,18.4218)">
                        <path d="M53.15,141.644L53.242,0" style="fill:none;stroke:black;stroke-width:6.27px;stroke-linejoin:round;"/>
                    </g>
                    <g transform="matrix(0.894783,-6.03404e-17,2.73952e-31,0.772446,-863.864,8.46837)">
                        <path d="M0,70.822L106.484,70.866" style="fill:none;stroke:black;stroke-width:4.85px;stroke-linejoin:round;"/>
                    </g>
                </g>
                <g id="guides3" serif:id="guides" transform="matrix(1,0,0,1.06567,2445.64,1111.68)">
                    <g transform="matrix(0.695043,-2.38665e-05,-2.98205e-05,0.592798,-853.195,18.4218)">
                        <path d="M53.15,141.644L53.242,0" style="fill:none;stroke:black;stroke-width:6.27px;stroke-linejoin:round;"/>
                    </g>
                    <g transform="matrix(0.894783,-6.03404e-17,2.73952e-31,0.772446,-863.864,8.46837)">
                        <path d="M0,70.822L106.484,70.866" style="fill:none;stroke:black;stroke-width:4.85px;stroke-linejoin:round;"/>
                    </g>
                </g>
            </g>
            <g transform="matrix(1,0,0,1,-3.23838,185.165)">
                <g id="guides4" serif:id="guides" transform="matrix(1,0,0,1.06567,1783.04,1111.68)">
                    <g transform="matrix(0.695043,-2.38665e-05,-2.98205e-05,0.592798,-853.195,18.4218)">
                        <path d="M53.15,141.644L53.242,0" style="fill:none;stroke:black;stroke-width:6.27px;stroke-linejoin:round;"/>
                    </g>
                    <g transform="matrix(0.894783,-6.03404e-17,2.73952e-31,0.772446,-863.864,8.46837)">
                        <path d="M0,70.822L106.484,70.866" style="fill:none;stroke:black;stroke-width:4.85px;stroke-linejoin:round;"/>
                    </g>
                </g>
                <g id="guides5" serif:id="guides" transform="matrix(1,0,0,1.06567,2003.91,1111.68)">
                    <g transform="matrix(0.695043,-2.38665e-05,-2.98205e-05,0.592798,-853.195,18.4218)">
                        <path d="M53.15,141.644L53.242,0" style="fill:none;stroke:black;stroke-width:6.27px;stroke-linejoin:round;"/>
                    </g>
                    <g transform="matrix(0.894783,-6.03404e-17,2.73952e-31,0.772446,-863.864,8.46837)">
                        <path d="M0,70.822L106.484,70.866" style="fill:none;stroke:black;stroke-width:4.85px;stroke-linejoin:round;"/>
                    </g>
                </g>
                <g id="guides6" serif:id="guides" transform="matrix(1,0,0,1.06567,2224.78,1111.68)">
                    <g transform="matrix(0.695043,-2.38665e-05,-2.98205e-05,0.592798,-853.195,18.4218)">
                        <path d="M53.15,141.644L53.242,0" style="fill:none;stroke:black;stroke-width:6.27px;stroke-linejoin:round;"/>
                    </g>
                    <g transform="matrix(0.894783,-6.03404e-17,2.73952e-31,0.772446,-863.864,8.46837)">
                        <path d="M0,70.822L106.484,70.866" style="fill:none;stroke:black;stroke-width:4.85px;stroke-linejoin:round;"/>
                    </g>
                </g>
                <g id="guides7" serif:id="guides" transform="matrix(1,0,0,1.06567,2445.64,1111.68)">
                    <g transform="matrix(0.695043,-2.38665e-05,-2.98205e-05,0.592798,-853.195,18.4218)">
                        <path d="M53.15,141.644L53.242,0" style="fill:none;stroke:black;stroke-width:6.27px;stroke-linejoin:round;"/>
                    </g>
                    <g transform="matrix(0.894783,-6.03404e-17,2.73952e-31,0.772446,-863.864,8.46837)">
                        <path d="M0,70.822L106.484,70.866" style="fill:none;stroke:black;stroke-width:4.85px;stroke-linejoin:round;"/>
                    </g>
                </g>
            </g>
            <g transform="matrix(1,0,0,1,-0.577715,7.51557)">
                <g id="guides8" serif:id="guides" transform="matrix(1,0,0,1.06567,1780.38,924.68)">
                    <g transform="matrix(0.695043,-2.38665e-05,-2.98205e-05,0.592798,-853.195,18.4218)">
                        <path d="M53.15,141.644L53.242,0" style="fill:none;stroke:black;stroke-width:6.27px;stroke-linejoin:round;"/>
                    </g>
                    <g transform="matrix(0.894783,-6.03404e-17,2.73952e-31,0.772446,-863.864,8.46837)">
                        <path d="M0,70.822L106.484,70.866" style="fill:none;stroke:black;stroke-width:4.85px;stroke-linejoin:round;"/>
                    </g>
                </g>
                <g id="guides9" serif:id="guides" transform="matrix(1,0,0,1.06567,2222.12,924.68)">
                    <g transform="matrix(0.695043,-2.38665e-05,-2.98205e-05,0.592798,-853.195,18.4218)">
                        <path d="M53.15,141.644L53.242,0" style="fill:none;stroke:black;stroke-width:6.27px;stroke-linejoin:round;"/>
                    </g>
                    <g transform="matrix(0.894783,-6.03404e-17,2.73952e-31,0.772446,-863.864,8.46837)">
                        <path d="M0,70.822L106.484,70.866" style="fill:none;stroke:black;stroke-width:4.85px;stroke-linejoin:round;"/>
                    </g>
                </g>
                <g id="guides10" serif:id="guides" transform="matrix(1,0,0,1.06567,2001.25,924.68)">
                    <g transform="matrix(0.695043,-2.38665e-05,-2.98205e-05,0.592798,-853.195,18.4218)">
                        <path d="M53.15,141.644L53.242,0" style="fill:none;stroke:black;stroke-width:6.27px;stroke-linejoin:round;"/>
                    </g>
                    <g transform="matrix(0.894783,-6.03404e-17,2.73952e-31,0.772446,-863.864,8.46837)">
                        <path d="M0,70.822L106.484,70.866" style="fill:none;stroke:black;stroke-width:4.85px;stroke-linejoin:round;"/>
                    </g>
                </g>
                <g id="guides11" serif:id="guides" transform="matrix(1,0,0,1.06567,2442.98,924.68)">
                    <g transform="matrix(0.695043,-2.38665e-05,-2.98205e-05,0.592798,-853.195,18.4218)">
                        <path d="M53.15,141.644L53.242,0" style="fill:none;stroke:black;stroke-width:6.27px;stroke-linejoin:round;"/>
                    </g>
                    <g transform="matrix(0.894783,-6.03404e-17,2.73952e-31,0.772446,-863.864,8.46837)">
                        <path d="M0,70.822L106.484,70.866" style="fill:none;stroke:black;stroke-width:4.85px;stroke-linejoin:round;"/>
                    </g>
                </g>
            </g>
            <g id="pot" transform="matrix(0.991549,0,0,0.991039,1521.35,758.135)">
                <g id="pot-guides" serif:id="pot/guides">
                    <g transform="matrix(6.5143e-17,-1.03795,0.995917,5.93931e-17,-285.33,147.111)">
                        <path d="M0,57.283L141.732,57.283" style="fill:none;stroke:black;stroke-width:4.13px;stroke-linecap:square;stroke-linejoin:miter;"/>
                    </g>
                    <g transform="matrix(0.995917,0,0,0.996429,-298.857,-5.02405)">
                        <path d="M0,57.283L141.732,57.283" style="fill:none;stroke:black;stroke-width:4.22px;stroke-linecap:square;stroke-linejoin:miter;"/>
                    </g>
                </g>
            </g>
            <g id="pot1" serif:id="pot" transform="matrix(0.991549,0,0,0.991039,1742.1,758.135)">
                <g id="pot-guides1" serif:id="pot/guides">
                    <g transform="matrix(6.5143e-17,-1.03795,0.995917,5.93931e-17,-285.33,147.111)">
                        <path d="M0,57.283L141.732,57.283" style="fill:none;stroke:black;stroke-width:4.13px;stroke-linecap:square;stroke-linejoin:miter;"/>
                    </g>
                    <g transform="matrix(0.995917,0,0,0.996429,-298.857,-5.02405)">
                        <path d="M0,57.283L141.732,57.283" style="fill:none;stroke:black;stroke-width:4.22px;stroke-linecap:square;stroke-linejoin:miter;"/>
                    </g>
                </g>
            </g>
            <g transform="matrix(1.0041,0,0,0.62724,1524.69,749.098)">
                <g transform="matrix(0.995917,0,0,1.59429,-11123.1,-4064.25)">
                    <path d="M10921.8,2541.16L10957.2,2517.54" style="fill:none;stroke:black;stroke-width:4.17px;stroke-linecap:butt;stroke-linejoin:miter;"/>
                </g>
                <g transform="matrix(0.995917,0,0,1.59429,-11123.1,-4064.25)">
                    <path d="M10957.2,2541.16L10921.8,2517.54" style="fill:none;stroke:black;stroke-width:4.17px;stroke-linecap:butt;stroke-linejoin:miter;"/>
                </g>
            </g>
            <g transform="matrix(1.0041,0,0,0.62724,1744.37,749.098)">
                <g>
                    <g transform="matrix(0.995917,0,0,1.59429,-11341.9,-4064.25)">
                        <path d="M11067.6,2627.56L11091.2,2592.13" style="fill:none;stroke:black;stroke-width:4.17px;stroke-linecap:butt;stroke-linejoin:miter;"/>
                    </g>
                    <g transform="matrix(0.995917,0,0,1.59429,-11341.9,-4064.25)">
                        <path d="M11091.2,2627.56L11067.6,2592.13" style="fill:none;stroke:black;stroke-width:4.17px;stroke-linecap:butt;stroke-linejoin:miter;"/>
                    </g>
                </g>
                <g transform="matrix(1,0,0,1,160.059,0)">
                    <g transform="matrix(0.995917,0,0,1.59429,-11341.9,-4064.25)">
                        <path d="M11067.6,2627.56L11091.2,2592.13" style="fill:none;stroke:black;stroke-width:4.17px;stroke-linecap:butt;stroke-linejoin:miter;"/>
                    </g>
                    <g transform="matrix(0.995917,0,0,1.59429,-11341.9,-4064.25)">
                        <path d="M11091.2,2627.56L11067.6,2592.13" style="fill:none;stroke:black;stroke-width:4.17px;stroke-linecap:butt;stroke-linejoin:miter;"/>
                    </g>
                </g>
            </g>
        </g>
    </g>
</svg>
