<?xml version="1.0" encoding="UTF-8" standalone="no"?>
<!DOCTYPE svg PUBLIC "-//W3C//DTD SVG 1.1//EN" "http://www.w3.org/Graphics/SVG/1.1/DTD/svg11.dtd">
<svg width="100%" height="100%" viewBox="0 0 840 1518" version="1.1" xmlns="http://www.w3.org/2000/svg" xmlns:xlink="http://www.w3.org/1999/xlink" xml:space="preserve" xmlns:serif="http://www.serif.com/" style="fill-rule:evenodd;clip-rule:evenodd;stroke-miterlimit:1.5;">
    <g transform="matrix(1,0,0,1,-3894.69,-1800.16)">
        <g id="Edge.Cuts" transform="matrix(1,0,0,1,3019.69,1800.16)">
            <rect x="875" y="0" width="840" height="1517.72" style="fill:none;"/>
            <clipPath id="_clip1">
                <rect x="875" y="0" width="840" height="1517.72"/>
            </clipPath>
            <g clip-path="url(#_clip1)">
                <g id="Panel-Edge" serif:id="Panel Edge" transform="matrix(1,0,0,1,875,0)">
                    <rect x="0" y="0" width="840" height="1517.72" style="fill:none;stroke:black;stroke-width:4.17px;"/>
                </g>
                <g id="Holes" transform="matrix(1,0,0,1,875,0)">
                    <path d="M117.861,35.625C117.861,25.307 109.497,16.943 99.179,16.943C92.36,16.943 84.651,16.943 77.832,16.943C67.514,16.943 59.15,25.307 59.15,35.625C59.15,35.625 59.15,35.626 59.15,35.626C59.15,45.944 67.514,54.308 77.832,54.308C84.651,54.308 92.36,54.308 99.179,54.308C109.497,54.308 117.861,45.944 117.861,35.626C117.861,35.626 117.861,35.625 117.861,35.625Z" style="fill:none;stroke:black;stroke-width:4.17px;stroke-linecap:round;stroke-linejoin:round;"/>
                    <g transform="matrix(1,0,0,1,0,1446.19)">
                        <path d="M117.861,35.625C117.861,25.307 109.497,16.943 99.179,16.943C92.36,16.943 84.651,16.943 77.832,16.943C67.514,16.943 59.15,25.307 59.15,35.625C59.15,35.625 59.15,35.626 59.15,35.626C59.15,45.944 67.514,54.308 77.832,54.308C84.651,54.308 92.36,54.308 99.179,54.308C109.497,54.308 117.861,45.944 117.861,35.626C117.861,35.626 117.861,35.625 117.861,35.625Z" style="fill:none;stroke:black;stroke-width:4.17px;stroke-linecap:round;stroke-linejoin:round;"/>
                    </g>
                    <g transform="matrix(1,0,0,1,662.896,0)">
                        <path d="M117.861,35.625C117.861,25.307 109.497,16.943 99.179,16.943C92.36,16.943 84.651,16.943 77.832,16.943C67.514,16.943 59.15,25.307 59.15,35.625C59.15,35.625 59.15,35.626 59.15,35.626C59.15,45.944 67.514,54.308 77.832,54.308C84.651,54.308 92.36,54.308 99.179,54.308C109.497,54.308 117.861,45.944 117.861,35.626C117.861,35.626 117.861,35.625 117.861,35.625Z" style="fill:none;stroke:black;stroke-width:4.17px;stroke-linecap:round;stroke-linejoin:round;"/>
                    </g>
                    <g transform="matrix(1,0,0,1,662.896,1446.19)">
                        <path d="M117.861,35.625C117.861,25.307 109.497,16.943 99.179,16.943C92.36,16.943 84.651,16.943 77.832,16.943C67.514,16.943 59.15,25.307 59.15,35.625C59.15,35.625 59.15,35.626 59.15,35.626C59.15,45.944 67.514,54.308 77.832,54.308C84.651,54.308 92.36,54.308 99.179,54.308C109.497,54.308 117.861,45.944 117.861,35.626C117.861,35.626 117.861,35.625 117.861,35.625Z" style="fill:none;stroke:black;stroke-width:4.17px;stroke-linecap:round;stroke-linejoin:round;"/>
                    </g>
                </g>
                <g transform="matrix(1.11625,0,0,1.11625,1215.9,745.781)">
                    <g id="pot">
                        <circle cx="70.866" cy="57.283" r="37.034" style="fill:none;stroke:black;stroke-width:3.73px;stroke-linecap:square;"/>
                    </g>
                </g>
                <g transform="matrix(1.11625,0,0,1.11625,1436.64,745.781)">
                    <g id="pot1" serif:id="pot">
                        <circle cx="70.866" cy="57.283" r="37.034" style="fill:none;stroke:black;stroke-width:3.73px;stroke-linecap:square;"/>
                    </g>
                </g>
                <g transform="matrix(1,0,0,1,-3.23838,3.27601)">
                    <g transform="matrix(1.62169,0,0,1.62169,880.479,1043.18)">
                        <circle cx="53.242" cy="83.755" r="22.578" style="fill:none;stroke:black;stroke-width:2.57px;stroke-linecap:round;stroke-linejoin:round;"/>
                    </g>
                    <g transform="matrix(1.62169,0,0,1.62169,1101.35,1043.18)">
                        <circle cx="53.242" cy="83.755" r="22.578" style="fill:none;stroke:black;stroke-width:2.57px;stroke-linecap:round;stroke-linejoin:round;"/>
                    </g>
                    <g transform="matrix(1.62169,0,0,1.62169,1322.21,1043.18)">
                        <circle cx="53.242" cy="83.755" r="22.578" style="fill:none;stroke:black;stroke-width:2.57px;stroke-linecap:round;stroke-linejoin:round;"/>
                    </g>
                    <g transform="matrix(1.62169,0,0,1.62169,1543.08,1043.18)">
                        <circle cx="53.242" cy="83.755" r="22.578" style="fill:none;stroke:black;stroke-width:2.57px;stroke-linecap:round;stroke-linejoin:round;"/>
                    </g>
                </g>
                <g transform="matrix(1,0,0,1,-3.23838,185.165)">
                    <g transform="matrix(1.62169,0,0,1.62169,880.479,1043.18)">
                        <circle cx="53.242" cy="83.755" r="22.578" style="fill:none;stroke:black;stroke-width:2.57px;stroke-linecap:round;stroke-linejoin:round;"/>
                    </g>
                    <g transform="matrix(1.62169,0,0,1.62169,1101.35,1043.18)">
                        <circle cx="53.242" cy="83.755" r="22.578" style="fill:none;stroke:black;stroke-width:2.57px;stroke-linecap:round;stroke-linejoin:round;"/>
                    </g>
                    <g transform="matrix(1.62169,0,0,1.62169,1322.21,1043.18)">
                        <circle cx="53.242" cy="83.755" r="22.578" style="fill:none;stroke:black;stroke-width:2.57px;stroke-linecap:round;stroke-linejoin:round;"/>
                    </g>
                    <g transform="matrix(1.62169,0,0,1.62169,1543.08,1043.18)">
                        <circle cx="53.242" cy="83.755" r="22.578" style="fill:none;stroke:black;stroke-width:2.57px;stroke-linecap:round;stroke-linejoin:round;"/>
                    </g>
                </g>
                <g transform="matrix(1,0,0,1,-0.577715,7.51557)">
                    <g transform="matrix(1.62169,0,0,1.62169,877.818,856.179)">
                        <circle cx="53.242" cy="83.755" r="22.578" style="fill:none;stroke:black;stroke-width:2.57px;stroke-linecap:round;stroke-linejoin:round;"/>
                    </g>
                    <g transform="matrix(1.62169,0,0,1.62169,1319.55,856.179)">
                        <circle cx="53.242" cy="83.755" r="22.578" style="fill:none;stroke:black;stroke-width:2.57px;stroke-linecap:round;stroke-linejoin:round;"/>
                    </g>
                    <g transform="matrix(1.62169,0,0,1.62169,1098.68,856.179)">
                        <circle cx="53.242" cy="83.755" r="22.578" style="fill:none;stroke:black;stroke-width:2.57px;stroke-linecap:round;stroke-linejoin:round;"/>
                    </g>
                    <g transform="matrix(1.62169,0,0,1.62169,1540.42,856.179)">
                        <circle cx="53.242" cy="83.755" r="22.578" style="fill:none;stroke:black;stroke-width:2.57px;stroke-linecap:round;stroke-linejoin:round;"/>
                    </g>
                </g>
            </g>
        </g>
    </g>
</svg>
