<?xml version="1.0" encoding="UTF-8" standalone="no"?>
<!DOCTYPE svg PUBLIC "-//W3C//DTD SVG 1.1//EN" "http://www.w3.org/Graphics/SVG/1.1/DTD/svg11.dtd">
<svg width="100%" height="100%" viewBox="0 0 840 1518" version="1.1" xmlns="http://www.w3.org/2000/svg" xmlns:xlink="http://www.w3.org/1999/xlink" xml:space="preserve" xmlns:serif="http://www.serif.com/" style="fill-rule:evenodd;clip-rule:evenodd;stroke-linecap:round;stroke-linejoin:round;stroke-miterlimit:1.5;">
    <g transform="matrix(1,0,0,1,-3894.69,-13.7374)">
        <g id="EdgeCuts" transform="matrix(1,0,0,1,3019.69,13.7374)">
            <rect x="875" y="0" width="840" height="1517.72" style="fill:none;"/>
            <g id="Panel-Edge" serif:id="Panel Edge" transform="matrix(1,0,0,1,875,0)">
                <path d="M840,0L0,0L0,1517.72L840,1517.72L840,0ZM838.819,1.181L838.819,1516.54C838.819,1516.54 1.181,1516.54 1.181,1516.54C1.181,1516.54 1.181,1.181 1.181,1.181C1.181,1.181 838.819,1.181 838.819,1.181L838.819,1.181Z"/>
            </g>
            <g transform="matrix(1,0,0,1,875,0)">
                <path d="M117.861,35.625C117.861,25.307 109.497,16.943 99.179,16.943C92.36,16.943 84.651,16.943 77.832,16.943C67.514,16.943 59.15,25.307 59.15,35.625C59.15,35.625 59.15,35.626 59.15,35.626C59.15,45.944 67.514,54.308 77.832,54.308C84.651,54.308 92.36,54.308 99.179,54.308C109.497,54.308 117.861,45.944 117.861,35.626C117.861,35.626 117.861,35.625 117.861,35.625Z" style="fill:none;stroke:black;stroke-width:1.18px;"/>
            </g>
            <g transform="matrix(1,0,0,1,875,1446.19)">
                <path d="M117.861,35.625C117.861,25.307 109.497,16.943 99.179,16.943C92.36,16.943 84.651,16.943 77.832,16.943C67.514,16.943 59.15,25.307 59.15,35.625C59.15,35.625 59.15,35.626 59.15,35.626C59.15,45.944 67.514,54.308 77.832,54.308C84.651,54.308 92.36,54.308 99.179,54.308C109.497,54.308 117.861,45.944 117.861,35.626C117.861,35.626 117.861,35.625 117.861,35.625Z" style="fill:none;stroke:black;stroke-width:1.18px;"/>
            </g>
            <g transform="matrix(1,0,0,1,1537.9,0)">
                <path d="M117.861,35.625C117.861,25.307 109.497,16.943 99.179,16.943C92.36,16.943 84.651,16.943 77.832,16.943C67.514,16.943 59.15,25.307 59.15,35.625C59.15,35.625 59.15,35.626 59.15,35.626C59.15,45.944 67.514,54.308 77.832,54.308C84.651,54.308 92.36,54.308 99.179,54.308C109.497,54.308 117.861,45.944 117.861,35.626C117.861,35.626 117.861,35.625 117.861,35.625Z" style="fill:none;stroke:black;stroke-width:1.18px;"/>
            </g>
            <g transform="matrix(1,0,0,1,1537.9,1446.19)">
                <path d="M117.861,35.625C117.861,25.307 109.497,16.943 99.179,16.943C92.36,16.943 84.651,16.943 77.832,16.943C67.514,16.943 59.15,25.307 59.15,35.625C59.15,35.625 59.15,35.626 59.15,35.626C59.15,45.944 67.514,54.308 77.832,54.308C84.651,54.308 92.36,54.308 99.179,54.308C109.497,54.308 117.861,45.944 117.861,35.626C117.861,35.626 117.861,35.625 117.861,35.625Z" style="fill:none;stroke:black;stroke-width:1.18px;"/>
            </g>
        </g>
    </g>
</svg>
