<?xml version="1.0" encoding="UTF-8" standalone="no"?>
<!DOCTYPE svg PUBLIC "-//W3C//DTD SVG 1.1//EN" "http://www.w3.org/Graphics/SVG/1.1/DTD/svg11.dtd">
<svg width="100%" height="100%" viewBox="0 0 840 1518" version="1.1" xmlns="http://www.w3.org/2000/svg" xmlns:xlink="http://www.w3.org/1999/xlink" xml:space="preserve" xmlns:serif="http://www.serif.com/" style="fill-rule:evenodd;clip-rule:evenodd;stroke-linecap:square;stroke-miterlimit:1.5;">
    <g transform="matrix(1,0,0,1,-3894.69,-13.7374)">
        <g id="EdgeCuts" transform="matrix(1,0,0,1,3019.69,13.7374)">
            <rect x="875" y="0" width="840" height="1517.72" style="fill:rgb(83,27,147);"/>
            <clipPath id="_clip1">
                <rect x="875" y="0" width="840" height="1517.72"/>
            </clipPath>
            <g clip-path="url(#_clip1)">
                <g id="Panel-Edge" serif:id="Panel Edge" transform="matrix(1,0,0,1,875,0)">
                    <rect x="0" y="0" width="840" height="1517.72" style="fill:none;stroke:rgb(255,251,0);stroke-width:4.17px;"/>
                </g>
                <g transform="matrix(1,0,0,1,875,0)">
                    <path d="M118.278,35.625C118.278,25.077 109.727,16.526 99.179,16.526C92.36,16.526 84.651,16.526 77.832,16.526C67.284,16.526 58.734,25.077 58.734,35.625C58.734,35.625 58.734,35.626 58.734,35.626C58.734,46.174 67.284,54.725 77.832,54.725C84.651,54.725 92.36,54.725 99.179,54.725C109.727,54.725 118.278,46.174 118.278,35.626C118.278,35.626 118.278,35.625 118.278,35.625ZM117.861,35.625C117.861,25.307 109.497,16.943 99.179,16.943C92.36,16.943 84.651,16.943 77.832,16.943C67.514,16.943 59.15,25.307 59.15,35.625C59.15,35.625 59.15,35.626 59.15,35.626C59.15,45.944 67.514,54.308 77.832,54.308C84.651,54.308 92.36,54.308 99.179,54.308C109.497,54.308 117.861,45.944 117.861,35.626C117.861,35.626 117.861,35.625 117.861,35.625Z" style="fill:rgb(255,251,0);"/>
                </g>
                <g transform="matrix(1,0,0,1,875,1446.19)">
                    <path d="M118.278,35.625C118.278,25.077 109.727,16.526 99.179,16.526C92.36,16.526 84.651,16.526 77.832,16.526C67.284,16.526 58.734,25.077 58.734,35.625C58.734,35.625 58.734,35.626 58.734,35.626C58.734,46.174 67.284,54.725 77.832,54.725C84.651,54.725 92.36,54.725 99.179,54.725C109.727,54.725 118.278,46.174 118.278,35.626C118.278,35.626 118.278,35.625 118.278,35.625ZM117.861,35.625C117.861,25.307 109.497,16.943 99.179,16.943C92.36,16.943 84.651,16.943 77.832,16.943C67.514,16.943 59.15,25.307 59.15,35.625C59.15,35.625 59.15,35.626 59.15,35.626C59.15,45.944 67.514,54.308 77.832,54.308C84.651,54.308 92.36,54.308 99.179,54.308C109.497,54.308 117.861,45.944 117.861,35.626C117.861,35.626 117.861,35.625 117.861,35.625Z" style="fill:rgb(255,251,0);"/>
                </g>
                <g transform="matrix(1,0,0,1,1537.9,0)">
                    <path d="M118.278,35.625C118.278,25.077 109.727,16.526 99.179,16.526C92.36,16.526 84.651,16.526 77.832,16.526C67.284,16.526 58.734,25.077 58.734,35.625C58.734,35.625 58.734,35.626 58.734,35.626C58.734,46.174 67.284,54.725 77.832,54.725C84.651,54.725 92.36,54.725 99.179,54.725C109.727,54.725 118.278,46.174 118.278,35.626C118.278,35.626 118.278,35.625 118.278,35.625ZM117.861,35.625C117.861,25.307 109.497,16.943 99.179,16.943C92.36,16.943 84.651,16.943 77.832,16.943C67.514,16.943 59.15,25.307 59.15,35.625C59.15,35.625 59.15,35.626 59.15,35.626C59.15,45.944 67.514,54.308 77.832,54.308C84.651,54.308 92.36,54.308 99.179,54.308C109.497,54.308 117.861,45.944 117.861,35.626C117.861,35.626 117.861,35.625 117.861,35.625Z" style="fill:rgb(255,251,0);"/>
                </g>
                <g transform="matrix(1,0,0,1,1537.9,1446.19)">
                    <path d="M118.278,35.625C118.278,25.077 109.727,16.526 99.179,16.526C92.36,16.526 84.651,16.526 77.832,16.526C67.284,16.526 58.734,25.077 58.734,35.625C58.734,35.625 58.734,35.626 58.734,35.626C58.734,46.174 67.284,54.725 77.832,54.725C84.651,54.725 92.36,54.725 99.179,54.725C109.727,54.725 118.278,46.174 118.278,35.626C118.278,35.626 118.278,35.625 118.278,35.625ZM117.861,35.625C117.861,25.307 109.497,16.943 99.179,16.943C92.36,16.943 84.651,16.943 77.832,16.943C67.514,16.943 59.15,25.307 59.15,35.625C59.15,35.625 59.15,35.626 59.15,35.626C59.15,45.944 67.514,54.308 77.832,54.308C84.651,54.308 92.36,54.308 99.179,54.308C109.497,54.308 117.861,45.944 117.861,35.626C117.861,35.626 117.861,35.625 117.861,35.625Z" style="fill:rgb(255,251,0);"/>
                </g>
            </g>
        </g>
    </g>
</svg>
