<?xml version="1.0" encoding="UTF-8" standalone="no"?>
<!DOCTYPE svg PUBLIC "-//W3C//DTD SVG 1.1//EN" "http://www.w3.org/Graphics/SVG/1.1/DTD/svg11.dtd">
<svg width="100%" height="100%" viewBox="0 0 840 1518" version="1.1" xmlns="http://www.w3.org/2000/svg" xmlns:xlink="http://www.w3.org/1999/xlink" xml:space="preserve" xmlns:serif="http://www.serif.com/" style="fill-rule:evenodd;clip-rule:evenodd;stroke-linejoin:round;stroke-miterlimit:2;">
    <g transform="matrix(1,0,0,1,-5345.34,-1800.16)">
        <g id="F.Cu" transform="matrix(1,0,0,1,4470.34,1800.16)">
            <rect x="875" y="0" width="840" height="1517.72" style="fill:none;"/>
            <g id="Panel-Edge" serif:id="Panel Edge" transform="matrix(1,0,0,1,875,0)">
                <rect x="0" y="0" width="840" height="1517.72" style="fill:none;"/>
            </g>
            <g id="Holes" transform="matrix(1,0,0,1,875,0)">
                <g id="CopperPlating">
                    <path d="M126.194,35.625C126.194,20.705 114.099,8.61 99.179,8.61C92.36,8.61 84.651,8.61 77.832,8.61C62.912,8.61 50.817,20.705 50.817,35.625C50.817,35.625 50.817,35.626 50.817,35.626C50.817,50.546 62.912,62.642 77.832,62.642C84.651,62.642 92.36,62.642 99.179,62.642C114.099,62.642 126.194,50.546 126.194,35.626L126.194,35.625ZM117.861,35.625C117.861,25.307 109.497,16.943 99.179,16.943C92.36,16.943 84.651,16.943 77.832,16.943C67.514,16.943 59.15,25.307 59.15,35.625C59.15,35.625 59.15,35.626 59.15,35.626C59.15,45.944 67.514,54.308 77.832,54.308C84.651,54.308 92.36,54.308 99.179,54.308C109.497,54.308 117.861,45.944 117.861,35.626C117.861,35.626 117.861,35.625 117.861,35.625Z"/>
                    <g transform="matrix(1,0,0,1,0,1446.19)">
                        <path d="M126.194,35.625C126.194,20.705 114.099,8.61 99.179,8.61C92.36,8.61 84.651,8.61 77.832,8.61C62.912,8.61 50.817,20.705 50.817,35.625C50.817,35.625 50.817,35.626 50.817,35.626C50.817,50.546 62.912,62.642 77.832,62.642C84.651,62.642 92.36,62.642 99.179,62.642C114.099,62.642 126.194,50.546 126.194,35.626L126.194,35.625ZM117.861,35.625C117.861,25.307 109.497,16.943 99.179,16.943C92.36,16.943 84.651,16.943 77.832,16.943C67.514,16.943 59.15,25.307 59.15,35.625C59.15,35.625 59.15,35.626 59.15,35.626C59.15,45.944 67.514,54.308 77.832,54.308C84.651,54.308 92.36,54.308 99.179,54.308C109.497,54.308 117.861,45.944 117.861,35.626C117.861,35.626 117.861,35.625 117.861,35.625Z"/>
                    </g>
                    <g transform="matrix(1,0,0,1,662.896,0)">
                        <path d="M126.194,35.625C126.194,20.705 114.099,8.61 99.179,8.61C92.36,8.61 84.651,8.61 77.832,8.61C62.912,8.61 50.817,20.705 50.817,35.625C50.817,35.625 50.817,35.626 50.817,35.626C50.817,50.546 62.912,62.642 77.832,62.642C84.651,62.642 92.36,62.642 99.179,62.642C114.099,62.642 126.194,50.546 126.194,35.626L126.194,35.625ZM117.861,35.625C117.861,25.307 109.497,16.943 99.179,16.943C92.36,16.943 84.651,16.943 77.832,16.943C67.514,16.943 59.15,25.307 59.15,35.625C59.15,35.625 59.15,35.626 59.15,35.626C59.15,45.944 67.514,54.308 77.832,54.308C84.651,54.308 92.36,54.308 99.179,54.308C109.497,54.308 117.861,45.944 117.861,35.626C117.861,35.626 117.861,35.625 117.861,35.625Z"/>
                    </g>
                    <g transform="matrix(1,0,0,1,662.896,1446.19)">
                        <path d="M126.194,35.625C126.194,20.705 114.099,8.61 99.179,8.61C92.36,8.61 84.651,8.61 77.832,8.61C62.912,8.61 50.817,20.705 50.817,35.625C50.817,35.625 50.817,35.626 50.817,35.626C50.817,50.546 62.912,62.642 77.832,62.642C84.651,62.642 92.36,62.642 99.179,62.642C114.099,62.642 126.194,50.546 126.194,35.626L126.194,35.625ZM117.861,35.625C117.861,25.307 109.497,16.943 99.179,16.943C92.36,16.943 84.651,16.943 77.832,16.943C67.514,16.943 59.15,25.307 59.15,35.625C59.15,35.625 59.15,35.626 59.15,35.626C59.15,45.944 67.514,54.308 77.832,54.308C84.651,54.308 92.36,54.308 99.179,54.308C109.497,54.308 117.861,45.944 117.861,35.626C117.861,35.626 117.861,35.625 117.861,35.625Z"/>
                    </g>
                </g>
            </g>
            <path d="M1031.86,676.275L1032.99,676.246C1036.12,676.246 1039.23,676.404 1042.28,676.713L1040.14,699.658C1037.8,699.413 1035.4,699.289 1032.99,699.289C994.834,699.289 963.86,730.263 963.86,768.415C963.86,770.903 963.991,773.36 964.256,775.785L941.305,777.926C940.982,774.797 940.817,771.625 940.817,768.415L940.84,767.502L954.682,766.211C954.417,763.786 954.286,761.329 954.286,758.841C954.286,720.689 985.26,689.715 1023.41,689.715C1025.83,689.715 1028.22,689.839 1030.57,690.084L1031.86,676.275Z"/>
            <g transform="matrix(-1,0,0,1,2369.02,42.965)">
                <g transform="matrix(3.20626,0,0,1.13162,-3488.25,-171.343)">
                    <path d="M1422.92,882.018L1429.19,894.543L1416.66,894.543L1422.92,882.018Z"/>
                </g>
                <g transform="matrix(1.0504,0,0,0.78674,-420.618,136.52)">
                    <rect x="1417.3" y="895.367" width="11.24" height="150.126"/>
                </g>
                <g transform="matrix(6.43407e-17,-1.05076,0.389436,2.38461e-17,672.768,2448.3)">
                    <rect x="1417.3" y="895.367" width="11.24" height="150.126"/>
                </g>
            </g>
            <g transform="matrix(-1,0,0,1,2589.76,42.965)">
                <g transform="matrix(3.20626,0,0,1.13162,-3488.25,-171.343)">
                    <path d="M1422.92,882.018L1429.19,894.543L1416.66,894.543L1422.92,882.018Z"/>
                </g>
                <g transform="matrix(1.0504,0,0,0.78674,-420.618,136.52)">
                    <rect x="1417.3" y="895.367" width="11.24" height="150.126"/>
                </g>
                <g transform="matrix(6.43407e-17,-1.05076,0.389436,2.38461e-17,672.768,2448.3)">
                    <rect x="1417.3" y="895.367" width="11.24" height="150.126"/>
                </g>
            </g>
            <g transform="matrix(7.18457,0,0,0.846565,-8035.78,-708.046)">
                <path d="M1285.59,899.867L1284.88,905.862L1282.08,905.862L1282.08,870.099L1282.79,864.242L1281.99,864.242L1281.99,858.248L1284.88,858.248L1285.59,864.242L1285.59,899.867ZM1284.79,899.867L1284.79,864.242L1282.89,864.242L1282.89,905.035L1283.48,899.867L1284.79,899.867Z" style="fill-rule:nonzero;"/>
                <path d="M1290.21,882.02L1289.41,888.842L1289.41,876.094L1288.21,876.094L1288.21,905.862L1287.41,905.862L1287.41,870.099L1288.21,870.099L1288.21,875.267L1288.8,870.099L1289.51,870.099L1290.21,876.094L1290.21,882.02Z" style="fill-rule:nonzero;"/>
                <path d="M1294.42,905.862L1293.63,905.862L1293.63,900.762L1293.03,905.862L1292.23,905.862L1291.52,899.867L1291.52,870.099L1292.32,870.099L1292.32,899.867L1293.63,899.867L1293.63,870.099L1294.42,870.099L1294.42,905.862Z" style="fill-rule:nonzero;"/>
                <path d="M1301.04,905.862L1300.24,905.862L1300.24,876.094L1299.04,876.094L1299.04,905.862L1298.23,905.862L1298.23,876.094L1297.04,876.094L1297.04,905.862L1296.24,905.862L1296.24,870.099L1297.04,870.099L1297.04,875.267L1297.63,870.099L1298.44,870.099L1298.93,874.44L1299.43,870.099L1300.34,870.099L1301.04,876.094L1301.04,905.862Z" style="fill-rule:nonzero;"/>
                <path d="M1308.22,905.862L1307.42,905.862L1307.42,882.02L1305.52,882.02L1305.52,905.862L1304.71,905.862L1304.71,858.248L1305.52,858.248L1305.52,880.918L1307.32,865.965L1307.32,858.248L1308.12,858.248L1308.12,866.654L1307,875.819L1307,876.714L1307.51,876.714L1308.22,882.64L1308.22,905.862Z" style="fill-rule:nonzero;"/>
                <path d="M1310.84,864.242L1310.04,864.242L1310.04,857.421L1310.84,857.421L1310.84,864.242ZM1310.84,905.862L1310.04,905.862L1310.04,875.336L1310.84,868.446L1310.84,905.862Z" style="fill-rule:nonzero;"/>
                <path d="M1315.46,905.862L1314.67,905.862L1314.67,900.762L1314.08,905.862L1313.26,905.862L1312.56,899.867L1312.56,876.094L1313.26,870.099L1314.67,870.099L1314.67,858.179L1315.46,851.426L1315.46,905.862ZM1314.67,899.867L1314.67,870.926L1314.05,876.094L1313.37,876.094L1313.37,899.867L1314.67,899.867Z" style="fill-rule:nonzero;"/>
            </g>
            <g transform="matrix(1,0,0,1,-4470.34,-1800.16)">
                <g id="pot">
                    <path d="M5765.34,2559.1C5793.37,2559.1 5816.12,2581.86 5816.12,2609.89C5816.12,2637.92 5793.37,2660.67 5765.34,2660.67C5737.31,2660.67 5714.55,2637.92 5714.55,2609.89C5714.55,2581.86 5737.31,2559.1 5765.34,2559.1ZM5765.34,2568.55C5788.15,2568.55 5806.67,2587.07 5806.67,2609.89C5806.67,2632.7 5788.15,2651.22 5765.34,2651.22C5742.52,2651.22 5724,2632.7 5724,2609.89C5724,2587.07 5742.52,2568.55 5765.34,2568.55Z"/>
                </g>
            </g>
            <g transform="matrix(1,0,0,1,-4470.34,-1800.16)">
                <g id="pot1" serif:id="pot">
                    <path d="M5986.08,2559.1C6014.11,2559.1 6036.87,2581.86 6036.87,2609.89C6036.87,2637.92 6014.11,2660.67 5986.08,2660.67C5958.05,2660.67 5935.3,2637.92 5935.3,2609.89C5935.3,2581.86 5958.05,2559.1 5986.08,2559.1ZM5986.08,2568.55C6008.9,2568.55 6027.42,2587.07 6027.42,2609.89C6027.42,2632.7 6008.9,2651.22 5986.08,2651.22C5963.27,2651.22 5944.74,2632.7 5944.74,2609.89C5944.74,2587.07 5963.27,2568.55 5986.08,2568.55Z"/>
                </g>
            </g>
            <g transform="matrix(1,0,0,1,-0.577715,7.51557)">
                <g transform="matrix(1,0,0,1,-4469.76,-1807.68)">
                    <path d="M5875.65,2737.42C5909.55,2737.42 5937.07,2764.94 5937.07,2798.83C5937.07,2832.73 5909.55,2860.25 5875.65,2860.25C5841.75,2860.25 5814.23,2832.73 5814.23,2798.83C5814.23,2764.94 5841.75,2737.42 5875.65,2737.42ZM5875.65,2763.07C5895.86,2763.07 5912.27,2779.47 5912.27,2799.68C5912.27,2819.89 5895.86,2836.3 5875.65,2836.3C5855.44,2836.3 5839.04,2819.89 5839.04,2799.68C5839.04,2779.47 5855.44,2763.07 5875.65,2763.07Z"/>
                </g>
                <g transform="matrix(1,0,0,1,-4469.76,-1807.68)">
                    <path d="M6096.52,2737.42C6130.41,2737.42 6157.93,2764.94 6157.93,2798.83C6157.93,2832.73 6130.41,2860.25 6096.52,2860.25C6062.62,2860.25 6035.1,2832.73 6035.1,2798.83C6035.1,2764.94 6062.62,2737.42 6096.52,2737.42ZM6096.52,2763.07C6116.73,2763.07 6133.13,2779.47 6133.13,2799.68C6133.13,2819.89 6116.73,2836.3 6096.52,2836.3C6076.31,2836.3 6059.9,2819.89 6059.9,2799.68C6059.9,2779.47 6076.31,2763.07 6096.52,2763.07Z"/>
                </g>
            </g>
        </g>
    </g>
</svg>
