<?xml version="1.0" encoding="UTF-8" standalone="no"?>
<!DOCTYPE svg PUBLIC "-//W3C//DTD SVG 1.1//EN" "http://www.w3.org/Graphics/SVG/1.1/DTD/svg11.dtd">
<svg width="100%" height="100%" viewBox="0 0 840 1518" version="1.1" xmlns="http://www.w3.org/2000/svg" xmlns:xlink="http://www.w3.org/1999/xlink" xml:space="preserve" xmlns:serif="http://www.serif.com/" style="fill-rule:evenodd;clip-rule:evenodd;stroke-linejoin:round;stroke-miterlimit:2;">
    <g transform="matrix(1,0,0,1,-5345.34,-13.7374)">
        <g id="Copper" transform="matrix(1,0,0,1,4470.34,13.7374)">
            <rect x="875" y="0" width="840" height="1517.72" style="fill:rgb(83,27,147);"/>
            <clipPath id="_clip1">
                <rect x="875" y="0" width="840" height="1517.72"/>
            </clipPath>
            <g clip-path="url(#_clip1)">
                <g transform="matrix(1,0,0,1,-4470.34,-13.7374)">
                    <path d="M5345.34,780L5345.34,806.819L5433.9,854.436L5544.92,795.069C5544.92,795.069 5654.78,842.069 5654.78,842.069L5765.33,794.826C5765.33,794.826 5875.64,842.066 5875.64,842.066L5986.08,795.069C5986.08,795.069 6096.52,854.444 6096.52,854.444L6185.34,806.692L6185.34,779.873L6096.52,827.625C6096.52,827.625 5987.27,768.89 5987.27,768.89L5875.66,816.381C5875.66,816.381 5765.34,769.133 5765.34,769.133L5654.79,816.378C5654.79,816.378 5543.78,768.89 5543.78,768.89L5433.93,827.633L5345.34,780ZM5345.34,742.323L5345.34,769.143L5433.9,816.76L5544.92,757.393C5544.92,757.393 5654.78,804.393 5654.78,804.393L5765.33,757.15C5765.33,757.15 5875.64,804.389 5875.64,804.389L5986.08,757.393C5986.08,757.393 6096.52,816.768 6096.52,816.768L6185.34,769.016L6185.34,742.196L6096.52,789.948C6096.52,789.948 5987.27,731.214 5987.27,731.214L5875.66,778.705C5875.66,778.705 5765.34,731.457 5765.34,731.457L5654.79,778.702C5654.79,778.702 5543.78,731.213 5543.78,731.213L5433.93,789.957L5345.34,742.323Z" style="fill:rgb(255,147,0);"/>
                </g>
                <g transform="matrix(0.210526,0,0,0.179605,730.162,576.519)">
                    <rect x="1366.82" y="660.114" width="112.205" height="49.321" style="fill:rgb(255,147,0);"/>
                </g>
                <g transform="matrix(0.210526,0,0,0.359209,759.689,449.101)">
                    <rect x="1366.82" y="660.114" width="112.205" height="49.321" style="fill:rgb(255,147,0);"/>
                </g>
                <g transform="matrix(0.210526,0,0,0.538814,789.217,321.683)">
                    <rect x="1366.82" y="660.114" width="112.205" height="49.321" style="fill:rgb(255,147,0);"/>
                </g>
                <g transform="matrix(0.210526,0,0,0.718419,818.744,194.266)">
                    <rect x="1366.82" y="660.114" width="112.205" height="49.321" style="fill:rgb(255,147,0);"/>
                </g>
                <g transform="matrix(0.210526,0,0,0.359209,1230.95,449.101)">
                    <rect x="1366.82" y="660.114" width="112.205" height="49.321" style="fill:rgb(255,147,0);"/>
                </g>
                <g transform="matrix(0.210526,0,0,0.718419,1260.48,194.266)">
                    <rect x="1366.82" y="660.114" width="112.205" height="49.321" style="fill:rgb(255,147,0);"/>
                </g>
                <g transform="matrix(1,0,0,1,-288.999,-836.417)">
                    <text x="1450.42px" y="895.242px" style="font-family:'Iceberg-Regular', 'Iceberg';font-size:58.333px;fill:rgb(255,147,0);">O<tspan x="1488.57px 1515.98px 1537.97px 1570.06px 1603.48px 1622.62px 1655.34px 1688.82px " y="895.242px 895.242px 895.242px 895.242px 895.242px 895.242px 895.242px 895.242px ">ctaplonk</tspan></text>
                </g>
            </g>
        </g>
    </g>
</svg>
