<?xml version="1.0" encoding="UTF-8" standalone="no"?>
<!DOCTYPE svg PUBLIC "-//W3C//DTD SVG 1.1//EN" "http://www.w3.org/Graphics/SVG/1.1/DTD/svg11.dtd">
<svg width="100%" height="100%" viewBox="0 0 840 1518" version="1.1" xmlns="http://www.w3.org/2000/svg" xmlns:xlink="http://www.w3.org/1999/xlink" xml:space="preserve" xmlns:serif="http://www.serif.com/" style="fill-rule:evenodd;clip-rule:evenodd;stroke-linejoin:round;stroke-miterlimit:2;">
    <g transform="matrix(1,0,0,1,-6500.15,-1800.16)">
        <g id="F.Mask" transform="matrix(1,0,0,1,5625.15,1800.16)">
            <rect x="875" y="0" width="840" height="1517.72" style="fill:none;"/>
            <g id="Panel-Edge" serif:id="Panel Edge" transform="matrix(1,0,0,1,875,0)">
                <rect x="0" y="0" width="840" height="1517.72" style="fill:none;"/>
            </g>
            <g transform="matrix(1,0,0,1,881.66,-1.88395)">
                <g transform="matrix(0.707107,0.707107,-0.707107,0.707107,102.988,601.056)">
                    <rect x="-17.812" y="-40.647" width="35.624" height="23.302"/>
                </g>
                <g transform="matrix(0.707107,0.707107,-0.707107,0.707107,102.988,453.419)">
                    <rect x="-17.812" y="-40.647" width="35.624" height="23.302"/>
                </g>
                <g transform="matrix(0.707107,0.707107,-0.707107,0.707107,102.988,305.781)">
                    <rect x="-17.812" y="-40.647" width="35.624" height="23.302"/>
                </g>
                <g transform="matrix(0.707107,0.707107,-0.707107,0.707107,102.988,158.143)">
                    <rect x="-17.812" y="-40.647" width="35.624" height="23.302"/>
                </g>
            </g>
            <g transform="matrix(1,0,0,1,1102.3,-1.88395)">
                <g transform="matrix(0.707107,0.707107,-0.707107,0.707107,102.988,601.056)">
                    <rect x="-17.812" y="-40.647" width="35.624" height="23.302"/>
                </g>
                <g transform="matrix(0.707107,0.707107,-0.707107,0.707107,102.988,453.419)">
                    <rect x="-17.812" y="-40.647" width="35.624" height="23.302"/>
                </g>
                <g transform="matrix(0.707107,0.707107,-0.707107,0.707107,102.988,305.781)">
                    <rect x="-17.812" y="-40.647" width="35.624" height="23.302"/>
                </g>
                <g transform="matrix(0.707107,0.707107,-0.707107,0.707107,102.988,158.143)">
                    <rect x="-17.812" y="-40.647" width="35.624" height="23.302"/>
                </g>
            </g>
            <g transform="matrix(1,0,0,1,1322.94,-1.88395)">
                <g transform="matrix(0.707107,0.707107,-0.707107,0.707107,102.988,601.056)">
                    <rect x="-17.812" y="-40.647" width="35.624" height="23.302"/>
                </g>
                <g transform="matrix(0.707107,0.707107,-0.707107,0.707107,102.988,453.419)">
                    <rect x="-17.812" y="-40.647" width="35.624" height="23.302"/>
                </g>
                <g transform="matrix(0.707107,0.707107,-0.707107,0.707107,102.988,305.781)">
                    <rect x="-17.812" y="-40.647" width="35.624" height="23.302"/>
                </g>
                <g transform="matrix(0.707107,0.707107,-0.707107,0.707107,102.988,158.143)">
                    <rect x="-17.812" y="-40.647" width="35.624" height="23.302"/>
                </g>
            </g>
            <g transform="matrix(1,0,0,1,1543.58,-1.88395)">
                <g transform="matrix(0.707107,0.707107,-0.707107,0.707107,102.988,601.056)">
                    <rect x="-17.812" y="-40.647" width="35.624" height="23.302"/>
                </g>
                <g transform="matrix(0.707107,0.707107,-0.707107,0.707107,102.988,453.419)">
                    <rect x="-17.812" y="-40.647" width="35.624" height="23.302"/>
                </g>
                <g transform="matrix(0.707107,0.707107,-0.707107,0.707107,102.988,305.781)">
                    <rect x="-17.812" y="-40.647" width="35.624" height="23.302"/>
                </g>
                <g transform="matrix(0.707107,0.707107,-0.707107,0.707107,102.988,158.143)">
                    <rect x="-17.812" y="-40.647" width="35.624" height="23.302"/>
                </g>
            </g>
            <g transform="matrix(1.0041,0,0,0.62724,1524.69,749.098)">
                <path d="M-274.634,223.808C-302.079,198.411 -320.543,150.923 -320.543,96.586C-320.543,15.486 -279.412,-50.357 -228.75,-50.357C-178.089,-50.357 -136.958,15.486 -136.958,96.586C-136.958,150.923 -155.422,198.411 -182.867,223.808L-194.338,192.002C-173.754,172.955 -159.906,137.339 -159.906,96.586C-159.906,35.761 -190.754,-13.622 -228.75,-13.622C-266.747,-13.622 -297.595,35.761 -297.595,96.586C-297.595,137.339 -283.747,172.955 -263.163,192.002L-274.634,223.808Z"/>
            </g>
            <g transform="matrix(1,0,0,1,-5625.15,-1800.16)">
                <path d="M6565.99,2567.66L6556.89,2568.51C6556.56,2565.39 6556.4,2562.21 6556.4,2559C6556.4,2508.13 6597.7,2466.84 6648.57,2466.84C6651.7,2466.84 6654.81,2466.99 6657.86,2467.3L6657.01,2476.44L6658.14,2476.41C6661.28,2476.41 6664.38,2476.57 6667.44,2476.88L6666.85,2483.16C6669.31,2483.19 6671.74,2483.34 6674.14,2483.58L6672,2506.53C6669.65,2506.28 6667.26,2506.16 6664.85,2506.16C6626.69,2506.16 6595.72,2537.13 6595.72,2575.28C6595.72,2577.77 6595.85,2580.23 6596.11,2582.65L6573.16,2584.79C6572.91,2582.39 6572.76,2579.96 6572.73,2577.5L6566.46,2578.09C6566.14,2574.96 6565.97,2571.79 6565.97,2568.58L6565.99,2567.66ZM6589.08,2565.46C6589.06,2565.98 6589.04,2566.5 6589.03,2567.02C6589.04,2566.5 6589.06,2565.98 6589.08,2565.46ZM6579.7,2565.01C6579.72,2565.21 6579.74,2565.42 6579.76,2565.62L6579.74,2565.46L6579.7,2565.01ZM6589.88,2557.63C6589.53,2559.82 6589.28,2562.04 6589.15,2564.29C6589.28,2562.04 6589.53,2559.81 6589.88,2557.63ZM6579.44,2558.11C6579.44,2558.41 6579.44,2558.71 6579.44,2559C6579.44,2559.7 6579.45,2560.39 6579.47,2561.08C6579.45,2560.39 6579.44,2559.7 6579.44,2559C6579.44,2558.86 6579.44,2558.71 6579.44,2558.56L6579.44,2558.11ZM6591.15,2551.48C6591.09,2551.7 6591.04,2551.92 6590.98,2552.14L6591.09,2551.72L6591.15,2551.48ZM6592.78,2546.01C6592.38,2547.19 6592,2548.38 6591.66,2549.59C6592,2548.38 6592.38,2547.19 6592.78,2546.01ZM6590.89,2520.91C6587.23,2526.44 6584.34,2532.53 6582.38,2539.02C6584.34,2532.53 6587.23,2526.44 6590.89,2520.91ZM6596.2,2537.87L6596.04,2538.2L6596.2,2537.87L6596.32,2537.64L6596.2,2537.87ZM6597.16,2536.01L6597.01,2536.3L6597.16,2536.01L6597.36,2535.64L6597.16,2536.01ZM6601.97,2528.29C6601.62,2528.79 6601.26,2529.29 6600.92,2529.8C6601.26,2529.3 6601.61,2528.79 6601.97,2528.29ZM6602.75,2527.23C6602.58,2527.46 6602.41,2527.69 6602.24,2527.92C6602.33,2527.8 6602.42,2527.68 6602.51,2527.56L6602.75,2527.23ZM6606.98,2522.11C6606.24,2522.93 6605.52,2523.76 6604.82,2524.61C6605.52,2523.76 6606.24,2522.93 6606.98,2522.11ZM6608.69,2520.3L6608.41,2520.58L6608.69,2520.3ZM6592.26,2518.92C6591.92,2519.39 6591.58,2519.88 6591.25,2520.37C6591.58,2519.88 6591.92,2519.39 6592.26,2518.92ZM6611.36,2517.7C6610.65,2518.35 6609.95,2519.02 6609.27,2519.71C6609.95,2519.02 6610.65,2518.35 6611.36,2517.7ZM6595.5,2514.72C6594.73,2515.64 6593.98,2516.59 6593.26,2517.55C6593.98,2516.59 6594.73,2515.65 6595.5,2514.72ZM6612.29,2516.86C6612.19,2516.95 6612.08,2517.05 6611.98,2517.14C6612.08,2517.05 6612.19,2516.95 6612.29,2516.86ZM6619.16,2511.5C6616.98,2512.99 6614.9,2514.6 6612.91,2516.32C6614.79,2514.68 6616.77,2513.16 6618.82,2511.73L6619.16,2511.5ZM6600.18,2509.66C6598.67,2511.14 6597.22,2512.69 6595.85,2514.31C6597.22,2512.69 6598.67,2511.14 6600.18,2509.66ZM6624.71,2508.07C6623.61,2508.68 6622.53,2509.32 6621.46,2509.99C6622.53,2509.32 6623.61,2508.68 6624.71,2508.07ZM6602.1,2507.84L6601.93,2508L6602.1,2507.84L6602.31,2507.65L6602.1,2507.84ZM6625.94,2507.4L6626.31,2507.21C6625.91,2507.42 6625.51,2507.63 6625.12,2507.84C6625.39,2507.7 6625.66,2507.55 6625.94,2507.4ZM6606.78,2503.94C6605.34,2505.04 6603.94,2506.2 6602.59,2507.4C6603.94,2506.2 6605.34,2505.04 6606.78,2503.94ZM6641.29,2501.52C6640.46,2501.73 6639.63,2501.95 6638.82,2502.19C6639.63,2501.95 6640.45,2501.73 6641.29,2501.52ZM6641.7,2501.42L6641.55,2501.46L6641.7,2501.42L6642.06,2501.33L6641.7,2501.42ZM6643.37,2501.03L6643.79,2500.94C6643.24,2501.06 6642.69,2501.18 6642.14,2501.31C6642.56,2501.22 6642.96,2501.12 6643.37,2501.03ZM6648.58,2500.11C6647.96,2500.19 6647.34,2500.29 6646.73,2500.39C6647.34,2500.29 6647.96,2500.19 6648.58,2500.11ZM6651.51,2499.76C6651.37,2499.78 6651.22,2499.79 6651.08,2499.81C6651.22,2499.79 6651.37,2499.78 6651.51,2499.76ZM6659.05,2499.46C6659.94,2499.47 6660.82,2499.5 6661.7,2499.54C6660.67,2499.49 6659.64,2499.46 6658.59,2499.45L6659.05,2499.46ZM6656.6,2499.47C6656.37,2499.47 6656.14,2499.48 6655.91,2499.49L6656.36,2499.47L6656.6,2499.47ZM6657.24,2499.46L6657.25,2499.46L6657.69,2499.45C6657.54,2499.45 6657.39,2499.45 6657.24,2499.46ZM6613.47,2499.45L6613.81,2499.25L6614.17,2499.04C6613.94,2499.18 6613.7,2499.31 6613.47,2499.45ZM6615.26,2498.43L6615.52,2498.28L6615.26,2498.43ZM6622.58,2494.94C6621.36,2495.43 6620.16,2495.96 6618.99,2496.52C6620.17,2495.96 6621.36,2495.43 6622.58,2494.94ZM6624.02,2494.37C6623.64,2494.51 6623.27,2494.66 6622.9,2494.8C6623.14,2494.71 6623.38,2494.62 6623.62,2494.52L6624.02,2494.37ZM6631.71,2491.95C6630.81,2492.18 6629.92,2492.42 6629.03,2492.68C6629.78,2492.46 6630.54,2492.25 6631.3,2492.05L6631.71,2491.95ZM6637.62,2490.74C6636.61,2490.9 6635.61,2491.09 6634.61,2491.29C6635.47,2491.11 6636.32,2490.95 6637.19,2490.81L6637.62,2490.74ZM6645.01,2489.97C6643.24,2490.06 6641.49,2490.21 6639.77,2490.43C6641.35,2490.23 6642.95,2490.08 6644.57,2489.99L6645.01,2489.97ZM6654.4,2490.12C6654.66,2490.14 6654.93,2490.17 6655.19,2490.19C6654.78,2490.15 6654.37,2490.12 6653.95,2490.09L6654.4,2490.12ZM6651.27,2489.93L6651.72,2489.95C6652.02,2489.96 6652.32,2489.98 6652.62,2489.99L6653.06,2490.02C6652.47,2489.98 6651.87,2489.95 6651.27,2489.93ZM6648.11,2489.88C6647.82,2489.88 6647.52,2489.88 6647.23,2489.89L6647.67,2489.88L6648.11,2489.88ZM6579.52,2562.25C6579.55,2563.02 6579.6,2563.79 6579.66,2564.55L6579.63,2564.09C6579.57,2563.33 6579.53,2562.56 6579.49,2561.79L6579.52,2562.25ZM6579.48,2556.78C6579.61,2552.49 6580.14,2548.3 6581.02,2544.24C6580.11,2548.44 6579.57,2552.78 6579.46,2557.22L6579.48,2556.78ZM6590.09,2556.35C6590.12,2556.2 6590.15,2556.06 6590.17,2555.92C6590.12,2556.2 6590.07,2556.49 6590.02,2556.77L6590.09,2556.35ZM6590.33,2555.08C6590.36,2554.94 6590.39,2554.8 6590.42,2554.65C6590.36,2554.93 6590.31,2555.22 6590.25,2555.5L6590.33,2555.08ZM6590.69,2553.39C6590.72,2553.25 6590.75,2553.12 6590.78,2552.97C6590.72,2553.25 6590.66,2553.53 6590.6,2553.81L6590.69,2553.39ZM6581.21,2543.4C6581.4,2542.56 6581.61,2541.73 6581.84,2540.91C6581.57,2541.87 6581.34,2542.84 6581.11,2543.82L6581.21,2543.4ZM6603.51,2526.24L6603.26,2526.57L6603.51,2526.24ZM6604.02,2525.59C6604.28,2525.26 6604.55,2524.93 6604.82,2524.61C6604.46,2525.04 6604.11,2525.47 6603.77,2525.91L6604.02,2525.59ZM6628.56,2506.09L6628.94,2505.91C6628.31,2506.21 6627.68,2506.51 6627.05,2506.83L6626.68,2507.02C6627.3,2506.7 6627.93,2506.39 6628.56,2506.09ZM6624.81,2494.07C6625.2,2493.93 6625.6,2493.79 6626,2493.65L6626.4,2493.51C6625.74,2493.74 6625.07,2493.97 6624.41,2494.22L6624.81,2494.07ZM6627.29,2493.22C6627.13,2493.27 6626.97,2493.32 6626.81,2493.38L6627.21,2493.24L6627.29,2493.22ZM6632.55,2491.75C6632.84,2491.68 6633.14,2491.61 6633.44,2491.54C6633,2491.64 6632.57,2491.74 6632.13,2491.85L6632.55,2491.75ZM6645.9,2489.93C6646.33,2489.91 6646.77,2489.9 6647.21,2489.89C6646.62,2489.9 6646.03,2489.92 6645.45,2489.95L6645.9,2489.93Z"/>
            </g>
            <g transform="matrix(1.0041,0,0,0.62724,1745.44,749.098)">
                <path d="M-274.634,223.808C-302.079,198.411 -320.543,150.923 -320.543,96.586C-320.543,15.486 -279.412,-50.357 -228.75,-50.357C-178.089,-50.357 -136.958,15.486 -136.958,96.586C-136.958,150.923 -155.422,198.411 -182.867,223.808L-194.338,192.002C-173.754,172.955 -159.906,137.339 -159.906,96.586C-159.906,35.761 -190.754,-13.622 -228.75,-13.622C-266.747,-13.622 -297.595,35.761 -297.595,96.586C-297.595,137.339 -283.747,172.955 -263.163,192.002L-274.634,223.808Z"/>
            </g>
            <g id="Holes" transform="matrix(1,0,0,1,875,0)">
                <g id="CopperPlating">
                    <path d="M126.194,35.625C126.194,20.705 114.099,8.61 99.179,8.61C92.36,8.61 84.651,8.61 77.832,8.61C62.912,8.61 50.817,20.705 50.817,35.625C50.817,35.625 50.817,35.626 50.817,35.626C50.817,50.546 62.912,62.642 77.832,62.642C84.651,62.642 92.36,62.642 99.179,62.642C114.099,62.642 126.194,50.546 126.194,35.626L126.194,35.625ZM117.861,35.625C117.861,25.307 109.497,16.943 99.179,16.943C92.36,16.943 84.651,16.943 77.832,16.943C67.514,16.943 59.15,25.307 59.15,35.625C59.15,35.625 59.15,35.626 59.15,35.626C59.15,45.944 67.514,54.308 77.832,54.308C84.651,54.308 92.36,54.308 99.179,54.308C109.497,54.308 117.861,45.944 117.861,35.626C117.861,35.626 117.861,35.625 117.861,35.625Z"/>
                    <g transform="matrix(1,0,0,1,0,1446.19)">
                        <path d="M126.194,35.625C126.194,20.705 114.099,8.61 99.179,8.61C92.36,8.61 84.651,8.61 77.832,8.61C62.912,8.61 50.817,20.705 50.817,35.625C50.817,35.625 50.817,35.626 50.817,35.626C50.817,50.546 62.912,62.642 77.832,62.642C84.651,62.642 92.36,62.642 99.179,62.642C114.099,62.642 126.194,50.546 126.194,35.626L126.194,35.625ZM117.861,35.625C117.861,25.307 109.497,16.943 99.179,16.943C92.36,16.943 84.651,16.943 77.832,16.943C67.514,16.943 59.15,25.307 59.15,35.625C59.15,35.625 59.15,35.626 59.15,35.626C59.15,45.944 67.514,54.308 77.832,54.308C84.651,54.308 92.36,54.308 99.179,54.308C109.497,54.308 117.861,45.944 117.861,35.626C117.861,35.626 117.861,35.625 117.861,35.625Z"/>
                    </g>
                    <g transform="matrix(1,0,0,1,662.896,0)">
                        <path d="M126.194,35.625C126.194,20.705 114.099,8.61 99.179,8.61C92.36,8.61 84.651,8.61 77.832,8.61C62.912,8.61 50.817,20.705 50.817,35.625C50.817,35.625 50.817,35.626 50.817,35.626C50.817,50.546 62.912,62.642 77.832,62.642C84.651,62.642 92.36,62.642 99.179,62.642C114.099,62.642 126.194,50.546 126.194,35.626L126.194,35.625ZM117.861,35.625C117.861,25.307 109.497,16.943 99.179,16.943C92.36,16.943 84.651,16.943 77.832,16.943C67.514,16.943 59.15,25.307 59.15,35.625C59.15,35.625 59.15,35.626 59.15,35.626C59.15,45.944 67.514,54.308 77.832,54.308C84.651,54.308 92.36,54.308 99.179,54.308C109.497,54.308 117.861,45.944 117.861,35.626C117.861,35.626 117.861,35.625 117.861,35.625Z"/>
                    </g>
                    <g transform="matrix(1,0,0,1,662.896,1446.19)">
                        <path d="M126.194,35.625C126.194,20.705 114.099,8.61 99.179,8.61C92.36,8.61 84.651,8.61 77.832,8.61C62.912,8.61 50.817,20.705 50.817,35.625C50.817,35.625 50.817,35.626 50.817,35.626C50.817,50.546 62.912,62.642 77.832,62.642C84.651,62.642 92.36,62.642 99.179,62.642C114.099,62.642 126.194,50.546 126.194,35.626L126.194,35.625ZM117.861,35.625C117.861,25.307 109.497,16.943 99.179,16.943C92.36,16.943 84.651,16.943 77.832,16.943C67.514,16.943 59.15,25.307 59.15,35.625C59.15,35.625 59.15,35.626 59.15,35.626C59.15,45.944 67.514,54.308 77.832,54.308C84.651,54.308 92.36,54.308 99.179,54.308C109.497,54.308 117.861,45.944 117.861,35.626C117.861,35.626 117.861,35.625 117.861,35.625Z"/>
                    </g>
                </g>
            </g>
            <g transform="matrix(-1,0,0,1,2369.02,42.965)">
                <g transform="matrix(3.20626,0,0,1.13162,-3488.25,-171.343)">
                    <path d="M1422.92,882.018L1429.19,894.543L1416.66,894.543L1422.92,882.018Z"/>
                </g>
                <g transform="matrix(1.0504,0,0,0.78674,-420.618,136.52)">
                    <rect x="1417.3" y="895.367" width="11.24" height="150.126"/>
                </g>
                <g transform="matrix(6.43407e-17,-1.05076,0.389436,2.38461e-17,672.768,2448.3)">
                    <rect x="1417.3" y="895.367" width="11.24" height="150.126"/>
                </g>
            </g>
            <g transform="matrix(-1,0,0,1,2589.76,42.965)">
                <g transform="matrix(3.20626,0,0,1.13162,-3488.25,-171.343)">
                    <path d="M1422.92,882.018L1429.19,894.543L1416.66,894.543L1422.92,882.018Z"/>
                </g>
                <g transform="matrix(1.0504,0,0,0.78674,-420.618,136.52)">
                    <rect x="1417.3" y="895.367" width="11.24" height="150.126"/>
                </g>
                <g transform="matrix(6.43407e-17,-1.05076,0.389436,2.38461e-17,672.768,2448.3)">
                    <rect x="1417.3" y="895.367" width="11.24" height="150.126"/>
                </g>
            </g>
            <g transform="matrix(1,0,0,1,-0.577715,7.51557)">
                <g transform="matrix(1,0,0,1,-5624.58,-1807.68)">
                    <path d="M7030.47,2737.42C7064.37,2737.42 7091.89,2764.94 7091.89,2798.83C7091.89,2832.73 7064.37,2860.25 7030.47,2860.25C6996.57,2860.25 6969.05,2832.73 6969.05,2798.83C6969.05,2764.94 6996.57,2737.42 7030.47,2737.42ZM7030.47,2763.07C7050.68,2763.07 7067.08,2779.47 7067.08,2799.68C7067.08,2819.89 7050.68,2836.3 7030.47,2836.3C7010.26,2836.3 6993.85,2819.89 6993.85,2799.68C6993.85,2779.47 7010.26,2763.07 7030.47,2763.07Z"/>
                </g>
                <g transform="matrix(1,0,0,1,-5624.58,-1807.68)">
                    <path d="M7251.34,2737.42C7285.23,2737.42 7312.75,2764.94 7312.75,2798.83C7312.75,2832.73 7285.23,2860.25 7251.34,2860.25C7217.44,2860.25 7189.92,2832.73 7189.92,2798.83C7189.92,2764.94 7217.44,2737.42 7251.34,2737.42ZM7251.34,2763.07C7271.54,2763.07 7287.95,2779.47 7287.95,2799.68C7287.95,2819.89 7271.54,2836.3 7251.34,2836.3C7231.13,2836.3 7214.72,2819.89 7214.72,2799.68C7214.72,2779.47 7231.13,2763.07 7251.34,2763.07Z"/>
                </g>
            </g>
            <g transform="matrix(7.18457,0,0,0.846565,-8035.78,-708.046)">
                <path d="M1285.59,899.867L1284.88,905.862L1282.08,905.862L1282.08,870.099L1282.79,864.242L1281.99,864.242L1281.99,858.248L1284.88,858.248L1285.59,864.242L1285.59,899.867ZM1284.79,899.867L1284.79,864.242L1282.89,864.242L1282.89,905.035L1283.48,899.867L1284.79,899.867Z" style="fill-rule:nonzero;"/>
                <path d="M1290.21,882.02L1289.41,888.842L1289.41,876.094L1288.21,876.094L1288.21,905.862L1287.41,905.862L1287.41,870.099L1288.21,870.099L1288.21,875.267L1288.8,870.099L1289.51,870.099L1290.21,876.094L1290.21,882.02Z" style="fill-rule:nonzero;"/>
                <path d="M1294.42,905.862L1293.63,905.862L1293.63,900.762L1293.03,905.862L1292.23,905.862L1291.52,899.867L1291.52,870.099L1292.32,870.099L1292.32,899.867L1293.63,899.867L1293.63,870.099L1294.42,870.099L1294.42,905.862Z" style="fill-rule:nonzero;"/>
                <path d="M1301.04,905.862L1300.24,905.862L1300.24,876.094L1299.04,876.094L1299.04,905.862L1298.23,905.862L1298.23,876.094L1297.04,876.094L1297.04,905.862L1296.24,905.862L1296.24,870.099L1297.04,870.099L1297.04,875.267L1297.63,870.099L1298.44,870.099L1298.93,874.44L1299.43,870.099L1300.34,870.099L1301.04,876.094L1301.04,905.862Z" style="fill-rule:nonzero;"/>
                <path d="M1308.22,905.862L1307.42,905.862L1307.42,882.02L1305.52,882.02L1305.52,905.862L1304.71,905.862L1304.71,858.248L1305.52,858.248L1305.52,880.918L1307.32,865.965L1307.32,858.248L1308.12,858.248L1308.12,866.654L1307,875.819L1307,876.714L1307.51,876.714L1308.22,882.64L1308.22,905.862Z" style="fill-rule:nonzero;"/>
                <path d="M1310.84,864.242L1310.04,864.242L1310.04,857.421L1310.84,857.421L1310.84,864.242ZM1310.84,905.862L1310.04,905.862L1310.04,875.336L1310.84,868.446L1310.84,905.862Z" style="fill-rule:nonzero;"/>
                <path d="M1315.46,905.862L1314.67,905.862L1314.67,900.762L1314.08,905.862L1313.26,905.862L1312.56,899.867L1312.56,876.094L1313.26,870.099L1314.67,870.099L1314.67,858.179L1315.46,851.426L1315.46,905.862ZM1314.67,899.867L1314.67,870.926L1314.05,876.094L1313.37,876.094L1313.37,899.867L1314.67,899.867Z" style="fill-rule:nonzero;"/>
            </g>
            <g transform="matrix(1,0,0,1,-4470.34,-1800.16)">
                <g id="pot">
                    <path d="M5986.08,2559.1C6014.11,2559.1 6036.87,2581.86 6036.87,2609.89C6036.87,2637.92 6014.11,2660.67 5986.08,2660.67C5958.05,2660.67 5935.3,2637.92 5935.3,2609.89C5935.3,2581.86 5958.05,2559.1 5986.08,2559.1ZM5986.08,2568.55C6008.9,2568.55 6027.42,2587.07 6027.42,2609.89C6027.42,2632.7 6008.9,2651.22 5986.08,2651.22C5963.27,2651.22 5944.74,2632.7 5944.74,2609.89C5944.74,2587.07 5963.27,2568.55 5986.08,2568.55Z"/>
                </g>
            </g>
            <g transform="matrix(1,0,0,1,-3.23838,3.27601)">
                <g transform="matrix(1,0,0,1,-288.886,517.608)">
                    <rect x="1228.53" y="550.171" width="54.358" height="54.358"/>
                </g>
                <g transform="matrix(1,0,0,1,-68.0196,517.608)">
                    <rect x="1228.53" y="550.171" width="54.358" height="54.358"/>
                </g>
                <g transform="matrix(1,0,0,1,152.847,517.608)">
                    <rect x="1228.53" y="550.171" width="54.358" height="54.358"/>
                </g>
                <g transform="matrix(1,0,0,1,373.713,517.608)">
                    <rect x="1228.53" y="550.171" width="54.358" height="54.358"/>
                </g>
            </g>
            <g transform="matrix(1,0,0,1,-3.23838,185.165)">
                <g transform="matrix(1,0,0,1,-288.886,517.608)">
                    <rect x="1228.53" y="550.171" width="54.358" height="54.358"/>
                </g>
                <g transform="matrix(1,0,0,1,-68.0196,517.608)">
                    <rect x="1228.53" y="550.171" width="54.358" height="54.358"/>
                </g>
                <g transform="matrix(1,0,0,1,152.847,517.608)">
                    <rect x="1228.53" y="550.171" width="54.358" height="54.358"/>
                </g>
                <g transform="matrix(1,0,0,1,373.713,517.608)">
                    <rect x="1228.53" y="550.171" width="54.358" height="54.358"/>
                </g>
            </g>
            <g transform="matrix(1,0,0,1,-4470.34,-1800.16)">
                <g id="pot1" serif:id="pot">
                    <path d="M5765.34,2559.1C5793.37,2559.1 5816.12,2581.86 5816.12,2609.89C5816.12,2637.92 5793.37,2660.67 5765.34,2660.67C5737.31,2660.67 5714.55,2637.92 5714.55,2609.89C5714.55,2581.86 5737.31,2559.1 5765.34,2559.1ZM5765.34,2568.55C5788.15,2568.55 5806.67,2587.07 5806.67,2609.89C5806.67,2632.7 5788.15,2651.22 5765.34,2651.22C5742.52,2651.22 5724,2632.7 5724,2609.89C5724,2587.07 5742.52,2568.55 5765.34,2568.55Z"/>
                </g>
            </g>
        </g>
    </g>
</svg>
