<?xml version="1.0" encoding="UTF-8" standalone="no"?>
<!DOCTYPE svg PUBLIC "-//W3C//DTD SVG 1.1//EN" "http://www.w3.org/Graphics/SVG/1.1/DTD/svg11.dtd">
<svg width="100%" height="100%" viewBox="0 0 840 1518" version="1.1" xmlns="http://www.w3.org/2000/svg" xmlns:xlink="http://www.w3.org/1999/xlink" xml:space="preserve" xmlns:serif="http://www.serif.com/" style="fill-rule:evenodd;clip-rule:evenodd;stroke-linejoin:round;stroke-miterlimit:2;">
    <g transform="matrix(1,0,0,1,-6721.9,-13.7374)">
        <g id="FR4" transform="matrix(1,0,0,1,5846.9,13.7374)">
            <rect x="875" y="0" width="840" height="1517.72" style="fill:rgb(83,27,147);"/>
            <g transform="matrix(0.707107,0.707107,-0.707107,0.707107,984.647,599.172)">
                <rect x="-17.812" y="-40.647" width="35.624" height="23.302" style="fill:rgb(255,38,0);"/>
            </g>
            <g transform="matrix(0.707107,0.707107,-0.707107,0.707107,984.647,451.535)">
                <rect x="-17.812" y="-40.647" width="35.624" height="23.302" style="fill:rgb(255,38,0);"/>
            </g>
            <g transform="matrix(0.707107,0.707107,-0.707107,0.707107,984.647,303.897)">
                <rect x="-17.812" y="-40.647" width="35.624" height="23.302" style="fill:rgb(0,249,0);"/>
            </g>
            <g transform="matrix(0.707107,0.707107,-0.707107,0.707107,984.647,156.259)">
                <rect x="-17.812" y="-40.647" width="35.624" height="23.302" style="fill:rgb(0,249,0);"/>
            </g>
            <g transform="matrix(0.707107,0.707107,-0.707107,0.707107,1205.29,599.172)">
                <rect x="-17.812" y="-40.647" width="35.624" height="23.302" style="fill:rgb(255,38,0);"/>
            </g>
            <g transform="matrix(0.707107,0.707107,-0.707107,0.707107,1205.29,451.535)">
                <rect x="-17.812" y="-40.647" width="35.624" height="23.302" style="fill:rgb(255,38,0);"/>
            </g>
            <g transform="matrix(0.707107,0.707107,-0.707107,0.707107,1205.29,303.897)">
                <rect x="-17.812" y="-40.647" width="35.624" height="23.302" style="fill:rgb(0,249,0);"/>
            </g>
            <g transform="matrix(0.707107,0.707107,-0.707107,0.707107,1205.29,156.259)">
                <rect x="-17.812" y="-40.647" width="35.624" height="23.302" style="fill:rgb(0,249,0);"/>
            </g>
            <g transform="matrix(0.707107,0.707107,-0.707107,0.707107,1425.93,599.172)">
                <rect x="-17.812" y="-40.647" width="35.624" height="23.302" style="fill:rgb(255,38,0);"/>
            </g>
            <g transform="matrix(0.707107,0.707107,-0.707107,0.707107,1425.93,451.535)">
                <rect x="-17.812" y="-40.647" width="35.624" height="23.302" style="fill:rgb(255,38,0);"/>
            </g>
            <g transform="matrix(0.707107,0.707107,-0.707107,0.707107,1425.93,303.897)">
                <rect x="-17.812" y="-40.647" width="35.624" height="23.302" style="fill:rgb(0,249,0);"/>
            </g>
            <g transform="matrix(0.707107,0.707107,-0.707107,0.707107,1425.93,156.259)">
                <rect x="-17.812" y="-40.647" width="35.624" height="23.302" style="fill:rgb(0,249,0);"/>
            </g>
            <g transform="matrix(0.707107,0.707107,-0.707107,0.707107,1646.57,599.172)">
                <rect x="-17.812" y="-40.647" width="35.624" height="23.302" style="fill:rgb(255,38,0);"/>
            </g>
            <g transform="matrix(0.707107,0.707107,-0.707107,0.707107,1646.57,451.535)">
                <rect x="-17.812" y="-40.647" width="35.624" height="23.302" style="fill:rgb(255,38,0);"/>
            </g>
            <g transform="matrix(0.707107,0.707107,-0.707107,0.707107,1646.57,303.897)">
                <rect x="-17.812" y="-40.647" width="35.624" height="23.302" style="fill:rgb(0,249,0);"/>
            </g>
            <g transform="matrix(0.707107,0.707107,-0.707107,0.707107,1646.57,156.259)">
                <rect x="-17.812" y="-40.647" width="35.624" height="23.302" style="fill:rgb(0,249,0);"/>
            </g>
            <g transform="matrix(1,0,0,1,-5846.9,-13.7374)">
                <path d="M6721.9,768.463L6721.9,781.872L6810.48,829.493L6921.2,770.282C6921.2,770.282 7031.35,817.404 7031.35,817.404L7141.9,770.161C7141.9,770.161 7252.21,817.403 7252.21,817.403L7362.94,770.282C7362.94,770.282 7473.09,829.497 7473.09,829.497L7561.9,781.745L7561.9,768.336L7473.09,816.088C7473.09,816.088 7363.54,757.193 7363.54,757.193L7252.23,804.56C7252.23,804.56 7141.91,757.314 7141.91,757.314L7031.36,804.559C7031.36,804.559 6920.64,757.193 6920.64,757.193L6810.49,816.092L6721.9,768.463Z" style="fill:rgb(146,144,0);"/>
            </g>
            <g transform="matrix(0.210526,0,0,0.718419,1171.89,194.266)">
                <rect x="1366.82" y="660.114" width="112.205" height="49.321" style="fill:rgb(146,144,0);"/>
            </g>
            <g transform="matrix(0.210526,0,0,0.359209,1201.42,449.101)">
                <rect x="1366.82" y="660.114" width="112.205" height="49.321" style="fill:rgb(146,144,0);"/>
            </g>
        </g>
    </g>
</svg>
