<?xml version="1.0" encoding="UTF-8" standalone="no"?>
<!DOCTYPE svg PUBLIC "-//W3C//DTD SVG 1.1//EN" "http://www.w3.org/Graphics/SVG/1.1/DTD/svg11.dtd">
<svg width="100%" height="100%" viewBox="0 0 840 1518" version="1.1" xmlns="http://www.w3.org/2000/svg" xmlns:xlink="http://www.w3.org/1999/xlink" xml:space="preserve" xmlns:serif="http://www.serif.com/" style="fill-rule:evenodd;clip-rule:evenodd;stroke-linejoin:round;stroke-miterlimit:2;">
    <g transform="matrix(1,0,0,1,-2444.05,-13.7374)">
        <g id="SilkScreen" transform="matrix(1,0,0,1,1569.05,13.7374)">
            <rect x="875" y="0" width="840" height="1517.72" style="fill:rgb(83,27,147);"/>
            <clipPath id="_clip1">
                <rect x="875" y="0" width="840" height="1517.72"/>
            </clipPath>
            <g clip-path="url(#_clip1)">
                <g transform="matrix(1,0,0,1,-1569.05,-13.7374)">
                    <path d="M2498.41,550.171L2444.05,550.171L2444.05,604.529L2498.41,604.529L2498.41,550.171ZM2481.35,591.879L2476.28,596.954L2466.19,596.954L2461.17,591.879L2461.17,586.863L2466.95,586.863L2466.95,591.879L2475.58,591.879L2475.58,576.771L2461.17,576.771L2461.17,556.646L2481.35,556.646L2481.35,561.721L2466.19,561.721L2466.19,571.754L2476.28,571.754L2481.35,576.771L2481.35,591.879Z" style="fill:white;"/>
                </g>
                <g transform="matrix(1,0,0,1,-1569.05,-13.7374)">
                    <path d="M2498.41,402.533L2444.05,402.533L2444.05,456.891L2498.41,456.891L2498.41,402.533ZM2481.7,449.316L2461.52,449.316L2461.52,444.241L2470.91,444.241L2470.91,415.075L2470.21,415.075L2463.74,421.55L2460.12,417.933L2469.05,409.008L2476.69,409.008L2476.69,444.241L2481.7,444.241L2481.7,449.316Z" style="fill:white;"/>
                </g>
                <g transform="matrix(1,0,0,1,854.822,-280.842)">
                    <g transform="matrix(58.3333,0,0,58.3333,32.9778,568.783)">
                        <path d="M0.42,-0.087L0.333,-0L0.16,-0L0.074,-0.087L0.074,-0.173L0.173,-0.173L0.173,-0.087L0.321,-0.087L0.321,-0.346L0.074,-0.346L0.074,-0.691L0.42,-0.691L0.42,-0.604L0.16,-0.604L0.16,-0.432L0.333,-0.432L0.42,-0.346L0.42,-0.087Z" style="fill:white;fill-rule:nonzero;"/>
                    </g>
                </g>
                <g transform="matrix(1,0,0,1,854.822,-428.48)">
                    <g transform="matrix(58.3333,0,0,58.3333,32.9778,568.783)">
                        <path d="M0.426,-0L0.08,-0L0.08,-0.087L0.241,-0.087L0.241,-0.587L0.229,-0.587L0.118,-0.476L0.056,-0.538L0.209,-0.691L0.34,-0.691L0.34,-0.087L0.426,-0.087L0.426,-0Z" style="fill:white;fill-rule:nonzero;"/>
                    </g>
                </g>
                <g transform="matrix(1,0,0,1,-1569.05,-13.7374)">
                    <path d="M2719.05,550.171L2664.69,550.171L2664.69,604.529L2719.05,604.529L2719.05,550.171ZM2702.69,591.879L2697.68,596.954L2686.83,596.954L2681.81,591.879L2681.81,561.721L2686.83,556.646L2701.99,556.646L2701.99,561.721L2687.59,561.721L2687.59,571.754L2697.68,571.754L2702.69,576.771L2702.69,591.879ZM2696.92,591.879L2696.92,576.771L2687.59,576.771L2687.59,591.879L2696.92,591.879Z" style="fill:white;"/>
                </g>
                <g transform="matrix(1,0,0,1,-1569.05,-13.7374)">
                    <path d="M2719.05,402.533L2664.69,402.533L2664.69,456.891L2719.05,456.891L2719.05,402.533ZM2701.29,428.2L2685.78,443.541L2685.78,444.241L2700.89,444.241L2700.89,449.316L2680.76,449.316L2680.76,441.5L2695.52,426.8L2695.52,414.083L2686.48,414.083L2686.48,424.116L2680.76,424.116L2680.76,414.083L2685.72,409.008L2696.28,409.008L2701.29,414.083L2701.29,428.2Z" style="fill:white;"/>
                </g>
                <g transform="matrix(1,0,0,1,1075.46,-280.842)">
                    <g transform="matrix(58.3333,0,0,58.3333,32.9778,568.783)">
                        <path d="M0.432,-0.087L0.346,-0L0.16,-0L0.074,-0.087L0.074,-0.604L0.16,-0.691L0.42,-0.691L0.42,-0.604L0.173,-0.604L0.173,-0.432L0.346,-0.432L0.432,-0.346L0.432,-0.087ZM0.333,-0.087L0.333,-0.346L0.173,-0.346L0.173,-0.087L0.333,-0.087Z" style="fill:white;fill-rule:nonzero;"/>
                    </g>
                </g>
                <g transform="matrix(1,0,0,1,1075.46,-428.48)">
                    <g transform="matrix(58.3333,0,0,58.3333,32.9778,568.783)">
                        <path d="M0.408,-0.362L0.142,-0.099L0.142,-0.087L0.401,-0.087L0.401,-0L0.056,-0L0.056,-0.134L0.309,-0.386L0.309,-0.604L0.154,-0.604L0.154,-0.432L0.056,-0.432L0.056,-0.604L0.141,-0.691L0.322,-0.691L0.408,-0.604L0.408,-0.362Z" style="fill:white;fill-rule:nonzero;"/>
                    </g>
                </g>
                <g transform="matrix(1,0,0,1,-1569.05,-13.7374)">
                    <path d="M2939.69,550.171L2885.33,550.171L2885.33,604.529L2939.69,604.529L2939.69,550.171ZM2922.22,577.588L2913.24,586.513L2913.24,596.954L2907.47,596.954L2907.47,584.879L2916.45,575.838L2916.45,561.721L2907.12,561.721L2907.12,571.754L2901.4,571.754L2901.4,556.646L2922.22,556.646L2922.22,577.588Z" style="fill:white;"/>
                </g>
                <g transform="matrix(1,0,0,1,-1569.05,-13.7374)">
                    <path d="M2939.69,402.533L2885.33,402.533L2885.33,456.891L2939.69,456.891L2939.69,402.533ZM2921.53,444.241L2916.57,449.316L2905.95,449.316L2900.99,444.241L2900.99,439.225L2906.77,439.225L2906.77,444.241L2915.75,444.241L2915.75,429.133L2906.3,429.133L2906.3,424.933L2916.45,414.783L2916.45,414.083L2900.99,414.083L2900.99,409.008L2921.53,409.008L2921.53,415.483L2912.83,424.116L2912.83,424.816L2916.45,424.816L2921.53,429.891L2921.53,444.241Z" style="fill:white;"/>
                </g>
                <g transform="matrix(1,0,0,1,1296.1,-280.842)">
                    <g transform="matrix(58.3333,0,0,58.3333,32.9778,568.783)">
                        <path d="M0.413,-0.332L0.259,-0.179L0.259,-0L0.16,-0L0.16,-0.207L0.314,-0.362L0.314,-0.604L0.154,-0.604L0.154,-0.432L0.056,-0.432L0.056,-0.691L0.413,-0.691L0.413,-0.332Z" style="fill:white;fill-rule:nonzero;"/>
                    </g>
                </g>
                <g transform="matrix(1,0,0,1,1296.1,-428.48)">
                    <g transform="matrix(58.3333,0,0,58.3333,32.9778,568.783)">
                        <path d="M0.401,-0.087L0.316,-0L0.134,-0L0.049,-0.087L0.049,-0.173L0.148,-0.173L0.148,-0.087L0.302,-0.087L0.302,-0.346L0.14,-0.346L0.14,-0.418L0.314,-0.592L0.314,-0.604L0.049,-0.604L0.049,-0.691L0.401,-0.691L0.401,-0.58L0.252,-0.432L0.252,-0.42L0.314,-0.42L0.401,-0.333L0.401,-0.087Z" style="fill:white;fill-rule:nonzero;"/>
                    </g>
                </g>
                <g transform="matrix(1,0,0,1,-1569.05,-13.7374)">
                    <path d="M3160.33,550.171L3105.97,550.171L3105.97,604.529L3160.33,604.529L3160.33,550.171ZM3145.55,596.954L3139.83,596.954L3139.83,581.846L3126.12,581.846L3126.12,596.954L3120.35,596.954L3120.35,561.721L3125.42,556.646L3145.55,556.646L3145.55,596.954ZM3143.45,561.721L3126.12,561.721L3126.12,581.146L3130.5,576.771L3139.83,576.771L3139.83,565.338L3143.45,561.721Z" style="fill:white;"/>
                </g>
                <g transform="matrix(1,0,0,1,-1569.05,-13.7374)">
                    <path d="M3160.33,402.533L3105.97,402.533L3105.97,456.891L3160.33,456.891L3160.33,402.533ZM3142.57,449.316L3136.8,449.316L3136.8,439.225L3122.04,439.225L3122.04,422.25L3135.16,409.008L3141.99,409.008L3127.41,423.475L3127.41,434.208L3136.8,434.208L3136.8,421.958L3142.57,416.183L3142.57,449.316Z" style="fill:white;"/>
                </g>
                <g transform="matrix(1,0,0,1,1516.74,-280.842)">
                    <g transform="matrix(58.3333,0,0,58.3333,32.9778,568.783)">
                        <path d="M0.432,-0.087L0.346,-0L0.148,-0L0.062,-0.087L0.062,-0.342L0.129,-0.408L0.078,-0.469L0.078,-0.613L0.152,-0.691L0.342,-0.691L0.416,-0.618L0.416,-0.469L0.366,-0.407L0.432,-0.34L0.432,-0.087ZM0.318,-0.42L0.318,-0.607L0.177,-0.603L0.177,-0.42L0.318,-0.42ZM0.333,-0.087L0.333,-0.346L0.16,-0.346L0.16,-0.087L0.333,-0.087Z" style="fill:white;fill-rule:nonzero;"/>
                    </g>
                </g>
                <g transform="matrix(1,0,0,1,1516.74,-428.48)">
                    <g transform="matrix(58.3333,0,0,58.3333,32.9778,568.783)">
                        <path d="M0.408,-0L0.309,-0L0.309,-0.173L0.056,-0.173L0.056,-0.464L0.281,-0.691L0.398,-0.691L0.148,-0.443L0.148,-0.259L0.309,-0.259L0.309,-0.469L0.408,-0.568L0.408,-0Z" style="fill:white;fill-rule:nonzero;"/>
                    </g>
                </g>
                <g transform="matrix(1,0,0,1,-1569.05,-13.7374)">
                    <path d="M2498.26,1085.65L2443.9,1085.65L2443.9,1140.01L2498.26,1140.01L2498.26,1085.65ZM2481.55,1132.44L2461.37,1132.44L2461.37,1127.36L2470.76,1127.36L2470.76,1098.19L2470.06,1098.19L2463.58,1104.67L2459.97,1101.05L2468.89,1092.13L2476.53,1092.13L2476.53,1127.36L2481.55,1127.36L2481.55,1132.44Z" style="fill:white;"/>
                </g>
                <g transform="matrix(1,0,0,1,-1569.05,-13.7374)">
                    <path d="M2718.89,1085.65L2664.53,1085.65L2664.53,1140.01L2718.89,1140.01L2718.89,1085.65ZM2701.13,1111.32L2685.62,1126.66L2685.62,1127.36L2700.72,1127.36L2700.72,1132.44L2680.6,1132.44L2680.6,1124.62L2695.36,1109.92L2695.36,1097.2L2686.32,1097.2L2686.32,1107.24L2680.6,1107.24L2680.6,1097.2L2685.56,1092.13L2696.12,1092.13L2701.13,1097.2L2701.13,1111.32Z" style="fill:white;"/>
                </g>
                <g transform="matrix(1,0,0,1,-1569.05,-13.7374)">
                    <path d="M2939.52,1085.65L2885.16,1085.65L2885.16,1140.01L2939.52,1140.01L2939.52,1085.65ZM2921.36,1127.36L2916.4,1132.44L2905.78,1132.44L2900.82,1127.36L2900.82,1122.35L2906.6,1122.35L2906.6,1127.36L2915.58,1127.36L2915.58,1112.25L2906.13,1112.25L2906.13,1108.05L2916.28,1097.9L2916.28,1097.2L2900.82,1097.2L2900.82,1092.13L2921.36,1092.13L2921.36,1098.6L2912.66,1107.24L2912.66,1107.94L2916.28,1107.94L2921.36,1113.01L2921.36,1127.36Z" style="fill:white;"/>
                </g>
                <g transform="matrix(1,0,0,1,-1569.05,-13.7374)">
                    <path d="M3160.15,1085.65L3105.79,1085.65L3105.79,1140.01L3160.15,1140.01L3160.15,1085.65ZM3142.39,1132.44L3136.62,1132.44L3136.62,1122.35L3121.86,1122.35L3121.86,1105.37L3134.99,1092.13L3141.81,1092.13L3127.23,1106.6L3127.23,1117.33L3136.62,1117.33L3136.62,1105.08L3142.39,1099.3L3142.39,1132.44Z" style="fill:white;"/>
                </g>
                <g transform="matrix(1,0,0,1,-1569.05,-13.7374)">
                    <path d="M2498.26,1268.07L2443.9,1268.07L2443.9,1322.43L2498.26,1322.43L2498.26,1268.07ZM2481.2,1309.78L2476.12,1314.85L2466.03,1314.85L2461.02,1309.78L2461.02,1304.76L2466.79,1304.76L2466.79,1309.78L2475.43,1309.78L2475.43,1294.67L2461.02,1294.67L2461.02,1274.54L2481.2,1274.54L2481.2,1279.62L2466.03,1279.62L2466.03,1289.65L2476.12,1289.65L2481.2,1294.67L2481.2,1309.78Z" style="fill:white;"/>
                </g>
                <g transform="matrix(1,0,0,1,-1569.05,-13.7374)">
                    <path d="M2718.89,1268.07L2664.53,1268.07L2664.53,1322.43L2718.89,1322.43L2718.89,1268.07ZM2702.53,1309.78L2697.51,1314.85L2686.66,1314.85L2681.65,1309.78L2681.65,1279.62L2686.66,1274.54L2701.83,1274.54L2701.83,1279.62L2687.42,1279.62L2687.42,1289.65L2697.51,1289.65L2702.53,1294.67L2702.53,1309.78ZM2696.76,1309.78L2696.76,1294.67L2687.42,1294.67L2687.42,1309.78L2696.76,1309.78Z" style="fill:white;"/>
                </g>
                <g transform="matrix(1,0,0,1,-1569.05,-13.7374)">
                    <path d="M2939.52,1268.07L2885.16,1268.07L2885.16,1322.43L2939.52,1322.43L2939.52,1268.07ZM2922.05,1295.49L2913.07,1304.41L2913.07,1314.85L2907.3,1314.85L2907.3,1302.78L2916.28,1293.74L2916.28,1279.62L2906.95,1279.62L2906.95,1289.65L2901.23,1289.65L2901.23,1274.54L2922.05,1274.54L2922.05,1295.49Z" style="fill:white;"/>
                </g>
                <g transform="matrix(1,0,0,1,-1569.05,-13.7374)">
                    <path d="M3160.15,1268.07L3105.79,1268.07L3105.79,1322.43L3160.15,1322.43L3160.15,1268.07ZM3145.37,1314.85L3139.65,1314.85L3139.65,1299.74L3125.94,1299.74L3125.94,1314.85L3120.17,1314.85L3120.17,1279.62L3125.24,1274.54L3145.37,1274.54L3145.37,1314.85ZM3143.27,1279.62L3125.94,1279.62L3125.94,1299.04L3130.32,1294.67L3139.65,1294.67L3139.65,1283.24L3143.27,1279.62Z" style="fill:white;"/>
                </g>
                <g transform="matrix(3.20626,0,0,1.13162,-3488.25,-130.654)">
                    <path d="M1422.92,882.018L1429.19,894.543L1416.66,894.543L1422.92,882.018Z" style="fill:white;"/>
                </g>
                <g transform="matrix(3.20626,0,0,1.13162,-3046.52,-130.654)">
                    <path d="M1422.92,882.018L1429.19,894.543L1416.66,894.543L1422.92,882.018Z" style="fill:white;"/>
                </g>
                <g transform="matrix(1,0,0,1,-28.8406,-9.34929)">
                    <g transform="matrix(58.3333,0,0,58.3333,1257.98,883.431)">
                        <path d="M0.507,-0.087L0.42,-0L0.173,-0L0.087,-0.087L0.087,-0.604L0.173,-0.691L0.42,-0.691L0.507,-0.604L0.507,-0.532L0.408,-0.432L0.408,-0.604L0.186,-0.604L0.186,-0.087L0.408,-0.087L0.408,-0.16L0.507,-0.259L0.507,-0.087Z" style="fill:white;fill-rule:nonzero;"/>
                    </g>
                    <g transform="matrix(58.3333,0,0,58.3333,1290.42,883.431)">
                        <path d="M0.271,-0L0.173,-0L0.087,-0.087L0.087,-0.704L0.186,-0.802L0.186,-0.087L0.271,-0.087L0.271,-0Z" style="fill:white;fill-rule:nonzero;"/>
                    </g>
                    <g transform="matrix(58.3333,0,0,58.3333,1306.63,883.431)">
                        <path d="M0.434,-0.087L0.348,-0L0.163,-0L0.077,-0.087L0.077,-0.432L0.163,-0.519L0.348,-0.519L0.434,-0.432L0.434,-0.087ZM0.336,-0.087L0.336,-0.432L0.176,-0.432L0.176,-0.087L0.336,-0.087Z" style="fill:white;fill-rule:nonzero;"/>
                    </g>
                    <g transform="matrix(58.3333,0,0,58.3333,1336.44,883.431)">
                        <path d="M0.41,-0.432L0.311,-0.332L0.311,-0.432L0.176,-0.432L0.176,-0.087L0.398,-0.087L0.398,-0L0.163,-0L0.077,-0.087L0.077,-0.432L0.163,-0.519L0.323,-0.519L0.41,-0.432Z" style="fill:white;fill-rule:nonzero;"/>
                    </g>
                    <g transform="matrix(58.3333,0,0,58.3333,1360.94,883.431)">
                        <path d="M0.191,-0.299L0.438,-0.543L0.438,-0.437L0.351,-0.351L0.438,-0.263L0.438,-0L0.34,-0L0.34,-0.284L0.191,-0.284L0.191,-0L0.092,-0L0.092,-0.703L0.191,-0.802L0.191,-0.299Z" style="fill:white;fill-rule:nonzero;"/>
                    </g>
                </g>
                <g transform="matrix(1,0,0,1,-377.17,-11.5387)">
                    <g transform="matrix(58.3333,0,0,58.3333,1302.47,909.474)">
                        <rect x="0.099" y="-0.691" width="0.099" height="0.691" style="fill:white;fill-rule:nonzero;"/>
                    </g>
                    <g transform="matrix(58.3333,0,0,58.3333,1319.8,909.474)">
                        <path d="M0.444,-0L0.346,-0L0.346,-0.432L0.186,-0.432L0.186,-0L0.087,-0L0.087,-0.519L0.186,-0.519L0.186,-0.444L0.259,-0.519L0.358,-0.519L0.444,-0.432L0.444,-0Z" style="fill:white;fill-rule:nonzero;"/>
                    </g>
                    <g transform="matrix(58.3333,0,0,58.3333,1350.37,909.474)">
                        <path d="M0.426,-0L0.08,-0L0.08,-0.087L0.241,-0.087L0.241,-0.587L0.229,-0.587L0.118,-0.476L0.056,-0.538L0.209,-0.691L0.34,-0.691L0.34,-0.087L0.426,-0.087L0.426,-0Z" style="fill:white;fill-rule:nonzero;"/>
                    </g>
                </g>
                <g transform="matrix(1,0,0,1,286,-11.5387)">
                    <g transform="matrix(58.3333,0,0,58.3333,1302.47,909.474)">
                        <rect x="0.099" y="-0.691" width="0.099" height="0.691" style="fill:white;fill-rule:nonzero;"/>
                    </g>
                    <g transform="matrix(58.3333,0,0,58.3333,1319.8,909.474)">
                        <path d="M0.444,-0L0.346,-0L0.346,-0.432L0.186,-0.432L0.186,-0L0.087,-0L0.087,-0.519L0.186,-0.519L0.186,-0.444L0.259,-0.519L0.358,-0.519L0.444,-0.432L0.444,-0Z" style="fill:white;fill-rule:nonzero;"/>
                    </g>
                    <g transform="matrix(58.3333,0,0,58.3333,1350.37,909.474)">
                        <path d="M0.408,-0.362L0.142,-0.099L0.142,-0.087L0.401,-0.087L0.401,-0L0.056,-0L0.056,-0.134L0.309,-0.386L0.309,-0.604L0.154,-0.604L0.154,-0.432L0.056,-0.432L0.056,-0.604L0.141,-0.691L0.322,-0.691L0.408,-0.604L0.408,-0.362Z" style="fill:white;fill-rule:nonzero;"/>
                    </g>
                </g>
            </g>
        </g>
    </g>
</svg>
