<?xml version="1.0" encoding="UTF-8" standalone="no"?>
<!DOCTYPE svg PUBLIC "-//W3C//DTD SVG 1.1//EN" "http://www.w3.org/Graphics/SVG/1.1/DTD/svg11.dtd">
<svg width="100%" height="100%" viewBox="0 0 840 1518" version="1.1" xmlns="http://www.w3.org/2000/svg" xmlns:xlink="http://www.w3.org/1999/xlink" xml:space="preserve" xmlns:serif="http://www.serif.com/" style="fill-rule:evenodd;clip-rule:evenodd;stroke-linejoin:round;stroke-miterlimit:2;">
    <g transform="matrix(1,0,0,1,-2443.9,-1800.16)">
        <g id="F.Silk" transform="matrix(1,0,0,1,1568.9,1800.16)">
            <rect x="875" y="0" width="840" height="1517.72" style="fill:none;"/>
            <clipPath id="_clip1">
                <rect x="875" y="0" width="840" height="1517.72"/>
            </clipPath>
            <g clip-path="url(#_clip1)">
                <g id="Panel-Edge" serif:id="Panel Edge" transform="matrix(1,0,0,1,875,0)">
                    <rect x="0" y="0" width="840" height="1517.72" style="fill:none;"/>
                </g>
                <g transform="matrix(1,0,0,1,881.66,-1.88395)">
                    <g transform="matrix(1,0,0,1,-2450.56,-1798.28)">
                        <path d="M2498.26,2336.6L2443.9,2336.6L2443.9,2390.95L2498.26,2390.95L2498.26,2336.6ZM2481.2,2378.3L2476.12,2383.38L2466.03,2383.38L2461.02,2378.3L2461.02,2373.29L2466.79,2373.29L2466.79,2378.3L2475.43,2378.3L2475.43,2363.2L2461.02,2363.2L2461.02,2343.07L2481.2,2343.07L2481.2,2348.15L2466.03,2348.15L2466.03,2358.18L2476.12,2358.18L2481.2,2363.2L2481.2,2378.3Z"/>
                    </g>
                    <g transform="matrix(1,0,0,1,-2450.56,-1798.28)">
                        <path d="M2498.26,2188.96L2443.9,2188.96L2443.9,2243.32L2498.26,2243.32L2498.26,2188.96ZM2481.55,2235.74L2461.37,2235.74L2461.37,2230.67L2470.76,2230.67L2470.76,2201.5L2470.06,2201.5L2463.58,2207.97L2459.97,2204.36L2468.89,2195.43L2476.53,2195.43L2476.53,2230.67L2481.55,2230.67L2481.55,2235.74Z"/>
                    </g>
                    <g transform="matrix(0.705714,0,0,1,-20.2469,-278.958)">
                        <path d="M72.107,563.708L64.916,568.783L50.616,568.783L43.508,563.708L43.508,558.691L51.691,558.691L51.691,563.708L63.924,563.708L63.924,548.6L43.508,548.6L43.508,528.475L72.107,528.475L72.107,533.55L50.616,533.55L50.616,543.583L64.916,543.583L72.107,548.6L72.107,563.708Z" style="fill-rule:nonzero;"/>
                    </g>
                    <g transform="matrix(0.705714,0,0,1,-20.2469,-426.596)">
                        <path d="M72.603,568.783L44.004,568.783L44.004,563.708L57.312,563.708L57.312,534.541L56.32,534.541L47.145,541.016L42.02,537.4L54.666,528.475L65.495,528.475L65.495,563.708L72.603,563.708L72.603,568.783Z" style="fill-rule:nonzero;"/>
                    </g>
                </g>
                <g transform="matrix(1,0,0,1,1102.3,-1.88395)">
                    <g transform="matrix(1,0,0,1,-2671.2,-1798.28)">
                        <path d="M2718.9,2336.6L2664.54,2336.6L2664.54,2390.95L2718.9,2390.95L2718.9,2336.6ZM2702.54,2378.3L2697.52,2383.38L2686.67,2383.38L2681.66,2378.3L2681.66,2348.15L2686.67,2343.07L2701.84,2343.07L2701.84,2348.15L2687.43,2348.15L2687.43,2358.18L2697.52,2358.18L2702.54,2363.2L2702.54,2378.3ZM2696.77,2378.3L2696.77,2363.2L2687.43,2363.2L2687.43,2378.3L2696.77,2378.3Z"/>
                    </g>
                    <g transform="matrix(1,0,0,1,-2671.2,-1798.28)">
                        <path d="M2718.9,2188.96L2664.54,2188.96L2664.54,2243.32L2718.9,2243.32L2718.9,2188.96ZM2701.14,2214.62L2685.62,2229.97L2685.62,2230.67L2700.73,2230.67L2700.73,2235.74L2680.61,2235.74L2680.61,2227.92L2695.37,2213.22L2695.37,2200.51L2686.32,2200.51L2686.32,2210.54L2680.61,2210.54L2680.61,2200.51L2685.57,2195.43L2696.12,2195.43L2701.14,2200.51L2701.14,2214.62Z"/>
                    </g>
                    <g transform="matrix(0.705714,0,0,1,-20.2469,-278.958)">
                        <path d="M73.099,563.708L65.991,568.783L50.616,568.783L43.508,563.708L43.508,533.55L50.616,528.475L72.107,528.475L72.107,533.55L51.691,533.55L51.691,543.583L65.991,543.583L73.099,548.6L73.099,563.708ZM64.916,563.708L64.916,548.6L51.691,548.6L51.691,563.708L64.916,563.708Z" style="fill-rule:nonzero;"/>
                    </g>
                    <g transform="matrix(0.705714,0,0,1,-20.2469,-426.596)">
                        <path d="M71.116,547.666L49.128,563.008L49.128,563.708L70.537,563.708L70.537,568.783L42.02,568.783L42.02,560.966L62.932,546.266L62.932,533.55L50.12,533.55L50.12,543.583L42.02,543.583L42.02,533.55L49.046,528.475L64.007,528.475L71.116,533.55L71.116,547.666Z" style="fill-rule:nonzero;"/>
                    </g>
                </g>
                <g transform="matrix(1,0,0,1,1322.94,-1.88395)">
                    <g transform="matrix(1,0,0,1,-2891.84,-1798.28)">
                        <path d="M2939.54,2336.6L2885.18,2336.6L2885.18,2390.95L2939.54,2390.95L2939.54,2336.6ZM2922.07,2364.01L2913.09,2372.94L2913.09,2383.38L2907.31,2383.38L2907.31,2371.3L2916.3,2362.26L2916.3,2348.15L2906.96,2348.15L2906.96,2358.18L2901.25,2358.18L2901.25,2343.07L2922.07,2343.07L2922.07,2364.01Z"/>
                    </g>
                    <g transform="matrix(1,0,0,1,-2891.84,-1798.28)">
                        <path d="M2939.54,2188.96L2885.18,2188.96L2885.18,2243.32L2939.54,2243.32L2939.54,2188.96ZM2921.37,2230.67L2916.41,2235.74L2905.8,2235.74L2900.84,2230.67L2900.84,2225.65L2906.61,2225.65L2906.61,2230.67L2915.6,2230.67L2915.6,2215.56L2906.15,2215.56L2906.15,2211.36L2916.3,2201.21L2916.3,2200.51L2900.84,2200.51L2900.84,2195.43L2921.37,2195.43L2921.37,2201.91L2912.68,2210.54L2912.68,2211.24L2916.3,2211.24L2921.37,2216.32L2921.37,2230.67Z"/>
                    </g>
                    <g transform="matrix(0.705714,0,0,1,-20.2469,-278.958)">
                        <path d="M71.529,549.416L58.799,558.341L58.799,568.783L50.616,568.783L50.616,556.708L63.346,547.666L63.346,533.55L50.12,533.55L50.12,543.583L42.02,543.583L42.02,528.475L71.529,528.475L71.529,549.416Z" style="fill-rule:nonzero;"/>
                    </g>
                    <g transform="matrix(0.705714,0,0,1,-20.2469,-426.596)">
                        <path d="M70.537,563.708L63.511,568.783L48.467,568.783L41.441,563.708L41.441,558.691L49.624,558.691L49.624,563.708L62.354,563.708L62.354,548.6L48.963,548.6L48.963,544.4L63.346,534.25L63.346,533.55L41.441,533.55L41.441,528.475L70.537,528.475L70.537,534.95L58.221,543.583L58.221,544.283L63.346,544.283L70.537,549.358L70.537,563.708Z" style="fill-rule:nonzero;"/>
                    </g>
                </g>
                <g transform="matrix(1,0,0,1,1543.58,-1.88395)">
                    <g transform="matrix(1,0,0,1,-3112.48,-1798.28)">
                        <path d="M3160.18,2336.6L3105.82,2336.6L3105.82,2390.95L3160.18,2390.95L3160.18,2336.6ZM3145.4,2383.38L3139.68,2383.38L3139.68,2368.27L3125.97,2368.27L3125.97,2383.38L3120.2,2383.38L3120.2,2348.15L3125.27,2343.07L3145.4,2343.07L3145.4,2383.38ZM3143.3,2348.15L3125.97,2348.15L3125.97,2367.57L3130.35,2363.2L3139.68,2363.2L3139.68,2351.76L3143.3,2348.15Z"/>
                    </g>
                    <g transform="matrix(1,0,0,1,-3112.48,-1798.28)">
                        <path d="M3160.18,2188.96L3105.82,2188.96L3105.82,2243.32L3160.18,2243.32L3160.18,2188.96ZM3142.42,2235.74L3136.65,2235.74L3136.65,2225.65L3121.89,2225.65L3121.89,2208.67L3135.01,2195.43L3141.84,2195.43L3127.25,2209.9L3127.25,2220.63L3136.65,2220.63L3136.65,2208.38L3142.42,2202.61L3142.42,2235.74Z"/>
                    </g>
                    <g transform="matrix(0.705714,0,0,1,-20.2469,-278.958)">
                        <path d="M73.099,563.708L65.991,568.783L49.624,568.783L42.516,563.708L42.516,548.833L48.054,544.983L43.838,541.425L43.838,533.025L49.955,528.475L65.66,528.475L71.777,532.733L71.777,541.425L67.644,545.041L73.099,548.95L73.099,563.708ZM63.676,544.283L63.676,533.375L52.021,533.608L52.021,544.283L63.676,544.283ZM64.916,563.708L64.916,548.6L50.616,548.6L50.616,563.708L64.916,563.708Z" style="fill-rule:nonzero;"/>
                    </g>
                    <g transform="matrix(0.705714,0,0,1,-20.2469,-426.596)">
                        <path d="M71.116,568.783L62.932,568.783L62.932,558.691L42.02,558.691L42.02,541.716L60.618,528.475L70.289,528.475L49.624,542.941L49.624,553.675L62.932,553.675L62.932,541.425L71.116,535.65L71.116,568.783Z" style="fill-rule:nonzero;"/>
                    </g>
                </g>
                <g transform="matrix(0.860029,-0.860029,0.39777,0.39777,-441.776,1526.26)">
                    <path d="M1272.78,875.017L1260.93,875.017L1260.93,883.935L1267.45,883.935L1271.63,892.956L1271.63,910.792L1267.45,919.814L1256.18,919.814L1256.18,910.792L1266.88,910.792L1266.88,892.956L1260.36,892.956L1256.18,883.935L1256.18,875.017L1260.36,865.995L1268.56,865.995L1272.78,875.017Z" style="fill-rule:nonzero;"/>
                    <path d="M1294.98,919.814L1290.24,919.814L1290.24,875.017L1282.51,875.017L1282.51,919.814L1277.77,919.814L1277.77,847.018L1282.51,836.856L1282.51,873.772L1286.02,865.995L1290.81,865.995L1294.98,875.017L1294.98,919.814Z" style="fill-rule:nonzero;"/>
                    <path d="M1307.74,857.181L1302.99,857.181L1302.99,846.914L1307.74,846.914L1307.74,857.181ZM1307.74,919.814L1302.99,919.814L1302.99,873.876L1307.74,863.506L1307.74,919.814Z" style="fill-rule:nonzero;"/>
                    <path d="M1331.05,848.159L1320.98,848.159L1320.98,872.424L1323.95,865.995L1329.18,865.995L1325.06,875.017L1320.98,875.017L1320.98,919.814L1316.23,919.814L1316.23,848.159L1320.4,839.137L1326.83,839.137L1331.05,848.159Z" style="fill-rule:nonzero;"/>
                    <path d="M1343.52,865.995L1339.35,875.017L1336.37,875.017L1336.37,910.792L1342.27,910.792L1342.27,919.814L1335.8,919.814L1331.63,910.792L1331.63,875.017L1325.73,875.017L1329.9,865.995L1331.63,865.995L1331.63,858.425L1336.37,848.159L1336.37,865.995L1343.52,865.995Z" style="fill-rule:nonzero;"/>
                </g>
                <g transform="matrix(1,0,0,1,-3.23838,3.27601)">
                    <g transform="matrix(1,0,0,1,-1565.66,-1803.44)">
                        <path d="M2559.66,2871.22L2505.3,2871.22L2505.3,2925.58L2559.66,2925.58L2559.66,2871.22ZM2542.95,2918L2522.77,2918L2522.77,2912.93L2532.16,2912.93L2532.16,2883.76L2531.46,2883.76L2524.99,2890.23L2521.37,2886.62L2530.3,2877.69L2537.94,2877.69L2537.94,2912.93L2542.95,2912.93L2542.95,2918Z"/>
                    </g>
                    <g transform="matrix(1,0,0,1,-1565.66,-1803.44)">
                        <path d="M2780.53,2871.22L2726.17,2871.22L2726.17,2925.58L2780.53,2925.58L2780.53,2871.22ZM2762.77,2896.88L2747.25,2912.22L2747.25,2912.93L2762.36,2912.93L2762.36,2918L2742.24,2918L2742.24,2910.18L2756.99,2895.48L2756.99,2882.77L2747.95,2882.77L2747.95,2892.8L2742.24,2892.8L2742.24,2882.77L2747.2,2877.69L2757.75,2877.69L2762.77,2882.77L2762.77,2896.88Z"/>
                    </g>
                    <g transform="matrix(1,0,0,1,-1565.66,-1803.44)">
                        <path d="M3001.39,2871.22L2947.04,2871.22L2947.04,2925.58L3001.39,2925.58L3001.39,2871.22ZM2983.23,2912.93L2978.27,2918L2967.65,2918L2962.7,2912.93L2962.7,2907.91L2968.47,2907.91L2968.47,2912.93L2977.45,2912.93L2977.45,2897.82L2968,2897.82L2968,2893.62L2978.15,2883.47L2978.15,2882.77L2962.7,2882.77L2962.7,2877.69L2983.23,2877.69L2983.23,2884.17L2974.54,2892.8L2974.54,2893.5L2978.15,2893.5L2983.23,2898.58L2983.23,2912.93Z"/>
                    </g>
                    <g transform="matrix(1,0,0,1,-1565.66,-1803.44)">
                        <path d="M3222.26,2871.22L3167.9,2871.22L3167.9,2925.58L3222.26,2925.58L3222.26,2871.22ZM3204.5,2918L3198.73,2918L3198.73,2907.91L3183.97,2907.91L3183.97,2890.93L3197.09,2877.69L3203.92,2877.69L3189.34,2892.16L3189.34,2902.89L3198.73,2902.89L3198.73,2890.64L3204.5,2884.87L3204.5,2918Z"/>
                    </g>
                </g>
                <g transform="matrix(1,0,0,1,-3.23838,185.165)">
                    <g transform="matrix(1,0,0,1,-1565.66,-1985.33)">
                        <path d="M2559.66,3053.11L2505.3,3053.11L2505.3,3107.47L2559.66,3107.47L2559.66,3053.11ZM2542.6,3094.82L2537.53,3099.89L2527.44,3099.89L2522.42,3094.82L2522.42,3089.8L2528.2,3089.8L2528.2,3094.82L2536.83,3094.82L2536.83,3079.71L2522.42,3079.71L2522.42,3059.58L2542.6,3059.58L2542.6,3064.66L2527.44,3064.66L2527.44,3074.69L2537.53,3074.69L2542.6,3079.71L2542.6,3094.82Z"/>
                    </g>
                    <g transform="matrix(1,0,0,1,-1565.66,-1985.33)">
                        <path d="M2780.53,3053.11L2726.17,3053.11L2726.17,3107.47L2780.53,3107.47L2780.53,3053.11ZM2764.17,3094.82L2759.15,3099.89L2748.3,3099.89L2743.29,3094.82L2743.29,3064.66L2748.3,3059.58L2763.47,3059.58L2763.47,3064.66L2749.06,3064.66L2749.06,3074.69L2759.15,3074.69L2764.17,3079.71L2764.17,3094.82ZM2758.39,3094.82L2758.39,3079.71L2749.06,3079.71L2749.06,3094.82L2758.39,3094.82Z"/>
                    </g>
                    <g transform="matrix(1,0,0,1,-1565.66,-1985.33)">
                        <path d="M3001.39,3053.11L2947.04,3053.11L2947.04,3107.47L3001.39,3107.47L3001.39,3053.11ZM2983.93,3080.52L2974.95,3089.45L2974.95,3099.89L2969.17,3099.89L2969.17,3087.82L2978.15,3078.77L2978.15,3064.66L2968.82,3064.66L2968.82,3074.69L2963.1,3074.69L2963.1,3059.58L2983.93,3059.58L2983.93,3080.52Z"/>
                    </g>
                    <g transform="matrix(1,0,0,1,-1565.66,-1985.33)">
                        <path d="M3222.26,3053.11L3167.9,3053.11L3167.9,3107.47L3222.26,3107.47L3222.26,3053.11ZM3207.48,3099.89L3201.76,3099.89L3201.76,3084.78L3188.05,3084.78L3188.05,3099.89L3182.28,3099.89L3182.28,3064.66L3187.35,3059.58L3207.48,3059.58L3207.48,3099.89ZM3205.38,3064.66L3188.05,3064.66L3188.05,3084.08L3192.43,3079.71L3201.76,3079.71L3201.76,3068.27L3205.38,3064.66Z"/>
                    </g>
                </g>
                <g transform="matrix(1,0,0,1,-0.577715,7.51557)">
                    <g transform="matrix(0.95673,0,0,0.562532,163.364,408.852)">
                        <path d="M1309.09,919.814L1303.05,919.814L1303.05,912.14L1298.54,919.814L1292.51,919.814L1287.26,910.792L1287.26,892.956L1292.51,883.935L1302.44,883.935L1297.44,892.853L1293.24,892.853L1293.24,910.792L1303.05,910.792L1303.05,875.017L1286.47,875.017L1290.98,865.995L1303.85,865.995L1309.09,875.017L1309.09,919.814Z" style="fill-rule:nonzero;"/>
                    </g>
                    <g transform="matrix(1.04885,0,0,0.562532,264.596,408.852)">
                        <path d="M1309.15,910.792L1304.31,919.814L1294.69,919.814L1294.69,910.896L1289.19,921.058L1289.19,847.433L1294.69,836.648L1294.69,872.424L1298.14,865.995L1304.31,865.995L1309.15,875.017L1309.15,910.792ZM1303.65,910.792L1303.65,875.017L1294.69,875.017L1294.69,910.792L1303.65,910.792Z" style="fill-rule:nonzero;"/>
                    </g>
                    <g transform="matrix(0.896195,0,0,0.562532,-199.75,408.852)">
                        <path d="M1286.65,875.017L1280.21,885.386L1280.21,875.017L1271.42,875.017L1271.42,910.792L1285.87,910.792L1285.87,919.814L1270.57,919.814L1264.98,910.792L1264.98,875.017L1270.57,865.995L1280.99,865.995L1286.65,875.017Z" style="fill-rule:nonzero;"/>
                        <path d="M1304.94,919.814L1298.56,919.814L1292.96,910.792L1292.96,846.811L1299.41,836.648L1299.41,910.792L1304.94,910.792L1304.94,919.814Z" style="fill-rule:nonzero;"/>
                        <path d="M1317.83,888.808L1333.91,863.506L1333.91,874.498L1328.24,883.416L1333.91,892.541L1333.91,919.814L1327.53,919.814L1327.53,890.364L1317.83,890.364L1317.83,919.814L1311.38,919.814L1311.38,846.914L1317.83,836.648L1317.83,888.808Z" style="fill-rule:nonzero;"/>
                    </g>
                    <g transform="matrix(1.91215,0,0,0.594408,-1298.33,379.532)">
                        <path d="M1293.87,885.859L1290.85,895.574L1290.85,877.419L1286.37,877.419L1286.37,919.814L1283.35,919.814L1283.35,868.881L1286.37,868.881L1286.37,876.241L1288.57,868.881L1291.25,868.881L1293.87,877.419L1293.87,885.859Z" style="fill-rule:nonzero;"/>
                        <path d="M1306.41,877.419L1298.88,877.419L1298.88,885.859L1303.03,885.859L1305.68,894.397L1305.68,911.276L1303.03,919.814L1295.86,919.814L1295.86,911.276L1302.66,911.276L1302.66,894.397L1298.51,894.397L1295.86,885.859L1295.86,877.419L1298.51,868.881L1303.73,868.881L1306.41,877.419Z" style="fill-rule:nonzero;"/>
                        <path d="M1317.15,868.881L1314.5,877.419L1312.61,877.419L1312.61,911.276L1316.36,911.276L1316.36,919.814L1312.24,919.814L1309.59,911.276L1309.59,877.419L1305.83,877.419L1308.49,868.881L1309.59,868.881L1309.59,861.717L1312.61,852.001L1312.61,868.881L1317.15,868.881Z" style="fill-rule:nonzero;"/>
                    </g>
                </g>
            </g>
        </g>
    </g>
</svg>
